<?xml version="1.0" encoding="UTF-8"?>
<svg width="31px" height="18px" viewBox="0 0 31 18" version="1.1" xmlns="http://www.w3.org/2000/svg" xmlns:xlink="http://www.w3.org/1999/xlink">
    <!-- Generator: Sketch 51.2 (57519) - http://www.bohemiancoding.com/sketch -->
    <title>More_arrow_right</title>
    <desc>Created with Sketch.</desc>
    <defs></defs>
    <g id="More_arrow_right" stroke="none" stroke-width="1" fill="none" fill-rule="evenodd">
        <path d="M1.19128685,8.58483566 L8.9768235,1.1518154 C9.07619711,1.04982632 9.21188579,0.995001205 9.35166879,1.00035887 C9.50102725,1.00277938 9.64358066,1.06547765 9.74900479,1.1751164 C9.84893185,1.28616228 9.90098568,1.43452761 9.89320952,1.58613289 C9.88543336,1.73773817 9.81849559,1.87955247 9.70777181,1.97900104 L2.96055661,8.41784513 L29.4561291,8.41784513 C29.6029169,8.41778725 29.7434866,8.4792421 29.8458596,8.58822921 C29.9482326,8.69721632 30.0037041,8.84446836 29.9996548,8.99648673 C30.0049563,9.14847944 29.9490015,9.29590918 29.8451961,9.40345441 C29.7413908,9.51099964 29.5990879,9.56897036 29.4523807,9.56347782 L2.95305971,9.56347782 L9.7002749,16.0217394 C9.81099868,16.121188 9.87793645,16.2630023 9.88571261,16.4146076 C9.89348878,16.5662128 9.84143495,16.7145782 9.74150789,16.8256241 C9.53119061,17.0487634 9.18801761,17.0590688 8.96557814,16.8489251 L1.19128685,9.4159048 C1.18356531,9.38787034 1.10507244,9.33046778 1.10507244,9.33046778 C1.08301286,9.29724222 1.08112084,9.29039451 1.08258172,9.28386578 C1.02082263,9.16742076 0.998736837,9.08262465 1.00011575,8.99648673 C0.998189382,8.91150062 1.02034343,8.82779256 1.06383945,8.75570969 C1.06383945,8.73240868 1.08258172,8.70134068 1.08258172,8.70134068 C1.10507244,8.65473867 1.10507244,8.65473867 1.12756315,8.65473867 C1.1889173,8.59694217 1.19128685,8.59101547 1.19128685,8.58483566 Z" id="ARROW-right-Copy-2" stroke="#EE2E24" stroke-width="0.5" fill="#EE2E24" transform="translate(15.500000, 9.000000) scale(-1, 1) translate(-15.500000, -9.000000) "></path>
    </g>
</svg>