<?xml version="1.0" encoding="UTF-8"?>
<svg width="189px" height="143px" viewBox="0 0 189 143" version="1.1" xmlns="http://www.w3.org/2000/svg" xmlns:xlink="http://www.w3.org/1999/xlink">
    <!-- Generator: Sketch 51.2 (57519) - http://www.bohemiancoding.com/sketch -->
    <title>PALCEHOLDER 1</title>
    <desc>Created with Sketch.</desc>
    <defs>
        <linearGradient x1="49.9975383%" y1="100%" x2="49.9975383%" y2="0%" id="linearGradient-1">
            <stop stop-color="#808080" stop-opacity="0.25" offset="0%"></stop>
            <stop stop-color="#808080" stop-opacity="0.12" offset="54%"></stop>
            <stop stop-color="#808080" stop-opacity="0.1" offset="100%"></stop>
        </linearGradient>
        <linearGradient x1="49.9987158%" y1="100%" x2="49.9987158%" y2="-0.0353766581%" id="linearGradient-2">
            <stop stop-color="#808080" stop-opacity="0.25" offset="0%"></stop>
            <stop stop-color="#808080" stop-opacity="0.12" offset="54%"></stop>
            <stop stop-color="#808080" stop-opacity="0.1" offset="100%"></stop>
        </linearGradient>
        <linearGradient x1="50.0211969%" y1="99.9989599%" x2="50.0211969%" y2="-0.0114329159%" id="linearGradient-3">
            <stop stop-color="#808080" stop-opacity="0.25" offset="0%"></stop>
            <stop stop-color="#808080" stop-opacity="0.12" offset="54%"></stop>
            <stop stop-color="#808080" stop-opacity="0.1" offset="100%"></stop>
        </linearGradient>
        <linearGradient x1="50.0025907%" y1="100%" x2="50.0025907%" y2="0%" id="linearGradient-4">
            <stop stop-color="#808080" stop-opacity="0.25" offset="0%"></stop>
            <stop stop-color="#808080" stop-opacity="0.12" offset="54%"></stop>
            <stop stop-color="#808080" stop-opacity="0.1" offset="100%"></stop>
        </linearGradient>
    </defs>
    <g id="PALCEHOLDER-1" stroke="none" stroke-width="1" fill="none" fill-rule="evenodd">
        <g id="undraw_in_the_office_o44c">
            <polygon id="Shape" fill="url(#linearGradient-1)" fill-rule="nonzero" points="55 0 55 2.0494768 55 37 97 37 97 2.0494768 97 0"></polygon>
            <rect id="Rectangle-path" fill="#535461" fill-rule="nonzero" x="55" y="0" width="42" height="1"></rect>
            <rect id="Rectangle-path" fill="#EDEDF4" fill-rule="nonzero" x="55" y="1" width="42" height="35"></rect>
            <rect id="Rectangle-path" fill="#FFFFFF" fill-rule="nonzero" x="57" y="7" width="38" height="24"></rect>
            <circle id="Oval" fill="#FA595F" fill-rule="nonzero" cx="55.5" cy="1.5" r="1"></circle>
            <circle id="Oval" fill="#FFC74C" fill-rule="nonzero" cx="56.5" cy="1.5" r="1"></circle>
            <circle id="Oval" fill="#85D459" fill-rule="nonzero" cx="56.5" cy="1.5" r="1"></circle>
            <polyline id="Shape" stroke="#535461" stroke-width="2" points="61 9 61 28 92 28"></polyline>
            <rect id="Rectangle-path" fill="#EE2E24" fill-rule="nonzero" opacity="0.5" x="64" y="21" width="3" height="5"></rect>
            <rect id="Rectangle-path" fill="#EE2E24" fill-rule="nonzero" opacity="0.7" x="69" y="18" width="3" height="9"></rect>
            <rect id="Rectangle-path" fill="#EE2E24" fill-rule="nonzero" opacity="0.5" x="75" y="20" width="3" height="7"></rect>
            <rect id="Rectangle-path" fill="#EE2E24" fill-rule="nonzero" opacity="0.8" x="80" y="16" width="3" height="11"></rect>
            <rect id="Rectangle-path" fill="#EE2E24" fill-rule="nonzero" x="85" y="12" width="3" height="15"></rect>
            <polyline id="Shape" stroke="#535461" stroke-width="2" points="65 18 70.590613 13.1644355 76.0927203 17.7352867 81.5 12.198535 87 10"></polyline>
            <circle id="Oval" fill="#EE2E24" fill-rule="nonzero" cx="64.5" cy="18.5" r="1"></circle>
            <circle id="Oval" fill="#EE2E24" fill-rule="nonzero" cx="75.5" cy="18.5" r="1"></circle>
            <circle id="Oval" fill="#EE2E24" fill-rule="nonzero" cx="81.5" cy="12.5" r="1"></circle>
            <circle id="Oval" fill="#EE2E24" fill-rule="nonzero" cx="70.5" cy="13.5" r="1"></circle>
            <circle id="Oval" fill="#EE2E24" fill-rule="nonzero" cx="86.5" cy="10.5" r="1"></circle>
            <ellipse id="Oval" fill="#F5F5F5" fill-rule="nonzero" cx="94" cy="116" rx="94" ry="27"></ellipse>
            <path d="M114,64.6834328 C114,64.6834328 116.622892,51.8924549 126.650602,53.0775414 C126.650602,53.0775414 133.568373,53.5507385 135,58.0523922 L135,68 L114,64.6834328 Z" id="Shape" fill="#535461" fill-rule="nonzero"></path>
            <path d="M137.711227,43.2162195 C136.545321,43.0833589 135.440009,42.5835498 134.353502,42.0942853 C132.527334,41.2612702 130.657288,40.3818593 129.244829,38.8360364 C127.121961,36.5162475 126.350959,33.0913956 124.857012,30.2169663 C124.304086,29.0909448 123.564177,28.0688189 122.669371,27.1949141 C121.929085,26.5151258 121.071431,25.9782986 120.139063,25.611131 C118.306878,24.8763135 116.279652,24.8018283 114.399381,25.4002411 L115.444099,25.2252025 L110.974794,26.6655805 C110.419004,26.8469458 109.808888,27.0768158 109.526814,27.6441096 C109.24474,28.2114034 109.424432,29.0233295 109.825603,29.5421187 C110.226775,30.0609078 110.790923,30.3624804 111.338356,30.6535084 L111.808479,30.9023585 C111.032622,32.7376137 111.258178,34.8480388 112.403968,36.4740695 L112.403968,41.0988849 C111.299655,41.5009209 110.12107,41.6521365 108.952219,41.5417537 C108.630799,41.6497412 108.3349,41.8234781 108.083013,42.0521073 C107.53767,42.4738871 106.846067,43.3174466 106.563993,44.875923 C106.089691,47.5036111 100.71357,56.4537782 100.153601,57.3732582 L91.3779663,59.693047 L91.4302022,59.7436606 L91.2609578,59.7879475 C91.2609578,59.7879475 91.3299092,59.8533233 91.43856,59.9693128 C90.4481669,60.0367976 88.7055767,60.0325798 87.3202801,59.3746033 C85.8994631,58.6997556 83.6177982,59.3914745 82.3474206,59.880739 C82.1527016,59.956098 82.0182106,60.13768 82.0017044,60.347505 C81.9851982,60.5573299 82.0896144,60.7580577 82.2701114,60.8634859 C83.980429,61.8432111 85.898463,62.3949823 87.8635337,62.4725758 C90.0072958,62.5864564 91.7624227,62.6012187 92.9638488,62.5885653 C93.0208165,62.9585202 92.9232174,63.335753 92.6943115,63.6303614 L103.181195,62.1161719 C103.488347,61.9390074 103.778621,61.7335705 104.048311,61.5024823 C104.693359,60.9854247 105.24902,60.3640144 105.692698,59.6635224 L107.951379,56.6836482 C108.09346,57.1982196 109.566513,62.6602678 109.071317,64.4718121 L108.542689,66.4794839 L111.630877,66.8021454 L111.630877,66.7346606 L120.976927,68 L120.976927,67.7891101 L120.993643,67.7891101 L121.033342,66.0197439 L131.867072,65.6675578 C131.867072,65.6675578 133.747565,64.1259526 132.926416,61.6606497 C132.105268,59.1953469 132.408236,52.0482883 132.408236,52.0482883 C132.125282,50.0665235 131.695747,48.1089167 131.123232,46.1918759 C133.517129,45.8467987 135.854852,45.1815721 138.074789,44.2137287 C139.152938,43.7455531 140.241534,43.1782593 141,42.1891857 C140.130794,43.0749233 138.877132,43.3490801 137.711227,43.2162195 Z" id="Shape" fill="url(#linearGradient-2)" fill-rule="nonzero"></path>
            <rect id="Rectangle-path" fill="#FE5858" fill-rule="nonzero" x="112" y="31" width="9" height="14"></rect>
            <rect id="Rectangle-path" fill="#000000" fill-rule="nonzero" opacity="0.1" x="112" y="31" width="9" height="14"></rect>
            <path d="M113.177539,36.366128 C114.2824,37.8344404 114.481165,39.8119144 113.691359,41.478023 C112.361229,44.3918664 113.175468,48.5873787 114.246616,49.2271573 C115.317764,49.866936 119.571278,50.7389775 120.899336,48.8766515 C122.227393,47.0143255 122.152807,41.6342725 121.715646,40.8530247 C121.278485,40.0717768 118.038107,39.4108833 118.176921,35 L113.177539,36.366128 Z" id="Shape" fill="#F2B08D" fill-rule="nonzero"></path>
            <path d="M113.465125,42 C113.465125,42 115.183093,53.3925095 121,45.5513942 L120.518385,67 L110,65.6120277 L113.465125,42 Z" id="Shape" fill="#000000" fill-rule="nonzero" opacity="0.1"></path>
            <path d="M113.465125,42 C113.465125,42 115.183093,53.3925095 121,45.5513942 L120.518385,67 L110,65.6120277 L113.465125,42 Z" id="Shape" fill="#F1C413" fill-rule="nonzero"></path>
            <path d="M120.121393,62.5281271 C120.121393,62.5281271 116.962989,62.9093316 114.776883,62 C114.776883,62 110.61287,63.0741231 111.029271,64.0072799 C111.445672,64.9404368 121,65 121,65 L120.121393,62.5281271 Z" id="Shape" fill="#F2B08D" fill-rule="nonzero"></path>
            <path d="M92.6233992,59.6814465 C92.6233992,59.6814465 89.9441372,60.0773393 88.010356,59.2407357 C86.6737719,58.6618359 84.5246748,59.2556751 83.3262179,59.6758443 C83.1433983,59.7407363 83.0172163,59.8962178 83.0016228,60.0758105 C82.9860293,60.2554031 83.0837845,60.4273178 83.2530917,60.5180501 C84.8636694,61.3582762 86.6697947,61.831494 88.520208,61.8980725 C92.4527714,62.0848144 95,61.9578299 95,61.9578299 L92.6233992,59.6814465 Z" id="Shape" fill="#F2B08D" fill-rule="nonzero"></path>
            <path d="M118.546084,47.1490097 L117,62.2700409 L118.433349,62.0125747 C118.433349,62.0125747 120.647793,63.878183 118.731292,65 L129.817602,64.652625 C129.817602,64.652625 131.573052,63.2059101 130.80605,60.8825841 C130.039047,58.5592581 130.322898,51.8590066 130.322898,51.8590066 C130.322898,51.8590066 129.181453,43.3789689 126.914668,42.9355549 C126.914668,42.9355549 122.33077,42.0242062 119.653306,39 L118.546084,47.1490097 Z" id="Shape" fill="#000000" fill-rule="nonzero" opacity="0.1"></path>
            <path d="M118.546084,47.4726259 L117,63.1666012 L118.433349,62.8993795 C118.433349,62.8993795 120.647793,64.8356767 118.731292,66 L129.817602,65.6246171 C129.817602,65.6246171 131.573052,64.1230854 130.80605,61.7117273 C130.039047,59.3003692 130.322898,52.3462415 130.322898,52.3462415 C130.322898,52.3462415 129.181453,43.5448904 126.914668,43.0846752 C126.914668,43.0846752 122.33077,42.1387951 119.653306,39 L118.546084,47.4726259 Z" id="Shape" fill="#39447A" fill-rule="nonzero"></path>
            <path d="M114,40 C114,40 111.325678,42.2672966 107.938065,41.9154388 C107.938065,41.9154388 106.230741,42.3609865 105.750362,45.0134529 C105.269982,47.6659193 99.5262206,57.0390775 99.5262206,57.0390775 L91,59.2688981 C91,59.2688981 93.4559675,61.6007367 92.3829114,62.9457079 L102.493761,61.5028828 C103.426906,60.9464583 104.215098,60.1766079 104.793761,59.2564061 L107.081284,56.272902 C107.081284,56.272902 108.672152,61.9442665 108.173056,63.7680974 L107.663562,65.6897822 L110.641501,66 C110.641501,66 110.787071,58.4590006 111.487884,55.5296284 C111.791501,54.2616912 112.053526,52.987508 112.244846,51.6987508 C112.731465,48.4091928 113.492586,43.4061499 113.777486,42.7461563 L114,40 Z" id="Shape" fill="#000000" fill-rule="nonzero" opacity="0.1"></path>
            <path d="M114,40 C114,40 111.32592,42.2769009 107.938613,41.9165131 C107.938613,41.9165131 106.231444,42.3623107 105.751107,45.0162647 C105.270771,47.6702187 99.5254498,57.0507171 99.5254498,57.0507171 L91,59.2817883 C91,59.2817883 93.4557454,61.6149347 92.3827864,62.9606602 L102.492722,61.5170259 C103.429524,60.9595662 104.220638,60.1870029 104.800832,59.2630398 L107.088148,56.2778624 C107.088148,56.2778624 108.678872,61.9524077 108.179821,63.7772614 L107.670373,65.700024 L110.641805,66 C110.641805,66 110.787361,58.4547713 111.488111,55.5237561 C111.791701,54.2551078 112.053702,52.9802099 112.245005,51.6907299 C112.731579,48.399327 113.492632,43.3934781 113.777507,42.7331143 L114,40 Z" id="Shape" fill="#39447A" fill-rule="nonzero"></path>
            <path d="M120,38.4056767 C119.500885,37.6835845 119.073982,37.3760627 119.122832,36 L114,37.2612286 C114.606258,37.9868695 114.95936,38.8633247 115.013097,39.7759004 C115.375966,39.8810874 115.749571,39.9521704 116.128142,39.9880515 C117.527788,40.122349 118.935929,39.0946812 120,38.4056767 Z" id="Shape" fill="#000000" fill-rule="nonzero" opacity="0.1"></path>
            <circle id="Oval" fill="#F2B08D" fill-rule="nonzero" transform="translate(116.500000, 33.500000) rotate(-84.080000) translate(-116.500000, -33.500000) " cx="116.5" cy="33.5" r="5.5"></circle>
            <path d="M108.293771,50 C108.293771,50 109.499674,51.3523957 108.759918,52.1580371 C108.020163,52.9636785 107.850424,54.2059505 108.121499,55" id="Shape" fill="#000000" fill-rule="nonzero" opacity="0.1"></path>
            <path d="M124,49 C124,49 126.578181,57.2343466 125.880107,58" id="Shape" fill="#000000" fill-rule="nonzero" opacity="0.1"></path>
            <path d="M121,60.921927 C121,60.921927 126.28897,61.3977604 125.987593,60" id="Shape" fill="#000000" fill-rule="nonzero" opacity="0.1"></path>
            <path d="M113.913216,26.3881582 C115.757768,25.805476 117.745393,25.8806888 119.541311,26.6011284 C120.45829,26.9619072 121.301443,27.489646 122.028587,28.1579408 C122.90579,29.0127978 123.631151,30.012586 124.173228,31.1139676 C125.632599,33.9273043 126.38978,37.2794557 128.47097,39.5475886 C129.856314,41.0575476 131.690046,41.920077 133.481476,42.7421421 C134.538992,43.2255845 135.630347,43.7111566 136.774579,43.8410685 C137.91881,43.9709803 139.147643,43.7026378 140,42.8379787 C139.263969,43.8048635 138.195879,44.3607158 137.138364,44.8186018 C132.975411,46.6276921 128.420687,47.3295002 123.910964,46.8567269 C122.641946,46.720426 121.372928,46.4861587 120.196971,45.9196579 C119.350959,45.5107551 118.530327,44.8697147 118.196152,43.9092189 C117.426281,41.6943286 119.587842,39.3431372 119.181756,37.0068538 C118.970253,35.8078314 118.105206,34.8771515 117.140752,34.3021319 C116.176298,33.7271123 115.099748,33.450251 114.069728,33.0669046 C112.987518,32.6257444 111.932987,32.118647 110.911987,31.5484268 C110.37477,31.2630467 109.820632,30.9627587 109.431466,30.460149 C109.042301,29.9575392 108.849833,29.1823276 109.139592,28.6094377 C109.429351,28.0365478 110.015215,27.8299666 110.558777,27.6510716 L114.943235,26.2220414" id="Shape" fill="#FE5858" fill-rule="nonzero"></path>
            <polygon id="Shape" fill="#EDEDF4" fill-rule="nonzero" points="168 69.3689816 79.3741098 62 68 64.3764808 68.7100964 80.3037351 69.4872225 80.39829 70.3690825 104.312285 157.338081 120 166.579807 112.156142 166.579807 86.229178 167.763301 85.5336739"></polygon>
            <polygon id="Shape" fill="#000000" fill-rule="nonzero" opacity="0.05" points="168 69 167.762205 85.4146515 158.119949 90 158 72.8620199"></polygon>
            <polygon id="Shape" fill="#000000" fill-rule="nonzero" opacity="0.05" points="166.885766 86 167 111.221935 158 119 158.577289 89.7713095"></polygon>
            <polygon id="Shape" fill="#000000" fill-rule="nonzero" opacity="0.05" points="70.0644765 80.8316188 157.954242 92 158 89.8819708 70 80"></polygon>
            <polygon id="Shape" fill="#000000" fill-rule="nonzero" opacity="0.05" points="167 86.9420085 167 86 158 89.9207921 158 92"></polygon>
            <polygon id="Shape" fill="#F4F4F8" fill-rule="nonzero" points="68 64.3398533 79.3738715 62 168 69.2554072 158.046291 73"></polygon>
            <ellipse id="Oval" fill="#CD9494" fill-rule="nonzero" cx="177" cy="99.5" rx="7" ry="2.5"></ellipse>
            <ellipse id="Oval" fill="#000000" fill-rule="nonzero" opacity="0.05" cx="177.5" cy="99.5" rx="3.5" ry="1.5"></ellipse>
            <path d="M170.357367,99 C170.357367,99 177.874009,103.067831 184,99.5426495 C184,99.5426495 183.162258,113.643376 178.988207,115 L173.419315,115 C173.419315,115 168.686071,105.507714 170.357367,99 Z" id="Shape" fill="#FF7361" fill-rule="nonzero"></path>
            <path d="M182.710154,72.4197151 C184.618835,79.3259147 176.476105,99 176.476105,99 C176.476105,99 159.333515,86.1762691 157.433196,79.2617961 C155.607448,72.3863681 159.718357,65.3386664 166.648768,63.4627116 C173.579178,61.5867567 180.743888,65.582323 182.710154,72.4197151 Z" id="Shape" fill="#EE2E24" fill-rule="nonzero"></path>
            <path d="M182.710154,72.4197151 C184.618835,79.3259147 176.476105,99 176.476105,99 C176.476105,99 159.333515,86.1762691 157.433196,79.2617961 C155.607448,72.3863681 159.718357,65.3386664 166.648768,63.4627116 C173.579178,61.5867567 180.743888,65.582323 182.710154,72.4197151 Z" id="Shape" fill="#000000" fill-rule="nonzero" opacity="0.1"></path>
            <path d="M167,63 C167,63 177.76508,79.0770212 176.956643,99" id="Shape" stroke="#535461"></path>
            <path d="M185.904861,84.6577798 C185.904861,84.6577798 175.828061,79.3300039 177.113256,99 C177.113256,99 185.519303,98.707777 188.501391,92.0417045 C189.707796,89.3585156 188.659819,86.2222037 186.061699,84.7403645 L185.904861,84.6577798 Z" id="Shape" fill="#EE2E24" fill-rule="nonzero"></path>
            <path d="M186,85 C186,85 184.688047,94.9908243 177,99" id="Shape" stroke="#535461"></path>
            <path d="M183.083688,99.4772337 C182.796676,102.834763 181.625242,113.264221 178.074797,114.4383 L173,114.4383 C173.161577,114.797281 173.259374,115 173.259374,115 L178.912447,115 C183.15172,113.59575 184,99 184,99 C183.702813,99.174239 183.396989,99.3335182 183.083688,99.4772337 Z" id="Shape" fill="#000000" fill-rule="nonzero" opacity="0.05"></path>
            <circle id="Oval" fill="#535461" fill-rule="nonzero" cx="143.5" cy="30.5" r="7.5"></circle>
            <circle id="Oval" fill="#EDEDF4" fill-rule="nonzero" cx="144.5" cy="30.5" r="6.5"></circle>
            <circle id="Oval" fill="#535461" fill-rule="nonzero" cx="144.5" cy="30.5" r="1"></circle>
            <path d="M147,26 L144,31" id="Shape" stroke="#535461" stroke-linecap="round"></path>
            <path d="M144,31 L147,33" id="Shape" stroke="#535461" stroke-width="2" stroke-linecap="round"></path>
            <path d="M41.9657687,116.180982 C41.1641731,115.682871 40.7406496,114.433443 40.519591,113.383259 L41.0340171,113.206844 C41.0340171,113.206844 39.354385,95.7272982 38.9825107,94.797491 C38.6106365,93.8676838 38.2366963,90.5199626 38.2366963,90.5199626 L37.6313676,72.2890992 C40.4183586,71.2721225 41.5897625,69.304584 41.9843624,68.443267 C42.1266872,68.1897371 42.2456315,67.9236615 42.3397089,67.6483648 C38.4143695,62.8146124 35.2513724,49.7993865 35.2513724,49.7993865 L35.7823262,48.4254303 L36.0157805,47.8214707 C36.7946505,51.1214562 40.2882026,52.5950346 40.2882026,52.5950346 L40.2365534,52.1114519 C40.3749732,52.1799421 40.4596779,52.2173004 40.4720737,52.2214514 C41.2054924,52.767298 41.9843624,53.0516364 42.7136491,52.7818263 C45.0027418,51.9039056 44.9655544,47.8795836 44.9531585,47.4312837 C44.9531585,47.1718509 44.9531585,47.0161912 44.9531585,47.0161912 L42.7115832,38.647926 C42.6530175,39.0707911 42.5569112,39.4875448 42.4244136,39.8932036 C42.2942576,38.1601923 42.1289802,34.9120933 42.525646,33.0670071 C42.9656972,31.0164501 38.6622857,32.4277646 37.5445969,34.8456785 C36.7394469,33.7565813 35.4814869,33.0987016 34.1316176,33.0607807 C30.2310699,32.8926682 27.5639051,30.4166414 27.1073261,29.9704169 C27.0073111,29.5467662 26.9307528,29.117871 26.8780036,28.6857056 C28.4206382,27.2995524 29.1548101,25.2198762 28.8262116,23.1670505 C28.9265836,23.121763 29.0245088,23.0711898 29.119579,23.0155418 C30.5037777,22.1853567 30.9479608,20.4066853 31.0347315,18.8002772 C31.0347315,18.7172587 31.0347315,18.6280138 31.0347315,18.5387689 C31.0553911,18.0053751 30.933499,17.345378 30.414941,17.2374539 C29.7352375,17.094247 29.2373392,18.121601 28.5555697,18.0116014 C28.346472,17.961964 28.1579849,17.8480617 28.0163521,17.6857538 C27.5473773,17.2187747 27.2312842,16.618966 26.7664414,16.151987 C26.0722761,15.4546315 25.0847433,15.0997274 24.1013425,15.0146335 C23.1152595,14.9612153 22.1267262,15.0542288 21.1676678,15.29067 C20.6394139,15.377256 20.1290938,15.5511834 19.6574451,15.8053847 C19.1847114,16.0634871 18.8513667,16.5201371 18.7484192,17.0506623 C18.7355398,17.1636334 18.7320845,17.2774886 18.7380893,17.3910381 C18.7380893,17.5633015 18.7380893,17.7397158 18.7525511,17.9119792 C18.7502438,17.98724 18.7419535,18.0621952 18.7277595,18.1361292 C18.628593,18.6238629 18.2277952,18.9974462 17.8001398,19.2527281 C17.3724844,19.50801 16.8952458,19.6864998 16.492382,19.97914 C15.8484882,20.4770155 15.4012116,21.1881516 15.2300755,21.9861123 C15.126629,22.4357557 15.0794358,22.8966094 15.0895897,23.3579931 C15.0844992,23.7742777 15.1086622,24.1904041 15.1618985,24.6032706 C15.3321308,25.992563 15.720533,27.3459592 16.3126428,28.6130644 C16.5077123,29.0586767 16.7590714,29.4772086 17.0605232,29.8583419 C17.5030118,30.3428442 18.0114483,30.7620834 18.5707459,31.1036195 C18.7980024,31.2572037 19.0686442,31.4149389 19.3289562,31.3298449 C19.4048536,31.3014414 19.4748893,31.2592269 19.535553,31.2053172 C19.9198231,30.8856959 20.0499791,30.3751321 20.0375833,29.8645683 C20.0375833,29.9185303 20.054111,29.9745678 20.0603089,30.0264544 L20.0974963,30.0430581 C20.124204,30.3787478 20.124204,30.7160432 20.0974963,31.0517329 C19.7524797,31.3464486 17.4117378,33.3056853 14.7920903,34.3890768 C12.9963145,35.1369085 11.6307066,36.6566508 11.0733477,38.5275492 C10.6778444,39.8828255 10.086161,41.1723294 9.31727479,42.3547022 C8.94333457,42.9130016 7.26576847,50.5361757 6.14601376,52.0242824 C5.21013021,53.26956 8.97639005,60.1185865 11.6518187,62.7502731 L11.7716449,62.8644235 C12.3914353,63.5161188 12.9616425,63.9706451 13.4244194,64.1097011 C13.3582942,63.6881181 13.3237643,63.2621433 13.321121,62.8353671 C13.6248183,63.2504596 13.9181857,63.6551748 14.1826297,64.0557391 C14.0731334,64.643095 13.9450433,65.2200736 13.7962936,65.7825239 C11.9369223,72.8390968 13.0504791,73.0341902 13.0504791,73.0341902 C13.0504791,73.0341902 13.1062603,73.0611713 13.2033608,73.0985296 C13.3004613,73.382868 13.4223534,73.4056981 13.4223534,73.4056981 C13.4223534,73.4056981 13.4802005,73.4347545 13.5855649,73.4741883 C13.6310162,81.6120771 14.9139824,90.5137362 14.9139824,90.5137362 C14.9139824,90.5137362 13.7942277,101.671423 14.354105,103.715754 C14.9139824,105.760084 14.354105,114.508159 14.354105,114.508159 L14.7363091,114.609857 C14.5297123,115.714003 14.1165187,117.06928 13.2343503,117.85588 C11.5547182,119.343987 9.87715215,121.946617 12.1145956,122.689633 C14.3520391,123.432648 17.337363,122.876424 17.7092372,120.643227 L17.8951743,118.970404 L20.506558,118.040597 L20.0603089,114.927403 C20.7957936,113.746464 19.9466807,107.812717 19.9466807,107.812717 C19.9466807,107.812717 20.506558,105.766311 21.2523725,93.6808921 C21.2730322,93.3405163 21.2978238,93.0105177 21.3226154,92.6825946 C21.3226154,92.5871233 21.3370772,92.4937275 21.3453411,92.4003317 C21.3660008,92.1526598 21.3880377,91.9084471 21.411452,91.6676934 C21.411452,91.5846749 21.4279798,91.4995809 21.4362437,91.4165624 C21.4672332,91.1073185 21.5002887,90.7939237 21.5354101,90.5012834 C21.5354101,90.4556233 21.5478059,90.4099631 21.5519379,90.3643029 C21.5836161,90.1083292 21.6159829,89.8565064 21.6490384,89.6088345 L21.6841598,89.3514772 C21.715838,89.1259436 21.7488935,88.9045609 21.7833263,88.6873291 C21.7833263,88.6229898 21.80192,88.5586504 21.8122499,88.4963866 C21.8563238,88.2196582 21.9017751,87.9519235 21.9486038,87.6931825 L21.9816592,87.5167682 C22.0188467,87.3106056 22.0574114,87.1072103 22.0973535,86.9065822 L22.1428048,86.6803568 C22.1855014,86.4700433 22.2288868,86.262497 22.2729607,86.057718 L22.2977524,85.9414921 C22.3514675,85.7028139 22.4051827,85.4703621 22.4588979,85.2441367 L22.5022832,85.0635714 C22.5449799,84.8906162 22.5876766,84.7211201 22.6303732,84.5550831 L22.6799565,84.366216 C22.7357376,84.1586697 22.7915187,83.9511235 22.8493658,83.7435772 L22.8493658,83.7269735 C22.907213,83.5194273 22.967126,83.3243338 23.0270391,83.1292403 L23.0786883,82.9611278 C23.1241396,82.8158454 23.1695909,82.6733304 23.2150422,82.5335825 L23.2646254,82.3841492 C23.3245385,82.203584 23.3844516,82.0271697 23.4443647,81.8569817 L23.4712222,81.7843405 C23.5235601,81.6376745 23.575898,81.4944676 23.6282358,81.3547198 L23.681951,81.2115129 C23.7287796,81.0869851 23.7756082,80.9659165 23.8224368,80.8483069 L23.8658222,80.7403829 C23.9250466,80.5923332 23.984271,80.4491263 24.0434954,80.3107621 L24.0827488,80.2194417 C24.1295774,80.110134 24.176406,80.0035936 24.2232346,79.8998205 L24.2769498,79.7815191 C24.3251557,79.6763624 24.372673,79.5739729 24.4195016,79.4743507 L24.4484252,79.4100113 C24.5042063,79.29171 24.5599874,79.179635 24.6137026,79.0717109 L24.6591539,78.9845415 L24.7789801,78.7500142 L24.8264973,78.6607693 L24.9669831,78.3992611 L24.9669831,78.3805819 L25.1095349,78.1294509 L25.1508543,78.0588852 C25.3707931,77.666833 25.6201181,77.2921675 25.8966688,76.9381354 C25.8966688,76.9381354 32.4519856,92.9378765 32.2722463,95.7231473 C32.0925071,98.5084181 33.3920011,104.647636 33.3920011,104.647636 C33.3920011,104.647636 33.9518784,106.694043 34.1378155,107.995358 C34.2968951,109.101579 35.2637682,113.428919 35.5488718,114.705328 L35.5943231,114.912874 L35.5943231,114.935705 L35.6067189,114.991742 L35.6067189,115.022874 L35.6067189,115.041553 L35.4249137,117.297581 L37.8503602,118.785688 C39.1560521,122.504917 41.9533729,122.313974 44.1928823,121.388318 C46.4323917,120.462661 43.4573976,117.100412 41.9657687,116.180982 Z M39.2345588,40.5448988 L39.2056353,40.5199933 L39.2056353,40.4847104 L39.2345588,40.5448988 Z M14.8003541,57.2046371 C14.6660662,57.0925621 14.5276463,56.9680343 14.3871605,56.8352047 C14.2301469,56.6691677 14.0772653,56.4927534 13.9347135,56.3059618 L14.03388,56.4138858 C14.1784977,56.5508663 14.3231155,56.679545 14.4615354,56.7936955 C14.4826375,54.6619963 14.3971364,52.5305778 14.2053553,50.4074971 C14.2962579,50.2539128 14.3788966,50.1190078 14.4532715,50.0069328 C14.7085055,52.3973214 14.8243974,54.8006572 14.8003541,57.2046371 Z" id="Shape" fill="url(#linearGradient-3)" fill-rule="nonzero"></path>
            <path d="M19.9118382,29.0187528 L19.9118382,29.0645929 L19.8689158,29 L19.9118382,29.0187528 Z M14.3298947,56.6270278 C13.587952,55.8227415 12.9216343,54.7705016 13.0074789,53.6349159 C13.1423776,51.8575681 13.9558575,50.3781813 14.3953001,49.6968299 C14.6489799,52.1223541 14.7643148,54.5608467 14.7407225,57 C14.6078677,56.8874833 14.4688812,56.760381 14.3298947,56.6270278 Z M38.9693412,40.0391427 L39,40.0954011 L38.9713851,40.0703974 L38.9693412,40.0391427 Z" id="Shape" fill="url(#linearGradient-4)" fill-rule="nonzero"></path>
            <path d="M40.5610055,111 C40.5610055,111 40.736736,114.451886 42.1385862,115.359842 C43.5404364,116.267797 46.3481306,119.537679 44.2433584,120.445635 C42.1385862,121.35359 39.5086194,121.535595 38.2805027,117.903772 L36,116.456007 L36.351461,111.905887 L40.5610055,111 Z" id="Shape" fill="#1A2246" fill-rule="nonzero"></path>
            <path d="M15.6826047,112 C15.6826047,112 15.6826047,115.476654 14.0883951,116.938973 C12.4941855,118.401293 10.8979579,120.963477 13.024916,121.694636 C15.1518742,122.425796 17.9871457,121.877947 18.3423113,119.682385 L18.5198942,118.036755 L21,117.122284 L20.2916866,112 L15.6826047,112 Z" id="Shape" fill="#1A2246" fill-rule="nonzero"></path>
            <path d="M37.5148739,68.1106119 L38.2482548,90.432125 C38.2482548,90.432125 38.6159899,93.7532535 38.9816356,94.6754391 C39.3472813,95.5976247 41,112.936395 41,112.936395 L35.6782877,114.780766 C35.6782877,114.780766 34.3933041,109.062795 34.2157048,107.770895 C34.0381054,106.478995 33.4823239,104.449766 33.4823239,104.449766 C33.4823239,104.449766 32.1973404,98.3578796 32.381208,95.5955241 C32.5650755,92.8331686 26.1422472,76.9627534 26.1422472,76.9627534 C26.1422472,76.9627534 22.289386,81.5841847 21.5455581,93.557893 C20.8017303,105.531601 20.2605746,107.577635 20.2605746,107.577635 C20.2605746,107.577635 21.177823,114.035035 20.2605746,114.772363 C19.3433262,115.509692 14.7549947,114.219892 14.7549947,114.219892 C14.7549947,114.219892 15.304508,105.550507 14.7549947,103.521279 C14.2054814,101.49205 15.304508,90.4237224 15.304508,90.4237224 C15.304508,90.4237224 11.8256501,66.0918867 16.230114,61.2855982 L35.312642,60 L37.5148739,68.1106119 Z" id="Shape" fill="#3B477B" fill-rule="nonzero"></path>
            <g id="Group" opacity="0.1" transform="translate(19.000000, 60.000000)" fill="#000000" fill-rule="nonzero">
                <path d="M20.9,52.8041825 C20.9,52.8041825 19.2907407,35.5408745 18.9322222,34.6228137 C18.5737037,33.7047529 18.2172222,30.3984791 18.2172222,30.3984791 L17.5022222,8.17889734 L15.3837037,0.17148289 L16.4368519,0.0982889734 L18.5838889,8.17889734 L19.2988889,30.4005703 C19.2988889,30.4005703 19.6574074,33.7068441 20.0138889,34.6249049 C20.3703704,35.5429658 21.9735185,52.8041825 21.9735185,52.8041825 L16.7851852,54.6403042 L16.7077778,54.2868821 L20.9,52.8041825 Z" id="Shape"></path>
                <path d="M0.686481481,54.6423954 C1.58074074,53.908365 0.686481481,47.4798479 0.686481481,47.4798479 C0.686481481,47.4798479 1.22222222,45.4596958 1.93925926,33.5228137 C2.6562963,21.5859316 6.42074074,17.0019011 6.42074074,17.0019011 C6.42074074,17.0019011 6.57148148,17.3804183 6.82814815,18.0307985 C5.71388889,19.9673004 3.55055556,24.7709125 3.02703704,33.5311787 C2.31203704,45.4680608 1.77425926,47.4882129 1.77425926,47.4882129 C1.77425926,47.4882129 2.66851852,53.91673 1.77425926,54.6507605 C1.49518519,54.8807985 0.865740741,54.9121673 0.134444444,54.8494297 C0.332665803,54.8299778 0.522724044,54.7586989 0.686481481,54.6423954 Z" id="Shape"></path>
            </g>
            <path d="M26.7935418,25 C26.7935418,25 25.37702,31.7690916 29.2805494,35.3431548 C33.1840787,38.917218 20.0387565,41.7374944 17.729826,38.7287713 C15.4208955,35.7200482 19.328472,34.2146159 19.328472,34.2146159 C19.328472,34.2146159 21.2832721,32.5228784 19.328472,27.4455244 L26.7935418,25 Z" id="Shape" fill="#E0A17E" fill-rule="nonzero"></path>
            <path d="M28.6680725,32 L23.8536482,37.1529017 L20.121046,32.2158393 L17,47.0940832 L18.1113454,64.3779925 C18.1113454,64.3779925 27,66.7710847 32,62.1693067 L30.5238296,46.1594781 L28.6680725,32 Z" id="Shape" fill="#F0F1F5" fill-rule="nonzero"></path>
            <path d="M29.2430869,64 L30,66.156145 C30,66.156145 21.0493403,67.473162 18,66.8165349 L18.7612507,64.5042294 C18.7612507,64.5042294 27.148021,66.3123056 29.2430869,64 Z" id="Shape" fill="#000000" fill-rule="nonzero" opacity="0.1"></path>
            <path d="M29.2430869,64 L30,66.1540228 C30,66.1540228 21.0493403,67.474352 18,66.8160735 L18.7612507,64.4979527 C18.7612507,64.4979527 27.148021,66.3181208 29.2430869,64 Z" id="Shape" fill="#1A2246" fill-rule="nonzero"></path>
            <path d="M26.9824587,31 C26.9824587,31 29.7301805,33.9292092 33.9446059,34.1126757 C38.1590312,34.2961422 38.707741,39.4227796 38.707741,39.4227796 L40.1681854,52.9742813 C40.1681854,52.9742813 36.6860687,51.5148888 35.9537601,48.2145769 L35.0378528,50.5954715 C35.0378528,50.5954715 38.1527721,63.4110225 42,68.1728117 C42,68.1728117 40.3517842,73.6663821 32.290131,72.9325161 C32.290131,72.9325161 27.8921069,70.9185545 28.0757056,65.7919171 L26.6465565,57.7652584 C26.139457,54.9456682 25.9296747,52.0807084 26.0206517,49.2173881 L26.9824587,31 Z" id="Shape" fill="#000000" fill-rule="nonzero" opacity="0.1"></path>
            <path d="M26.9859885,31 C26.9859885,31 29.7319201,33.9295001 33.9435995,34.1129848 C38.1552788,34.2964695 38.7036311,39.4277859 38.7036311,39.4277859 L40.163124,52.9806332 C40.163124,52.9806332 36.683276,51.5210958 35.9514446,48.2204562 L35.0361341,50.6015872 C35.0361341,50.6015872 38.1552788,63.4059003 42,68.1723325 C42,68.1723325 40.3528581,73.6664482 32.2964575,72.9325094 C32.2964575,72.9325094 27.901299,70.9183478 28.0847781,65.7912014 L26.6461352,57.7762561 C26.1393662,54.956386 25.9297206,52.0911417 26.0206383,49.227537 L26.9859885,31 Z" id="Shape" fill="#293158" fill-rule="nonzero"></path>
            <path d="M21,32 C21,32 18.868291,34.3815686 15.9689065,35.5410164 C14.1337696,36.2856376 12.7429234,37.7850353 12.1804064,39.6251976 C11.7778998,40.9614078 11.1736335,42.2333428 10.3869951,43.4001927 C10.0053259,43.9496248 8.29215184,51.4724568 7.14931294,52.9410907 C6.00647403,54.4097247 11.7206686,63.7646932 14.1950124,64.5000547 C14.1950124,64.5000547 13.243008,59.3629695 17.0510253,58.8135375 C17.0510253,58.8135375 13.6225086,56.7954715 13.8133432,54.4097247 C14.0041778,52.0239779 15.5265173,50.1897523 15.5265173,50.1897523 C15.5265173,50.1897523 16.8601908,59.5468099 14.9561821,66.5181207 C13.0521735,73.4894315 14.1950124,73.6732719 14.1950124,73.6732719 C14.1950124,73.6732719 22.0018815,77.3417232 20.8612112,60.0941528 C19.7205409,42.8465825 20.6703766,36.4267928 20.6703766,36.4267928 L21,32 Z" id="Shape" fill="#000000" fill-rule="nonzero" opacity="0.1"></path>
            <path d="M13.9808883,64.4487141 C13.9808883,64.4487141 13.2510016,60.370059 15.6846583,59.0769804 C15.6047283,61.5182959 15.3396974,64.131742 14.721292,66.4764964 C12.8744895,73.4813715 13.9829917,73.666097 13.9829917,73.666097 C14.1762129,73.7553947 14.3776901,73.8256984 14.5845698,73.8760123 C16.3556492,74.3189337 21.3638916,74.3420244 20.4468006,60.0215995 C19.3382984,42.6930877 20.2616997,36.24029 20.2616997,36.24029 L21,32 C21,32 18.5116544,34.1831196 15.6993822,35.3481498 C13.9195605,36.0966053 12.5705921,37.6031216 12.0247079,39.4519948 C11.6332689,40.7942576 11.0472243,42.0721712 10.2851798,43.2451651 C9.91497791,43.7972424 8.2532763,51.356294 7.1447741,52.8319989 C6.21716599,54.0663011 9.94863262,60.8549634 12.5968381,63.4642112 C13.1142794,63.9785038 13.5896522,64.3290624 13.9808883,64.4487141 Z M13.8778207,55.7141366 C13.6745409,55.2750773 13.5834821,54.7925791 13.6127898,54.3098029 C13.7495121,52.5423157 14.59088,51.0750075 15.0199776,50.4284682 C15.1735273,50.1975613 15.2744914,50.0716121 15.2744914,50.0716121 C15.5948783,52.6914079 15.7403352,55.3295671 15.7098993,57.9686274 C15.0641495,57.4354424 14.2837807,56.6335658 13.8778207,55.7162358 L13.8778207,55.7141366 Z" id="Shape" fill="#293158" fill-rule="nonzero"></path>
            <path d="M23.6117137,30.9999826 C22.6611385,31.0012807 21.7227354,30.7959521 20.867679,30.3995703 C20.7221157,29.3553295 20.4302811,28.3344763 20,27.3643824 L28,25 C27.7072735,26.4663454 27.6516754,27.9668435 27.835141,29.4492625 C26.6790471,30.4505312 25.1728205,31.003574 23.6117137,30.9999826 Z" id="Shape" fill="#000000" fill-rule="nonzero" opacity="0.1"></path>
            <circle id="Oval" fill="#E0A17E" fill-rule="nonzero" cx="23" cy="25" r="6"></circle>
            <g id="Group" opacity="0.1" transform="translate(33.000000, 48.000000)" fill="#000000" fill-rule="nonzero">
                <path d="M8.06232558,20.075 C4.2027907,15.31875 1.07790698,2.51041667 1.07790698,2.51041667 L1.99255814,0.13125 C2.07193665,0.483722519 2.1854921,0.827695732 2.33162791,1.15833333 L1.80837209,2.51041667 C1.80837209,2.51041667 4.93534884,15.3125 8.79488372,20.075 C8.79488372,20.075 7.28581395,25.075 0.125581395,24.8895833 C6.65372093,24.71875 8.06232558,20.075 8.06232558,20.075 Z" id="Shape"></path>
            </g>
            <path d="M41.9701891,41.5784369 C41.9701891,41.5784369 41.4406588,36.4280511 41.9701891,33.9428433 C42.4997195,31.4576355 35.7809258,34.2987396 37.1963624,37.671666 C38.611799,41.0445924 40.0252222,43 40.0252222,43 L41.9701891,41.5784369 Z" id="Shape" fill="#E0A17E" fill-rule="nonzero"></path>
            <path d="M42.6559635,39 L44.9965154,47.447197 C44.9965154,47.447197 45.1919315,51.9529387 42.6559635,52.8912787 C40.1199956,53.8296186 37,48.385537 37,48.385537 L38.5544462,40.5026264 C38.5544462,40.5026264 41.8765198,44.0678907 42.6559635,39 Z" id="Shape" fill="#000000" fill-rule="nonzero" opacity="0.1"></path>
            <path d="M42.6559635,39 L44.9965154,47.447197 C44.9965154,47.447197 45.1919315,51.9529387 42.6559635,52.8912787 C40.1199956,53.8296186 37,48.385537 37,48.385537 L38.5544462,40.5026264 C38.5544462,40.5026264 41.8765198,44.0678907 42.6559635,39 Z" id="Shape" fill="#293158" fill-rule="nonzero"></path>
            <path d="M42.6559635,39 L44.9965154,47.447197 C44.9965154,47.447197 45.1919315,51.9529387 42.6559635,52.8912787 C40.1199956,53.8296186 37,48.385537 37,48.385537 L38.5544462,40.5026264 C38.5544462,40.5026264 41.8765198,44.0678907 42.6559635,39 Z" id="Shape" fill="#000000" fill-rule="nonzero" opacity="0.02"></path>
            <path d="M14.0740697,65.655638 C12.2171477,72.6083007 13.3317239,72.7916493 13.3317239,72.7916493 C13.5260039,72.8802814 13.7285851,72.9500611 13.9365983,73 C15.8083249,69.2892741 16.1255667,63.2283524 15.9627159,57.9987499 C15.9627159,57.9570798 15.9627159,57.9154096 15.9627159,57.871656 C15.8511497,54.5685432 15.5638275,51.2734665 15.1019331,48 C14.8904386,48.1812651 14.6408751,48.8063172 14.3807368,49.7272273 C14.5351278,49.4980415 14.6366452,49.3730311 14.6366452,49.3730311 C14.9587876,51.9732997 15.1050415,54.5917948 15.0744389,57.2111843 C15.1038144,57.5784767 15.0953111,57.947757 15.0490595,58.3133594 C14.9623468,60.7343945 14.6958636,63.3283607 14.0740697,65.655638 Z" id="Shape" fill="#000000" fill-rule="nonzero" opacity="0.1"></path>
            <path d="M14,63.1746256 L14.2094057,63.4516149 C14.914419,64.3860976 15.528923,65.3920452 16.0438,66.4545315 C17.1452741,68.9672208 20.977399,62.0974447 17.7064815,60.0793792 C17.1704028,59.7518283 16.6594528,59.455054 16.1778196,59.2000479 L15.8071715,59 C14.2952621,59.8397614 14.0020941,61.805067 14,63.1746256 Z" id="Shape" fill="#E0A17E" fill-rule="nonzero"></path>
            <path d="M14,62.751234 L14.192123,63 C14.192123,63 14.2708934,59.7699901 16,59.1796644 L15.6599424,59 C14.2708934,59.7561698 14.0019212,61.5212241 14,62.751234 Z" id="Shape" fill="#000000" fill-rule="nonzero" opacity="0.1"></path>
            <path d="M22.7496259,23.171114 C23.0968473,23.0536237 23.4611103,22.8668981 23.8147223,22.9822903 C23.9759182,23.0461161 24.1212366,23.1434411 24.2407608,23.2676239 C24.7285749,23.7208007 25.2099985,24.2474089 25.8639677,24.3879777 C26.268307,24.4486006 26.6807798,24.4307828 27.0781775,24.3355267 C27.76836,24.2159383 28.4777142,24.0879578 29.0784285,23.735487 C30.4673142,22.9193491 30.9103943,21.1486027 30.995602,19.5582877 C31.0254247,19.0232873 30.9125245,18.3309338 30.3799763,18.2197377 C29.6983146,18.0770709 29.1998495,19.0967187 28.5117973,18.9855226 C28.3017343,18.9358148 28.1126145,18.8228823 27.9707283,18.6624243 C27.5020859,18.2008553 27.1846872,17.6134039 26.7160448,17.1413447 C25.9863953,16.4702846 25.0414101,16.0717218 24.0447831,16.0146968 C23.0551725,15.9613832 22.0630133,16.0533035 21.1008567,16.2874421 C20.5707514,16.3733386 20.0588851,16.5456398 19.5862897,16.797266 C19.1095752,17.0556863 18.7751492,17.5105055 18.6745672,18.0372081 C18.6277029,18.3938751 18.7256918,18.7610322 18.6532652,19.111405 C18.5531462,19.5960525 18.1526699,19.9632096 17.722371,20.2191706 C17.2920721,20.4751316 16.8149089,20.6387787 16.4101723,20.9387986 C15.7639286,21.4335973 15.3158127,22.1372346 15.1448378,22.9256432 C14.9782357,23.7097694 14.9551513,24.5168978 15.0766716,25.3090176 C15.2445596,26.684614 15.6313098,28.025597 16.2227153,29.2827069 C16.4182497,29.7230686 16.6702423,30.1369523 16.9725432,30.5142569 C17.4154916,30.9952684 17.9254172,31.4120268 18.4871102,31.7521009 C18.7150408,31.9031599 18.9877055,32.0605129 19.247589,31.9765913 C19.3258772,31.9489117 19.3981511,31.9069137 19.4606083,31.8528069 C19.9910263,31.4164144 20.0421509,30.625453 19.8866468,29.9645702 C19.7311428,29.3036873 19.4371762,28.6637849 19.4052233,27.9840196 C19.3849098,27.7933027 19.4235168,27.6009877 19.5159933,27.4322349 C19.6270517,27.2955404 19.7527493,27.1710366 19.8909072,27.0608817 C20.0746946,26.8576857 20.2190951,26.623021 20.3169458,26.3685282 C20.6002614,25.739116 20.8878374,25.0782331 20.9560036,24.3837816 C21.0162891,23.815105 20.8901301,23.2423565 20.596001,22.7494078 C21.1811008,23.2681949 22.0075407,23.430022 22.7496259,23.171114 Z" id="Shape" fill="#000000" fill-rule="nonzero" opacity="0.1"></path>
            <path d="M22.7496259,23.171114 C23.0968473,23.0536237 23.4611103,22.8668981 23.8147223,22.9822903 C23.9759182,23.0461161 24.1212366,23.1434411 24.2407608,23.2676239 C24.7285749,23.7208007 25.2099985,24.2474089 25.8639677,24.3879777 C26.268307,24.4486006 26.6807798,24.4307828 27.0781775,24.3355267 C27.76836,24.2159383 28.4777142,24.0879578 29.0784285,23.735487 C30.4673142,22.9193491 30.9103943,21.1486027 30.995602,19.5582877 C31.0254247,19.0232873 30.9125245,18.3309338 30.3799763,18.2197377 C29.6983146,18.0770709 29.1998495,19.0967187 28.5117973,18.9855226 C28.3017343,18.9358148 28.1126145,18.8228823 27.9707283,18.6624243 C27.5020859,18.2008553 27.1846872,17.6134039 26.7160448,17.1413447 C25.9863953,16.4702846 25.0414101,16.0717218 24.0447831,16.0146968 C23.0551725,15.9613832 22.0630133,16.0533035 21.1008567,16.2874421 C20.5707514,16.3733386 20.0588851,16.5456398 19.5862897,16.797266 C19.1095752,17.0556863 18.7751492,17.5105055 18.6745672,18.0372081 C18.6277029,18.3938751 18.7256918,18.7610322 18.6532652,19.111405 C18.5531462,19.5960525 18.1526699,19.9632096 17.722371,20.2191706 C17.2920721,20.4751316 16.8149089,20.6387787 16.4101723,20.9387986 C15.7639286,21.4335973 15.3158127,22.1372346 15.1448378,22.9256432 C14.9782357,23.7097694 14.9551513,24.5168978 15.0766716,25.3090176 C15.2445596,26.684614 15.6313098,28.025597 16.2227153,29.2827069 C16.4182497,29.7230686 16.6702423,30.1369523 16.9725432,30.5142569 C17.4154916,30.9952684 17.9254172,31.4120268 18.4871102,31.7521009 C18.7150408,31.9031599 18.9877055,32.0605129 19.247589,31.9765913 C19.3258772,31.9489117 19.3981511,31.9069137 19.4606083,31.8528069 C19.9910263,31.4164144 20.0421509,30.625453 19.8866468,29.9645702 C19.7311428,29.3036873 19.4371762,28.6637849 19.4052233,27.9840196 C19.3849098,27.7933027 19.4235168,27.6009877 19.5159933,27.4322349 C19.6270517,27.2955404 19.7527493,27.1710366 19.8909072,27.0608817 C20.0746946,26.8576857 20.2190951,26.623021 20.3169458,26.3685282 C20.6002614,25.739116 20.8878374,25.0782331 20.9560036,24.3837816 C21.0162891,23.815105 20.8901301,23.2423565 20.596001,22.7494078 C21.1811008,23.2681949 22.0075407,23.430022 22.7496259,23.171114 Z" id="Shape" fill="#463E3B" fill-rule="nonzero"></path>
        </g>
    </g>
</svg>