<?xml version="1.0" encoding="UTF-8"?>
<svg width="24px" height="24px" viewBox="0 0 24 24" version="1.1" xmlns="http://www.w3.org/2000/svg" xmlns:xlink="http://www.w3.org/1999/xlink">
    <!-- Generator: Sketch 51.2 (57519) - http://www.bohemiancoding.com/sketch -->
    <title>phone</title>
    <desc>Created with Sketch.</desc>
    <defs></defs>
    <g id="phone" stroke="none" stroke-width="1" fill="none" fill-rule="evenodd">
        <path d="M18.5980186,22.9989001 C16.648554,22.9989001 14.5747023,22.4467277 12.4337036,21.3577821 C10.460022,20.3535323 8.51055739,18.9159042 6.79555689,17.19999 C5.08055639,15.4840758 3.64405084,13.5338733 2.6401481,11.560572 C1.55258681,9.420079 1,7.34778261 1,5.39978001 C1,4.13704315 2.17782448,2.91720414 2.68307815,2.4519274 C3.41068748,1.7820609 4.55548884,1 5.38767137,1 C5.80156109,1 6.28590013,1.27058647 6.91444011,1.85135743 C7.38226759,2.28473576 7.90953668,2.87210639 8.43680576,3.54967252 C8.75492845,3.95885206 10.3411388,6.04764762 10.3411388,7.04969752 C10.3411388,7.87135643 9.41098769,8.44332783 8.42689883,9.04719764 C8.04603222,9.28038598 7.65305714,9.52237388 7.36905834,9.7500625 C7.06524567,9.99315034 7.01130792,10.1218439 7.00250175,10.1504425 C8.04713299,12.7529124 11.2404683,15.9438528 13.8437907,16.9866007 C13.8669068,16.9789011 13.995697,16.9283036 14.2433704,16.620319 C14.4712299,16.3365332 14.7133994,15.9427529 14.9467627,15.5632718 C15.5521865,14.579921 16.1234864,13.6504675 16.945762,13.6504675 C17.948564,13.6504675 20.0389272,15.2354882 20.4484139,15.5533723 C21.1264885,16.080246 21.7143,16.6071196 22.1480036,17.0745963 C22.7292104,17.7015649 23,18.1866407 23,18.60022 C23,19.4317784 22.2173521,20.579021 21.5480837,21.3093845 C21.0813569,21.8175591 19.8606024,23 18.5969178,23 L18.5980186,22.9989001 Z M5.44959395,2.20022033 C5.15775751,2.20566165 4.37263039,2.5626123 3.51889992,3.34833905 C2.70872714,4.09488828 2.20454703,4.90564511 2.20454703,5.4650129 C2.20454703,12.7879426 11.203563,21.7889758 18.5234306,21.7889758 C19.0820578,21.7889758 19.8933196,21.2829329 20.6403337,20.4689113 C21.4276387,19.6113591 21.7848117,18.8234559 21.7902564,18.5307128 C21.7554102,18.3239426 21.1826268,17.5197153 19.6156394,16.3139186 C18.2686182,15.2778911 17.1764095,14.7217881 16.8954625,14.7152585 C16.8758615,14.7206998 16.7539,14.7674952 16.5067102,15.0809153 C16.2921886,15.3540696 16.0624219,15.7273442 15.8391888,16.0886479 C15.2293813,17.0800566 14.653331,18.0170521 13.8159347,18.0170521 C13.6809059,18.0170521 13.548055,17.9909337 13.4206488,17.9397853 C10.5621763,16.7971079 7.18210054,13.4191359 6.03871153,10.5624424 C5.90150484,10.2196392 5.879726,9.68203664 6.55486999,9.07043217 C6.91422083,8.74504117 7.41077834,8.4403272 7.89209067,8.14431934 C8.25361939,7.92231344 8.62821541,7.6926897 8.90045089,7.47721339 C9.21406616,7.23017742 9.26089066,7.10829183 9.26633537,7.08870307 C9.25871278,6.80793091 8.7033524,5.71640193 7.66667969,4.37021912 C6.46013205,2.80420695 5.65540397,2.23286825 5.448505,2.19695553 L5.44959395,2.20022033 Z" id="phone\call" fill="#FFFFFF"></path>
    </g>
</svg>