<?xml version="1.0" encoding="UTF-8"?>
<svg width="250px" height="147px" viewBox="0 0 250 147" version="1.1" xmlns="http://www.w3.org/2000/svg" xmlns:xlink="http://www.w3.org/1999/xlink">
    <!-- Generator: Sketch 51.2 (57519) - http://www.bohemiancoding.com/sketch -->
    <title>Placeholder 4</title>
    <desc>Created with Sketch.</desc>
    <defs>
        <linearGradient x1="50%" y1="100.005469%" x2="50%" y2="-0.00273369574%" id="linearGradient-1">
            <stop stop-color="#808080" stop-opacity="0.25" offset="0%"></stop>
            <stop stop-color="#808080" stop-opacity="0.12" offset="54%"></stop>
            <stop stop-color="#808080" stop-opacity="0.1" offset="100%"></stop>
        </linearGradient>
        <linearGradient x1="49.9980158%" y1="100.011974%" x2="49.9980158%" y2="3.14375538e-06%" id="linearGradient-2">
            <stop stop-color="#808080" stop-opacity="0.25" offset="0%"></stop>
            <stop stop-color="#808080" stop-opacity="0.12" offset="54%"></stop>
            <stop stop-color="#808080" stop-opacity="0.1" offset="100%"></stop>
        </linearGradient>
        <linearGradient x1="49.9961829%" y1="99.9999929%" x2="49.9961829%" y2="7.11191695e-06%" id="linearGradient-3">
            <stop stop-color="#808080" stop-opacity="0.25" offset="0%"></stop>
            <stop stop-color="#808080" stop-opacity="0.12" offset="54%"></stop>
            <stop stop-color="#808080" stop-opacity="0.1" offset="100%"></stop>
        </linearGradient>
        <linearGradient x1="50.0023585%" y1="100.026536%" x2="50.0023585%" y2="-0.00215558891%" id="linearGradient-4">
            <stop stop-color="#808080" stop-opacity="0.25" offset="0%"></stop>
            <stop stop-color="#808080" stop-opacity="0.12" offset="54%"></stop>
            <stop stop-color="#808080" stop-opacity="0.1" offset="100%"></stop>
        </linearGradient>
    </defs>
    <g id="Placeholder-4" stroke="none" stroke-width="1" fill="none" fill-rule="evenodd">
        <g id="undraw_web_devices_ad58">
            <path d="M36.5936355,0.0168137255 C34.6583028,-0.0384313725 32.674947,0.0168137255 30.8596721,0.574068627 C25.9204918,2.09210784 23.5793635,7.05936275 24.3405304,11.3516667 C25.1016972,15.6439706 28.2328062,19.3838235 31.4815718,22.8018137 C34.7303375,26.2198039 38.2504339,29.5993627 40.0320926,33.685098 C40.9205207,35.7243627 41.3359209,38.0086275 40.4330858,40.0454902 C39.0404147,43.1848529 34.8407907,44.9382843 30.8092478,45.3033824 C26.7777049,45.6684804 22.7293539,44.9575 18.6834041,44.7197059 C16.9857859,44.6212255 15.2401446,44.6092157 13.640974,45.0679902 C11.8857281,45.567598 10.4234233,46.5884314 9.07877531,47.6525 C3.83224687,51.8271078 -0.367377049,57.5221569 0.312150434,63.5054412 C1.08052073,70.2861765 7.93342334,75.644951 15.4394407,78.520098 C17.9246384,79.4808824 20.5539055,80.2447059 22.7413597,81.6042157 C28.5041369,85.1903431 29.7983607,91.9158333 29.2244841,97.8510784 C28.6506075,103.786324 26.6960656,109.728775 27.7837898,115.611176 C29.0636066,122.454363 34.7279364,128.63701 42.3684185,131.524167 C49.1756991,134.096667 57.6950048,133.926127 63.7387175,130.296765 C66.6849373,128.524118 68.9132112,126.062108 70.850945,123.516029 C73.7281578,119.756064 76.1051632,115.638311 77.9223529,111.266029 C78.7651591,109.226765 79.557541,107.033775 81.5240887,105.616618 C82.7246673,104.744706 84.2806172,104.257108 85.8197589,103.877598 C90.4587946,102.734265 95.3451495,102.42201 100.027406,101.403578 C104.709662,100.385147 109.420733,98.4803922 111.965959,95.0936275 C115.567695,90.2897059 113.886885,84.1358824 113.903693,78.4864706 C113.932507,65.597549 123.294619,54.0609314 126.749884,41.4962745 C127.878428,37.3913235 128.298631,32.8492157 125.777416,29.1862255 C124.065391,26.7001961 121.176798,24.9059314 118.141736,23.52 C111.464118,20.4719118 103.87406,19.1148039 96.4088621,17.7937255 C86.0334619,15.9586275 73.4345902,15.7208333 65.3931148,9.78318627 C57.6757956,4.08333333 47.1179074,0.0168137255 36.5936355,0.0168137255 Z" id="Shape" fill="#EE2E24" fill-rule="nonzero" opacity="0.2"></path>
            <ellipse id="Oval" fill="#F5F5F5" fill-rule="nonzero" cx="137.346191" cy="117.090784" rx="111.653809" ry="29.9092157"></ellipse>
            <path d="M230.074079,44.8830392 C230.074079,44.8830392 221.470733,53.4892647 226.328274,66.2604902 C231.185815,79.0317157 218.001061,100.269853 218.001061,100.269853 C218.001061,100.269853 218.142729,100.248235 218.404455,100.202598 C236.074571,97.080049 244.855603,76.8651471 235.030068,61.8456863 C231.377907,56.2635294 228.378862,49.7205882 230.074079,44.8830392 Z" id="Shape" fill="#EE2E24" fill-rule="nonzero"></path>
            <path d="M230.074079,44.8830392 C230.074079,44.8830392 225.216538,55.432451 230.074079,64.0386765 C234.93162,72.644902 230.907281,96.7990196 218.001061,100.269853" id="Shape" stroke="#535461" stroke-width="0.5"></path>
            <path d="M245.398264,79.6946569 C245.398264,79.6946569 235.579932,78.1309804 234.686702,86.9317647 C233.793472,95.732549 215.808804,96.9527451 215.808804,96.9527451 L216.144966,97.1761275 C230.993722,106.925686 245.198968,103.387598 243.037927,90.4506373 C242.252748,85.6275 242.31758,80.7923529 245.398264,79.6946569 Z" id="Shape" fill="#EE2E24" fill-rule="nonzero"></path>
            <path d="M245.398264,79.6946569 C245.398264,79.6946569 235.579932,78.1309804 234.686702,86.9317647 C233.793472,95.732549 215.808804,96.9527451 215.808804,96.9527451 L216.144966,97.1761275 C230.993722,106.925686 245.198968,103.387598 243.037927,90.4506373 C242.252748,85.6275 242.31758,80.7923529 245.398264,79.6946569 Z" id="Shape" fill="#F5F5F5" fill-rule="nonzero" opacity="0.2"></path>
            <path d="M245.398264,79.6946569 C245.398264,79.6946569 237.776991,81.3760294 238.403693,88.2984804 C239.030395,95.2209314 227.08704,103.538922 215.808804,96.9455392" id="Shape" stroke="#535461" stroke-width="0.5"></path>
            <path d="M222.676114,100.863137 L207.25108,100.863137 C207.606053,100.148972 207.790186,99.3620321 207.788939,98.5644608 L207.788939,28.2926961 C207.788939,25.4392519 205.47654,23.1260784 202.62405,23.1260784 L83.2048987,23.1260784 C81.834669,23.1254412 80.5203423,23.6694984 79.5512183,24.6384962 C78.5820943,25.6074941 78.0376083,26.9220076 78.0376085,28.2926961 L78.0376085,98.5668627 C78.0363619,99.364434 78.2204952,100.151374 78.5754677,100.865539 L62.6053713,100.865539 C61.8508076,100.865539 61.2391128,101.477439 61.2391128,102.232255 L61.2391128,103.334755 C61.2430885,107.553075 64.6626847,110.97059 68.879595,110.970588 L216.40189,110.970588 C220.621612,110.970588 224.042372,107.548683 224.042372,103.327549 L224.042372,102.225049 C224.039727,101.47211 223.428806,100.863133 222.676114,100.863137 Z M127.616702,105.234706 L126.300868,103.73348 L159.129489,103.73348 L157.664783,105.237108 L127.616702,105.234706 Z" id="Shape" fill="url(#linearGradient-1)" fill-rule="nonzero"></path>
            <rect id="Rectangle-path" fill="#535461" fill-rule="nonzero" x="79.5047155" y="24.1204902" width="126.809913" height="78.7819118" rx="5.5824"></rect>
            <rect id="Rectangle-path" fill="#FFFFFF" fill-rule="nonzero" x="82.1724012" y="35.6042647" width="121.203211" height="64.3605392"></rect>
            <ellipse id="Oval" fill="#FFFFFF" fill-rule="nonzero" cx="142.775207" cy="29.9956863" rx="1.06851495" ry="1.06887255"></ellipse>
            <path d="M161.489826,100.096912 L157.323819,104.37 L127.957666,104.37 L124.195053,100.096912 L64.4206461,100.096912 C63.683322,100.096912 63.0856027,100.694831 63.0856027,101.432402 L63.0856027,102.50848 C63.0856027,106.634102 66.4289606,109.978578 70.5532015,109.978578 L214.730685,109.978578 C218.854926,109.978578 222.198284,106.634102 222.198284,102.50848 L222.198284,101.432402 C222.198284,100.694831 221.600564,100.096912 220.86324,100.096912 L161.489826,100.096912 Z" id="Shape" fill="#535461" fill-rule="nonzero"></path>
            <path d="M119.916191,37.8669118 L68.788351,37.8669118 C66.2020219,37.8642565 64.1028666,39.9587384 64.098891,42.5459314 L64.098891,113.403775 C64.1028666,115.990967 66.2020219,118.085449 68.788351,118.082794 L119.916191,118.082794 C122.50252,118.085449 124.601675,115.990967 124.605651,113.403775 L124.605651,42.5459314 C124.601675,39.9587384 122.50252,37.8642565 119.916191,37.8669118 Z" id="Shape" fill="url(#linearGradient-2)" fill-rule="nonzero"></path>
            <rect id="Rectangle-path" fill="#535461" fill-rule="nonzero" x="64.816837" y="38.8276961" width="59.0684667" height="78.5441176" rx="4.8"></rect>
            <rect id="Rectangle-path" fill="#FFFFFF" fill-rule="nonzero" x="67.8182835" y="46.2569608" width="53.0655738" height="63.6855882"></rect>
            <ellipse id="Oval" fill="#FFFFFF" fill-rule="nonzero" cx="94.1109547" cy="42.4306373" rx="1" ry="1"></ellipse>
            <ellipse id="Oval" fill="#FFFFFF" fill-rule="nonzero" cx="94.1109547" cy="113.528676" rx="2.16104147" ry="2.16176471"></ellipse>
            <path d="M80.9454098,61.8865196 L54.6935583,61.8865196 C54.0051486,61.8852443 53.3444279,62.1575832 52.8567481,62.6436244 C52.3690683,63.1296656 52.0943776,63.7895951 52.0931051,64.4782353 L52.0931051,121.98598 C52.0943776,122.674621 52.3690683,123.33455 52.8567481,123.820591 C53.3444279,124.306633 54.0051486,124.578971 54.6935583,124.577696 L80.9454098,124.577696 C81.6338196,124.578971 82.2945402,124.306633 82.7822201,123.820591 C83.2698999,123.33455 83.5445906,122.674621 83.5458631,121.98598 L83.5458631,64.4782353 C83.5445906,63.7895951 83.2698999,63.1296656 82.7822201,62.6436244 C82.2945402,62.1575832 81.6338196,61.8852443 80.9454098,61.8865196 Z" id="Shape" fill="url(#linearGradient-3)" fill-rule="nonzero"></path>
            <rect id="Rectangle-path" fill="#535461" fill-rule="nonzero" x="52.3308197" y="62.3669118" width="30.9749277" height="61.9705882" rx="2.64"></rect>
            <rect id="Rectangle-path" fill="#FFFFFF" fill-rule="nonzero" x="54.611919" y="68.1316176" width="26.412729" height="50.4411765"></rect>
            <circle id="Oval" fill="#FFFFFF" fill-rule="nonzero" cx="64.6966635" cy="65.2490686" r="1"></circle>
            <rect id="Rectangle-path" fill="#FFFFFF" fill-rule="nonzero" x="65.8973578" y="65.0090686" width="5.28254581" height="1" rx="0.24"></rect>
            <ellipse id="Oval" fill="#FFFFFF" fill-rule="nonzero" cx="67.6982257" cy="120.974755" rx="1.68081003" ry="1.68137255"></ellipse>
            <path d="M49.158891,128.805147 C49.158891,128.805147 45.9749566,117.996324 49.7567792,110.036225 C51.3666261,106.708936 51.8536393,102.948914 51.144648,99.3210784 C50.794121,97.6025461 50.2869586,95.9197471 49.6295178,94.2937745" id="Shape" stroke="#535461" stroke-width="0.5"></path>
            <path d="M51.9730473,89.2640686 C51.9730473,90.589951 49.5718901,94.4306863 49.5718901,94.4306863 C49.5718901,94.4306863 47.1707329,90.587549 47.1707329,89.2640686 C47.1707329,87.9375023 48.2457676,86.8621078 49.5718901,86.8621078 C50.8980126,86.8621078 51.9730473,87.9375023 51.9730473,89.2640686 Z" id="Shape" fill="#EE2E24" fill-rule="nonzero"></path>
            <path d="M55.9469624,96.6044608 C55.2266152,97.7165686 51.1254388,99.6381373 51.1254388,99.6381373 C51.1254388,99.6381373 51.1998746,95.1080392 51.9202218,93.9959314 C52.3664473,93.2326512 53.1958088,92.7763372 54.0791643,92.8080832 C54.9625198,92.8398291 55.7570095,93.3545009 56.1473306,94.1478448 C56.5376516,94.9411887 56.4606799,95.8849021 55.9469624,96.6044608 Z" id="Shape" fill="#EE2E24" fill-rule="nonzero"></path>
            <path d="M55.7644744,109.145098 C54.580704,109.740784 50.0713308,109.330049 50.0713308,109.330049 C50.0713308,109.330049 52.4220636,105.458088 53.603433,104.862402 C54.7754615,104.332678 56.156616,104.820786 56.735896,105.969432 C57.3151761,107.118078 56.8868603,108.51934 55.7644744,109.1475 L55.7644744,109.145098 Z" id="Shape" fill="#EE2E24" fill-rule="nonzero"></path>
            <path d="M53.4977821,118.606422 C52.4316683,119.394265 47.9174928,119.749755 47.9174928,119.749755 C47.9174928,119.749755 49.5790935,115.536716 50.6452073,114.748873 C51.7106739,114.037795 53.1465118,114.28846 53.908219,115.31852 C54.6699263,116.34858 54.4893198,117.79537 53.4977821,118.606422 Z" id="Shape" fill="#EE2E24" fill-rule="nonzero"></path>
            <path d="M46.0806075,99.8951471 C47.0410704,100.8175 51.4567985,101.775882 51.4567985,101.775882 C51.4567985,101.775882 50.3738766,97.3778922 49.4230183,96.4555392 C48.8180432,95.8096444 47.9069936,95.5489105 47.0520615,95.7769935 C46.1971295,96.0050765 45.5368684,96.6850123 45.3337683,97.5464894 C45.1306682,98.4079664 45.4176441,99.3113705 46.0806075,99.897549 L46.0806075,99.8951471 Z" id="Shape" fill="#EE2E24" fill-rule="nonzero"></path>
            <path d="M43.5689971,110.992206 C44.7527676,111.587892 49.2621408,111.177157 49.2621408,111.177157 C49.2621408,111.177157 46.9114079,107.305196 45.7300386,106.70951 C44.9599582,106.278523 44.0156112,106.304787 43.2706593,106.77791 C42.5257074,107.251033 42.1001962,108.094773 42.1624932,108.975277 C42.2247902,109.855781 42.7648564,110.631159 43.5689971,110.994608 L43.5689971,110.992206 Z" id="Shape" fill="#EE2E24" fill-rule="nonzero"></path>
            <path d="M42.6085342,122.113284 C43.674648,122.901127 48.1888235,123.256618 48.1888235,123.256618 C48.1888235,123.256618 46.5272228,119.043578 45.461109,118.255735 C44.3956424,117.544658 42.9598045,117.795322 42.1980973,118.825382 C41.43639,119.855442 41.6169965,121.302233 42.6085342,122.113284 Z" id="Shape" fill="#EE2E24" fill-rule="nonzero"></path>
            <path d="M239.155256,94.4210784 C236.497175,91.1952451 233.277223,87.4890196 233.72864,83.1967157 C234.093616,79.7210784 233.219595,76.5072549 233.392478,73.0196078 C233.632594,68.0643627 232.638515,64.1851961 229.070395,61.0098039 C226.986191,59.1530882 223.502112,57.695098 222.464812,58.067402 C220.409421,58.802402 218.166741,58.5213725 216.051321,59.0281863 C214.444947,59.4028922 213.376432,59.9889706 212.713713,60.7095588 C211.38107,61.9105392 211.35946,63.5919118 211.966953,65.3813725 C210.894708,67.3457087 210.706831,69.6731361 211.450101,71.784125 C212.193371,73.8951138 213.797853,75.5910364 215.864031,76.4496078 C214.382517,77.0693137 213.1027,78.4960784 212.603259,81.3928431 C212.256082,83.3821901 211.73133,85.3363997 211.035304,87.2320098 C210.722425,87.3783076 210.401793,87.507405 210.074841,87.6187255 C210.146876,87.647549 210.221311,87.6667647 210.293346,87.6931863 C210.137271,87.7532353 209.983597,87.8132843 209.813115,87.8661275 C210.09705,87.9770628 210.390368,88.0622742 210.689537,88.1207353 C208.768611,92.975098 206.367454,95.9823529 206.367454,95.9823529 C206.367454,95.9823529 201.889296,96.9719608 200.148457,95.2401471 C200.148457,95.2401471 200.431794,95.5716176 200.815979,96.0688235 C199.113558,95.3626471 196.318611,94.2097059 193.92946,93.2609314 C192.195824,92.5715686 191.75161,93.2609314 191.768419,94.2217157 C191.345337,94.2748239 190.937142,94.4120233 190.56784,94.6252451 C190.055723,94.2955813 189.518629,94.0064654 188.961466,93.7605392 C187.967387,93.5203431 184.733028,91.7813235 181.498669,97.7165686 C179.616162,101.168186 174.789836,107.468529 171.080048,112.128333 C163.864571,115.447843 154.471244,119.651275 150.979961,120.708137 L148.742083,120.708137 C148.449142,120.227745 148.245043,119.925098 148.245043,119.925098 L148.07216,120.040392 L147.997724,119.925098 C147.997724,119.925098 143.603607,122.968382 139.142257,122.992402 C138.507701,122.983694 137.876173,122.903115 137.259749,122.752206 C135.209161,122.235784 133.763664,122.005196 132.731167,122.031618 C131.508978,122.01 130.810241,122.300637 130.387637,122.848284 C130.330852,122.920139 130.27872,122.995554 130.231562,123.074069 C130.184251,123.151856 130.140973,123.232028 130.1019,123.314265 C130.063481,123.400735 130.025063,123.49201 129.991446,123.585686 C129.963313,123.754935 130.014686,123.927713 130.130714,124.054069 C130.190536,124.138066 130.255491,124.218284 130.325207,124.294265 L130.450068,124.428775 C131.011938,125.010049 132.034831,125.781078 133.307445,126.64098 C133.674822,126.881176 134.063809,127.145392 134.469605,127.407206 L135.240376,127.887598 L135.929508,128.317549 L136.205641,128.488088 L136.512989,128.675441 L137.062854,129.009314 L137.389412,129.206275 L138.006509,129.573775 L138.50595,129.869216 C139.812179,130.640245 141.113607,131.387255 142.287772,132.050196 L143.108968,132.540196 L143.188206,132.583431 L143.716461,132.878873 L144.628901,133.385686 L145.255603,133.731569 L145.548544,133.8925 L145.863095,134.065441 L145.925526,134.099069 L146.472989,134.396912 C146.700917,134.435203 146.934196,134.372038 147.111697,134.223971 C147.270174,133.551422 147.65676,132.110245 148.07216,131.999755 C148.48756,131.889265 150.286027,128.745098 150.792671,126.64098 L155.647811,126.64098 C156.604196,126.559202 157.553997,126.413153 158.490781,126.203824 C157.237377,127.097353 155.995979,127.659412 155.030714,127.419216 C152.98973,126.912402 151.056798,128.156618 150.862305,129.38402 C150.862305,129.410441 150.845497,129.434461 150.838293,129.460882 C150.83109,129.487304 150.826287,129.511324 150.821485,129.535343 C150.816683,129.559363 150.807078,129.595392 150.802276,129.626618 C150.797473,129.657843 150.802276,129.677059 150.802276,129.70348 C150.802276,129.729902 150.802276,129.763529 150.802276,129.794755 C150.802276,129.82598 150.802276,129.845196 150.802276,129.869216 C150.802276,129.893235 150.802276,129.931667 150.802276,129.962892 C150.802276,129.994118 150.802276,130.010931 150.802276,130.034951 C150.802276,130.058971 150.816683,130.099804 150.826287,130.133431 C150.835892,130.167059 150.826287,130.176667 150.843095,130.195882 C150.858253,130.239294 150.875891,130.281798 150.895921,130.323186 L150.907927,130.354412 C150.934854,130.406877 150.96534,130.457436 150.999171,130.505735 L151.037589,130.556176 C151.061601,130.589804 151.088014,130.623431 151.116827,130.654657 L151.172054,130.709902 C151.200868,130.738725 151.232083,130.767549 151.263298,130.796373 L151.33053,130.851618 L151.438582,130.930882 L151.517821,130.983725 L151.647483,131.060588 L151.733925,131.106225 L151.897203,131.183088 L151.978843,131.219118 C152.065284,131.255147 152.156528,131.288775 152.254976,131.32 C152.411051,131.370441 152.59594,131.423284 152.804841,131.476127 L153.013742,131.526569 L153.318689,131.596225 L153.479566,131.632255 C153.687666,131.677092 153.908573,131.721928 154.142285,131.766765 L154.466442,131.826814 L154.730569,131.874853 L155.338062,131.980539 C155.717445,132.045392 156.113635,132.110245 156.53864,132.172696 L157.585545,132.331225 L158.949402,132.525784 L159.251948,132.566618 L159.732179,132.633873 L160.435718,132.727549 L160.91595,132.79 L162.16215,132.948529 L162.551138,132.996569 L163.336316,133.092647 C164.368814,133.217549 165.367695,133.332843 166.287338,133.436127 L167.351051,133.556225 L167.88891,133.616275 L168.129026,133.640294 L168.772536,133.709951 L169.130309,133.748382 L169.572122,133.79402 L170.194021,133.858873 L170.261254,133.858873 L170.659846,133.899706 C170.760818,133.910491 170.861684,133.878425 170.937907,133.811309 C171.01413,133.744192 171.058723,133.648176 171.060839,133.546618 C171.060839,133.534608 171.060839,133.520196 171.060839,133.505784 C171.097461,133.450083 171.117451,133.385092 171.118467,133.318431 C171.128918,132.725985 171.203795,132.136435 171.341774,131.560196 C171.368187,131.461716 171.399402,131.360833 171.433018,131.259951 L171.471437,131.144657 C171.514658,131.022157 171.557878,130.904461 171.608303,130.772353 C171.644442,130.682838 171.675703,130.59143 171.701948,130.498529 C171.701948,130.469706 171.718756,130.440882 171.728361,130.409657 C171.737965,130.378431 171.752372,130.311176 171.761977,130.260735 C172.261418,128.552941 171.658727,125.367941 171.485844,124.11652 C171.430386,123.716723 171.338766,123.322786 171.212112,122.939559 C171.243252,122.942611 171.274616,122.942611 171.305757,122.939559 C171.563591,122.844707 171.80625,122.712817 172.026104,122.548039 C175.695072,121.238971 178.787763,119.742549 179.765034,118.243725 C181.347741,117.825818 183.028623,118.001823 184.490511,118.738529 C186.389826,119.6825 200.758351,124.373529 207.447975,126.540098 C208.648554,127.575343 209.589807,128.180637 210.110858,128.135 C210.110858,128.135 218.627763,129.513725 222.051813,126.823529 C222.35676,127.034902 222.548852,127.147794 222.548852,127.147794 C222.548852,127.147794 227.52405,124.676176 228.27081,121.459951 C228.510926,120.4175 228.729431,118.880245 228.952739,117.179657 C230.106899,116.016386 230.75575,114.44464 230.758409,112.805686 C230.914484,107.406078 233.005892,101.237843 234.55704,95.7517647 C236.439547,95.9006863 237.167097,95.5451961 238.893529,94.6925 L238.816692,94.5940196 C238.939151,94.5219608 239.047203,94.4739216 239.155256,94.4210784 Z M210.631909,102.50848 L209.671446,102.18902 C209.993603,101.758735 210.271165,101.296781 210.499846,100.810294 L210.631909,102.50848 Z M205.27973,104.780735 L211.042507,108.239559 L211.092932,108.943333 C211.0227,109.478883 211.038914,110.022241 211.140955,110.552647 C208.60053,108.294804 205.627898,105.554167 205.277329,104.778333 L205.27973,104.780735 Z M202.926596,99.7366176 C202.297493,99.4772059 201.776442,99.2418137 201.418669,99.0472549 C201.898901,99.0808824 202.355121,99.1097059 202.753713,99.1313235 C202.832486,99.326436 202.890435,99.5293263 202.926596,99.7366176 Z M187.491958,105.37402 C187.491958,105.37402 188.486037,103.149804 190.726316,106.858431 C191.074484,107.434902 191.715593,108.352451 192.563202,109.488578 L186.041659,108.616667 C186.810029,107.425294 187.326278,106.31799 187.491958,105.376422 L187.491958,105.37402 Z" id="Shape" fill="url(#linearGradient-4)" fill-rule="nonzero"></path>
            <path d="M201.817261,96.4387255 C201.817261,96.4387255 197.255063,94.5171569 193.653327,93.0759804 C190.051591,91.6348039 192.212633,96.4387255 192.212633,96.4387255 C192.212633,96.4387255 198.215526,98.120098 198.215526,98.3602941 C198.215526,98.6004902 203.257956,98.8406863 203.257956,98.8406863 L201.817261,96.4387255 Z" id="Shape" fill="#F7C4A7" fill-rule="nonzero"></path>
            <path d="M201.817261,96.4387255 C201.817261,96.4387255 197.255063,94.5171569 193.653327,93.0759804 C190.051591,91.6348039 192.212633,96.4387255 192.212633,96.4387255 C192.212633,96.4387255 198.215526,98.120098 198.215526,98.3602941 C198.215526,98.6004902 203.257956,98.8406863 203.257956,98.8406863 L201.817261,96.4387255 Z" id="Shape" fill="#000000" fill-rule="nonzero" opacity="0.05"></path>
            <path d="M221.266635,77.4632353 C221.266635,77.4632353 213.1027,73.1397059 211.662006,81.5465686 C210.221311,89.9534314 205.659113,95.7181373 205.659113,95.7181373 C205.659113,95.7181373 201.33703,96.6789216 199.65622,94.997549 C199.65622,94.997549 203.738187,99.8014706 201.817261,100.281863 C201.817261,100.281863 206.139344,103.404412 208.06027,102.443627 C209.981196,101.482843 211.42189,94.997549 212.142237,93.3161765 C212.862584,91.6348039 215.503857,76.9828431 221.266635,77.4632353 Z" id="Shape" fill="#575988" fill-rule="nonzero"></path>
            <path d="M221.266635,77.4632353 C221.266635,77.4632353 213.1027,73.1397059 211.662006,81.5465686 C210.221311,89.9534314 205.659113,95.7181373 205.659113,95.7181373 C205.659113,95.7181373 201.33703,96.6789216 199.65622,94.997549 C199.65622,94.997549 203.738187,99.8014706 201.817261,100.281863 C201.817261,100.281863 206.139344,103.404412 208.06027,102.443627 C209.981196,101.482843 211.42189,94.997549 212.142237,93.3161765 C212.862584,91.6348039 215.503857,76.9828431 221.266635,77.4632353 Z" id="Shape" fill="#000000" fill-rule="nonzero" opacity="0.1"></path>
            <path d="M216.704436,74.5808824 C216.704436,74.5808824 221.746866,80.3455882 221.986982,85.1495098 C222.227097,89.9534314 227.749759,80.1053922 228.22999,79.8651961 C228.710222,79.625 223.427676,71.4583333 222.947445,68.8161765 C222.467213,66.1740196 216.704436,74.5808824 216.704436,74.5808824 Z" id="Shape" fill="#F7C4A7" fill-rule="nonzero"></path>
            <polygon id="Shape" fill="#F7C4A7" fill-rule="nonzero" points="220.186114 77.0428922 217.004581 79.9252451 218.505304 85.9901961 222.587271 82.1470588 222.10704 78.3039216"></polygon>
            <polygon id="Shape" fill="#F7C4A7" fill-rule="nonzero" points="153.794118 119.737745 148.271456 119.737745 150.432498 125.022059 155.715043 123.580882"></polygon>
            <path d="M149.548872,118.976324 C149.548872,118.976324 143.829315,122.961176 138.94296,121.721765 C134.056606,120.482353 132.728766,120.945931 132.159691,122.545637 C131.633838,124.018039 145.807869,131.805196 148.067358,133.035 C148.138398,133.073911 148.223533,133.077386 148.297506,133.044394 C148.371479,133.011401 148.425794,132.94573 148.444339,132.866863 C148.598014,132.213529 148.970193,130.813186 149.368785,130.705098 C149.887435,130.565784 152.250174,126.141373 152.120511,124.402353 C151.990849,122.663333 149.548872,118.976324 149.548872,118.976324 Z" id="Shape" fill="#000000" fill-rule="nonzero" opacity="0.1"></path>
            <path d="M149.308756,118.976324 C149.308756,118.976324 143.5892,122.961176 138.702845,121.721765 C133.81649,120.482353 132.48865,120.945931 131.919576,122.545637 C131.393722,124.018039 145.567753,131.805196 147.827242,133.035 C147.898282,133.073911 147.983417,133.077386 148.05739,133.044394 C148.131363,133.011401 148.185679,132.94573 148.204224,132.866863 C148.357898,132.213529 148.730077,130.813186 149.128669,130.705098 C149.647319,130.565784 152.010058,126.141373 151.880395,124.402353 C151.750733,122.663333 149.308756,118.976324 149.308756,118.976324 Z" id="Shape" fill="#F3B5B7" fill-rule="nonzero"></path>
            <path d="M196.534716,109.409314 L180.446962,107.247549 C180.446962,107.247549 154.274349,119.737745 151.152845,119.977941 L151.873192,125.502451 L156.675506,125.502451 C158.596432,125.502451 177.325458,121.419118 179.966731,117.335784 C181.494786,116.929384 183.118958,117.100407 184.52893,117.816176 C186.930087,119.017157 209.981196,126.463235 209.981196,126.463235 L196.534716,109.409314 Z" id="Shape" fill="#575988" fill-rule="nonzero"></path>
            <path d="M196.534716,109.409314 L180.446962,107.247549 C180.446962,107.247549 154.274349,119.737745 151.152845,119.977941 L151.873192,125.502451 L156.675506,125.502451 C158.596432,125.502451 177.325458,121.419118 179.966731,117.335784 C181.494786,116.929384 183.118958,117.100407 184.52893,117.816176 C186.930087,119.017157 209.981196,126.463235 209.981196,126.463235 L196.534716,109.409314 Z" id="Shape" fill="#000000" fill-rule="nonzero" opacity="0.1"></path>
            <polygon id="Shape" fill="#F7C4A7" fill-rule="nonzero" points="167.960945 116.855392 165.319672 120.218137 167.960945 121.659314 171.802797 118.776961"></polygon>
            <path d="M213.823047,113.012255 C213.823047,113.012255 205.178881,105.609412 204.580993,104.266716 C203.983105,102.92402 189.811475,93.7965686 188.851013,93.5563725 C187.89055,93.3161765 184.769045,91.6348039 181.647541,97.3995098 C178.526037,103.164216 167.000482,117.095588 167.000482,117.095588 C167.000482,117.095588 170.602218,122.139706 171.802797,121.89951 C173.003375,121.659314 186.449855,110.370098 187.410318,104.845588 C187.410318,104.845588 188.370781,102.683824 190.531823,106.286765 C192.692864,109.889706 206.619576,127.183824 209.260849,126.943627 C209.260849,126.943627 219.585824,128.625 221.746866,124.541667 C223.907907,120.458333 213.823047,113.012255 213.823047,113.012255 Z" id="Shape" fill="#575988" fill-rule="nonzero"></path>
            <path d="M218.745419,77.8235294 C218.745419,77.8235294 215.743973,79.1446078 215.503857,84.6691176 C215.263742,90.1936275 209.981196,99.5612745 209.981196,99.5612745 L210.461427,110.610294 C210.461427,110.610294 216.224204,116.375 216.704436,119.977941 C217.184667,123.580882 221.266635,125.982843 221.266635,125.982843 C221.266635,125.982843 226.068949,123.580882 226.789296,120.458333 C227.509643,117.335784 227.989875,109.64951 229.190453,106.767157 C230.391032,103.884804 229.670685,85.870098 229.670685,85.870098 L226.068949,79.625 L224.148023,77.4632353 L219.105593,83.2279412 C219.105593,83.2279412 216.344262,79.504902 218.745419,77.8235294 Z" id="Shape" fill="#DDDBE2" fill-rule="nonzero"></path>
            <path d="M211.662006,107.007353 C211.662006,107.007353 210.941659,98.3602941 213.1027,96.4387255 L217.424783,84.1887255 C217.424783,84.1887255 218.985535,78.3039216 218.745419,77.8235294 C218.505304,77.3431373 213.1027,82.5073529 213.1027,82.5073529 L209.500964,95.2377451 L210.461427,108.688725 L211.662006,107.007353 Z" id="Shape" fill="#000000" fill-rule="nonzero" opacity="0.1"></path>
            <path d="M211.42189,107.007353 C211.42189,107.007353 210.701543,98.3602941 212.862584,96.4387255 L217.184667,84.1887255 C217.184667,84.1887255 218.865477,78.1838235 218.625362,77.7034314 C218.385246,77.2230392 212.862584,82.5073529 212.862584,82.5073529 L209.260849,95.2377451 L210.221311,108.688725 L211.42189,107.007353 Z" id="Shape" fill="#575988" fill-rule="nonzero"></path>
            <path d="M213.1027,103.164216 C213.1027,103.164216 201.096914,99.3210784 200.376567,98.3602941 C199.65622,97.3995098 191.972517,91.1544118 189.331244,95.4779412 C186.689971,99.8014706 199.175988,101.002451 199.175988,101.002451 L211.902122,108.688725 L213.1027,103.164216 Z" id="Shape" fill="#F7C4A7" fill-rule="nonzero"></path>
            <path d="M168.481996,120.19652 L164.928284,119.557598 C164.928284,119.557598 159.107878,127.015686 156.075217,126.259069 C153.042555,125.502451 150.252411,128.766716 153.455554,129.813971 C156.348949,130.760343 168.844571,132.083824 171.224118,132.328824 C171.321509,132.33891 171.418679,132.307795 171.49211,132.243007 C171.565542,132.17822 171.608542,132.085666 171.610704,131.987745 C171.628984,131.059353 171.816125,130.142051 172.16297,129.280735 C172.804079,127.707451 172.16297,124.327892 171.985284,123.035637 C171.887375,122.278168 171.650492,121.545295 171.286548,120.873873 L168.481996,120.19652 Z" id="Shape" fill="#000000" fill-rule="nonzero" opacity="0.1"></path>
            <path d="M168.421967,120.42951 L164.868255,119.790588 C164.868255,119.790588 159.04785,127.248676 156.01999,126.494461 C152.992131,125.740245 150.197184,129.002108 153.400328,130.049363 C156.293722,130.995735 168.789344,132.319216 171.168891,132.564216 C171.266282,132.574302 171.363453,132.543187 171.436884,132.478399 C171.510315,132.413612 171.553315,132.321058 171.555477,132.223137 C171.567165,131.296893 171.746969,130.380478 172.086133,129.518529 C172.727242,127.945245 172.086133,124.565686 171.908447,123.273431 C171.810538,122.515963 171.573655,121.783089 171.209711,121.111667 L168.421967,120.42951 Z" id="Shape" fill="#F3B5B7" fill-rule="nonzero"></path>
            <ellipse id="Oval" fill="#000000" fill-rule="nonzero" opacity="0.1" cx="218.505304" cy="69.6568627" rx="7.68370299" ry="7.68627451"></ellipse>
            <ellipse id="Oval" fill="#F7C4A7" fill-rule="nonzero" cx="217.784957" cy="69.6568627" rx="7.68370299" ry="7.68627451"></ellipse>
            <path d="M225.348602,77.2230392 C225.348602,77.2230392 234.472999,80.3455882 234.472999,86.8308824 C234.472999,93.3161765 229.430569,103.644608 229.190453,112.051471 C228.950338,120.458333 215.743973,119.257353 215.743973,119.257353 C215.743973,119.257353 213.823047,90.9142157 215.743973,88.752451 C217.664899,86.5906863 226.309065,78.1838235 225.348602,77.2230392 Z" id="Shape" fill="#575988" fill-rule="nonzero"></path>
            <path d="M223.667792,90.6740196 C223.667792,90.6740196 220.306172,105.566176 212.382353,102.92402 C212.382353,102.92402 208.300386,108.928922 211.181774,111.571078 C211.181774,111.571078 218.14513,113.252451 222.707329,108.688725 C227.269527,104.125 230.631148,102.443627 231.351495,96.9191176 C232.071842,91.3946078 232.552073,83.7083333 230.150916,84.4289216 C227.749759,85.1495098 223.667792,90.6740196 223.667792,90.6740196 Z" id="Shape" fill="#000000" fill-rule="nonzero" opacity="0.1"></path>
            <path d="M223.907907,90.4338235 C223.907907,90.4338235 220.546287,105.32598 212.622469,102.683824 C212.622469,102.683824 208.540501,108.688725 211.42189,111.330882 C211.42189,111.330882 218.385246,113.012255 222.947445,108.448529 C227.509643,103.884804 230.871263,102.203431 231.59161,96.6789216 C232.311958,91.1544118 232.792189,83.4681373 230.391032,84.1887255 C227.989875,84.9093137 223.907907,90.4338235 223.907907,90.4338235 Z" id="Shape" fill="#575988" fill-rule="nonzero"></path>
            <path d="M172.292441,128.745098 C172.292441,128.766716 172.278041,128.793137 172.270841,128.812353 C172.105554,129.223083 171.979394,129.648518 171.894041,130.08299 C171.951641,129.895637 172.018841,129.70348 172.095641,129.511324 C172.190067,129.264212 172.256091,129.00715 172.292441,128.745098 Z" id="Shape" fill="#DDDBE2" fill-rule="nonzero"></path>
            <path d="M153.575612,129.34799 C152.586336,129.023725 152.170935,128.49049 152.154127,127.928431 C151.745931,128.711471 152.002854,129.590588 153.400328,130.046961 C156.293722,130.993333 168.791745,132.316814 171.168891,132.561814 C171.266691,132.57193 171.364242,132.540498 171.437753,132.475183 C171.511265,132.409869 171.553979,132.316676 171.555477,132.218333 C171.559045,132.035571 171.42258,131.880303 171.240926,131.860441 C168.633269,131.581814 156.430588,130.279951 153.575612,129.34799 Z" id="Shape" fill="#DDDBE2" fill-rule="nonzero"></path>
            <path d="M132.250935,122.122892 C132.314613,121.945905 132.395016,121.775395 132.491051,121.613676 C132.23233,121.875632 132.039008,122.194926 131.926779,122.545637 C131.400926,124.018039 145.574957,131.805196 147.834446,133.035 C147.905821,133.073895 147.991297,133.077064 148.065355,133.043561 C148.139413,133.010059 148.193485,132.943761 148.211427,132.864461 C148.238879,132.750664 148.186741,132.632575 148.084166,132.576225 C145.586962,131.20951 131.732285,123.57848 132.250935,122.122892 Z" id="Shape" fill="#DDDBE2" fill-rule="nonzero"></path>
            <path d="M149.457628,130.284755 C149.330366,130.318382 149.205506,130.488922 149.08785,130.721912 L149.126268,130.7075 C149.231919,130.678676 149.412006,130.467304 149.630511,130.155049 C149.583844,130.211243 149.524623,130.255674 149.457628,130.284755 Z" id="Shape" fill="#DDDBE2" fill-rule="nonzero"></path>
            <path d="M216.718843,76.4231863 C216.041716,77.9172059 215.900048,79.6009804 215.403009,81.1670588 C214.416133,84.2727941 211.94054,86.8428922 208.975111,87.834902 C211.469913,88.8293137 214.413732,87.6139216 216.341861,85.5962745 C218.26999,83.5786275 219.400935,80.8932353 220.483857,78.279902 C223.283607,80.1630392 222.942642,84.4913725 223.883896,87.8613235 C224.701222,90.8278727 226.76395,93.2943365 229.538621,94.6228431 C232.306132,95.8650629 235.484594,95.8007143 238.199595,94.4475 C235.632758,91.324951 231.978197,87.0182353 232.412806,82.8484314 C232.765776,79.4712745 230.343009,76.8915686 230.508689,73.502402 C230.748804,68.6984804 228.909518,66.2580882 225.466258,63.1739706 C223.454089,61.370098 226.621215,58.8264216 224.025564,59.5710294 C223.005072,59.8640686 221.929354,58.7711765 220.928071,59.1314706 C218.944716,59.8520588 216.778872,59.5734314 214.737888,60.0538235 C204.129576,62.5470588 217.70812,74.2422059 216.718843,76.4231863 Z" id="Shape" fill="#000000" fill-rule="nonzero" opacity="0.1"></path>
            <path d="M216.958959,76.1829902 C216.281832,77.6770098 216.140164,79.3607843 215.643124,80.9268627 C214.656249,84.032598 212.180656,86.6026961 209.215227,87.5947059 C211.710029,88.5891176 214.653848,87.3737255 216.581977,85.3560784 C218.510106,83.3384314 219.641051,80.6530392 220.723973,78.0397059 C223.523722,79.9228431 223.182758,84.2511765 224.124012,87.6211275 C224.941338,90.5876766 227.004066,93.0541404 229.778737,94.3826471 C232.546248,95.6248668 235.724709,95.5605183 238.439711,94.2073039 C235.872874,91.0847549 232.458428,87.4986275 232.893038,83.3288235 C233.246008,79.9516667 232.720154,76.4808333 232.893038,73.0940686 C233.133153,68.2901471 230.777618,63.6495588 227.331958,60.5654412 C225.319788,58.7615686 222.176673,58.5309804 221.172989,58.8840686 C219.189634,59.6046569 217.02379,59.3260294 214.982806,59.8064216 C204.369691,62.3068627 217.948235,74.0020098 216.958959,76.1829902 Z" id="Shape" fill="#FC6681" fill-rule="nonzero"></path>
        </g>
    </g>
</svg>