<?xml version="1.0" encoding="UTF-8"?>
<svg width="40px" height="40px" viewBox="0 0 40 40" version="1.1" xmlns="http://www.w3.org/2000/svg" xmlns:xlink="http://www.w3.org/1999/xlink">
    <!-- Generator: Sketch 51.2 (57519) - http://www.bohemiancoding.com/sketch -->
    <title>account manager</title>
    <desc>Created with Sketch.</desc>
    <defs></defs>
    <g id="account-manager" stroke="none" stroke-width="1" fill="none" fill-rule="evenodd">
        <g id="Group-4">
            <rect id="Rectangle-2-Copy" x="0" y="0" width="40" height="40"></rect>
            <path d="M7.88686488,25.25 L6.4658974,25.25 L6.4658974,24.625 C6.4658974,23.6395833 7.22510003,22.8541667 8.20150768,22.8541667 L12.2411152,22.8541667 C13.1951934,22.8541667 13.9767255,23.6583333 13.9767255,24.625 L13.9767255,25.25 L12.555758,25.25 L12.555758,24.625 C12.555758,24.4625 12.4096014,24.3125 12.2411152,24.3125 L8.20150768,24.3125 C8.012722,24.3125 7.88686488,24.4416667 7.88686488,24.625 L7.88686488,25.25 Z M16.5785612,27.1471547 C16.5777522,27.0336668 16.4830636,26.9400263 16.3778234,26.9381905 L15.1439492,26.9166667 L4.02386368,26.9166667 C3.81071856,26.9166667 3.62396283,27.1083333 3.62396283,27.3333333 L3.62396283,33.5833333 C3.62396283,33.81875 3.80056879,34 4.02386368,34 L16.2157646,34 C16.4289098,34 16.6156655,33.80625 16.6156655,33.5833333 L16.6156655,32.3520833 L16.5785612,27.1471547 Z M30.6223449,10.0416667 C30.6223449,7.625 28.7141886,5.66666667 26.3594425,5.66666667 C24.0046964,5.66666667 22.0965401,7.625 22.0965401,10.0416667 C22.0965401,12.4583333 24.0046964,14.4166667 26.3594425,14.4166667 C28.7141886,14.4166667 30.6223449,12.4583333 30.6223449,10.0416667 Z M20.4725772,10.0416667 C20.4725772,6.70416667 23.1074569,4 26.3594425,4 C29.6093981,4 32.2463078,6.70416667 32.2463078,10.0416667 C32.2463078,13.3791667 29.6093981,16.0833333 26.3594425,16.0833333 C23.1074569,16.0833333 20.4725772,13.3791667 20.4725772,10.0416667 Z M36.9740696,33.5875 L36.4767309,24.64375 C36.1600582,21.81875 34.7127013,19.3125 32.4411833,17.6354167 L26.6111567,30.4604167 L26.2437351,30.4604167 L20.4157385,17.6354167 C18.1361007,19.3125 16.6867139,21.825 16.3781609,24.65 C16.3781609,24.65 16.3558314,25.0458333 16.3436517,25.2541667 C17.4012575,25.3229167 18.2396283,26.21875 18.2396283,27.3333333 L18.2396283,33.5833333 L36.9740696,33.5875 Z M16.2157646,35.6666667 L4.02386368,35.6666667 C2.90535928,35.6666667 2,34.74375 2,33.5833333 L2,27.3333333 C2,26.1833333 2.91956895,25.25 4.02386368,25.25 L14.6932995,25.25 L14.7318686,24.5208333 C14.7501382,24.3833333 14.7887073,19.4166667 20.4624275,15.6145833 C20.831879,15.39375 21.2947084,15.5520833 21.487554,15.975 L26.4365807,26.8770833 L31.3856075,15.975 C31.580483,15.5458333 32.0372225,15.3916667 32.410734,15.6145833 C35.5794915,17.49375 37.7109427,20.8083333 38.1149034,24.5208333 L38.6650209,34.4416667 C38.6934402,34.9291667 38.3503781,35.2854167 37.9017583,35.2854167 L17.4093773,35.2854167 C17.0683451,35.51875 16.6562646,35.6666667 16.2157646,35.6666667 Z" id="EMPLOYEE-TRAVEL-Copy" fill="#FFFFFF"></path>
        </g>
    </g>
</svg>