<?xml version="1.0" encoding="UTF-8"?>
<svg width="11px" height="19px" viewBox="0 0 11 19" version="1.1" xmlns="http://www.w3.org/2000/svg" xmlns:xlink="http://www.w3.org/1999/xlink">
    <!-- Generator: Sketch 51.2 (57519) - http://www.bohemiancoding.com/sketch -->
    <title>arrow right</title>
    <desc>Created with Sketch.</desc>
    <defs></defs>
    <g id="arrow-right" stroke="none" stroke-width="1" fill="none" fill-rule="evenodd">
        <path d="M9.80928168,16.8703477 C10.0607675,17.1258884 10.0639794,17.5435285 9.81631979,17.8032903 C9.69459814,17.9306899 9.53076773,18 9.36081711,18 C9.19481793,18 9.03415107,17.9334381 8.91270026,17.8105436 L1.29366377,10.0619722 C1.11132173,9.94094007 1,9.73225917 1,9.50721465 C1,9.29913176 1.09508399,9.10032904 1.23690926,8.98965272 L8.8509855,1.19106828 C9.10183533,0.934906146 9.5060633,0.93648418 9.75430449,1.19480187 C10.0032074,1.45354685 10.0014484,1.87128876 9.75069558,2.12785964 L2.5549374,9.49820278 L9.80928168,16.8703477 Z M10.1778375,18.1486958 C9.96283581,18.3737267 9.668853,18.5 9.36081711,18.5 C9.0595499,18.5 8.77129121,18.3787755 8.5561794,18.1611044 L0.968437612,10.4443598 C0.674610681,10.2264659 0.5,9.87826799 0.5,9.50721465 C0.5,9.15184924 0.660709989,8.80507426 0.879149038,8.64035682 L8.4937473,0.841238506 C8.94189391,0.383601396 9.67104641,0.38656342 10.1146447,0.848168161 C10.5507779,1.30154683 10.547893,2.02752251 10.1084609,2.47715035 L3.25506321,9.49682655 L10.1656611,16.5196431 C10.6065576,16.9676485 10.6120645,17.6932502 10.1778375,18.1486958 Z" id="arrow-left" fill="#9B9B9B" fill-rule="nonzero" transform="translate(5.499977, 9.499989) scale(-1, 1) translate(-5.499977, -9.499989) "></path>
    </g>
</svg>