<?xml version="1.0" encoding="UTF-8"?>
<svg width="40px" height="40px" viewBox="0 0 40 40" version="1.1" xmlns="http://www.w3.org/2000/svg" xmlns:xlink="http://www.w3.org/1999/xlink">
    <!-- Generator: Sketch 51.2 (57519) - http://www.bohemiancoding.com/sketch -->
    <title>automated gst invoices</title>
    <desc>Created with Sketch.</desc>
    <defs></defs>
    <g id="automated-gst-invoices" stroke="none" stroke-width="1" fill="none" fill-rule="evenodd">
        <g id="Group-4">
            <rect id="Rectangle-2-Copy" x="0" y="0" width="40" height="40"></rect>
        </g>
        <path d="M33.1846967,33.152738 C33.19398,33.1337937 33.202303,33.1148494 33.2096656,33.0949884 C33.216388,33.0766551 33.2227903,33.0580163 33.2279121,33.0393776 C33.233034,33.0204332 33.2368753,33.0011833 33.2400765,32.9816279 C33.2432776,32.9605447 33.2458385,32.939767 33.2467989,32.9186838 C33.2474391,32.9086005 33.25,32.8991283 33.25,32.8887395 L33.25,9.36109244 C33.25,9.35895356 33.2493598,9.35712024 33.2493598,9.35498136 C33.2455184,7.5045472 31.6676758,6 29.7281042,6 L10.5212556,6 C8.5797633,6 7,7.50790829 7,9.36109244 C7,9.38706452 7.00480171,9.41211993 7.00800285,9.4374809 C7.00480171,9.46284187 7,9.48789729 7,9.51386937 L7,14.4610919 C7,14.4730085 7.00288103,14.4837029 7.00384137,14.4953139 C6.98751555,14.6526742 7.03425221,14.8155344 7.14853296,14.946617 C7.27497805,15.091755 7.457123,15.1666157 7.6405484,15.1666157 C7.78491988,15.1666157 7.9302517,15.1201716 8.04997439,15.0251443 L9.56091315,13.823401 L11.072172,15.0251443 C11.3096967,15.2139766 11.6541395,15.2139766 11.8919843,15.0251443 L12.1218263,14.8421175 L12.1218263,13.2507931 L11.4819181,13.7598458 L9.97065925,12.5581025 C9.73313456,12.3692702 9.38869174,12.3692702 9.15084693,12.5581025 L8.28045657,13.2507931 L8.28045657,9.51386937 C8.28045657,9.48789729 8.27565486,9.46284187 8.27245372,9.4374809 C8.27565486,9.41211993 8.28045657,9.38706452 8.28045657,9.36109244 C8.28045657,8.18165455 9.2859351,7.22221543 10.5212556,7.22221543 C11.7565761,7.22221543 12.7620546,8.18165455 12.7620546,9.36109244 C12.7620546,9.3620091 12.7623747,9.36292576 12.7623747,9.36414798 L12.7623747,11.4999694 L12.7623747,17.3054927 L12.7623747,32.8887395 C12.7623747,32.8979061 12.7649356,32.9064616 12.7652557,32.9153227 C12.7662161,32.9385448 12.768777,32.9614613 12.7722982,32.9843779 C12.7754994,33.0021 12.7790206,33.019211 12.7831821,33.036322 C12.7889442,33.0570997 12.7953465,33.0775718 12.8030292,33.0977383 C12.8097516,33.115766 12.8174343,33.132877 12.8257573,33.1499881 C12.8347205,33.1680157 12.8449641,33.1857379 12.8561681,33.2031544 C12.8673721,33.2208766 12.8792164,33.237682 12.8920209,33.2541819 C12.8987433,33.2624319 12.9029048,33.2715985 12.9102674,33.2795429 C12.9169898,33.2868762 12.9243525,33.2923762 12.9310749,33.2990983 C12.94548,33.314376 12.9608455,33.3284315 12.9768512,33.3418759 C12.9928569,33.3553202 13.0088626,33.3684591 13.0255085,33.3800701 C13.0418343,33.3913756 13.0588004,33.4014589 13.0760866,33.4112366 C13.0943331,33.4216254 13.1122595,33.4314032 13.1314663,33.4399587 C13.1500329,33.4482086 13.1692398,33.4549308 13.1887667,33.461653 C13.2082937,33.4680696 13.2278207,33.4744863 13.2479879,33.4790696 C13.268155,33.4836529 13.2880021,33.487014 13.3084894,33.4900695 C13.3299371,33.493125 13.3513847,33.4955695 13.3731525,33.4964861 C13.3833961,33.4974028 13.3926794,33.4998472 13.402603,33.4998472 C13.4134869,33.4998472 13.4234104,33.4974028 13.4346144,33.4967917 C13.456062,33.495875 13.4775097,33.4937361 13.4986372,33.4903751 C13.5197648,33.487014 13.5405722,33.4836529 13.5610595,33.4784585 C13.5802663,33.4738751 13.5985128,33.4680696 13.6173996,33.4619585 C13.6385271,33.4546253 13.6596546,33.4466809 13.6798218,33.4372087 C13.6964678,33.4295698 13.7127936,33.4210143 13.7284792,33.4118477 C13.7489665,33.3999311 13.7691337,33.3874034 13.7883405,33.3736535 C13.7960233,33.367848 13.8046663,33.3641813 13.812029,33.3583758 L15.3229677,32.1566325 L16.8342266,33.3583758 C17.0717513,33.5472081 17.4161941,33.5472081 17.6540389,33.3583758 L19.1649777,32.1566325 L20.6759164,33.3583758 C20.9134411,33.5472081 21.257884,33.5472081 21.4957288,33.3583758 L23.0066675,32.1566325 L24.5176063,33.3583758 C24.755131,33.5472081 25.0995738,33.5472081 25.3374186,33.3583758 L26.8483574,32.1566325 L28.3592961,33.3583758 C28.5968208,33.5472081 28.9412636,33.5472081 29.1791084,33.3583758 L30.6900472,32.1566325 L32.200986,33.3583758 C32.2102693,33.3657091 32.2205129,33.3709035 32.2297962,33.3773201 C32.2442014,33.3874034 32.2582864,33.3968756 32.2733317,33.4060422 C32.2931788,33.4179588 32.3130259,33.4277365 32.3335132,33.4375142 C32.3482385,33.4442364 32.3626436,33.4509586 32.3780091,33.4567641 C32.4020176,33.4656252 32.4263463,33.4723474 32.4513152,33.4784585 C32.46476,33.4818195 32.4778847,33.4857917 32.4916496,33.4885417 C32.5294231,33.4955695 32.5691172,33.4998472 32.6091315,33.4998472 L32.6091315,33.4998472 L32.6094516,33.4998472 C32.6552279,33.4998472 32.6997238,33.4949584 32.7426191,33.4860973 C32.7525426,33.484264 32.762146,33.4799862 32.7720696,33.4775418 C32.8050413,33.4692918 32.8373729,33.4598197 32.8681038,33.4469864 C32.8818687,33.4411809 32.8946733,33.4329309 32.9081181,33.4262087 C32.9337272,33.4133755 32.9590162,33.3999311 32.9823846,33.3834312 C32.9958294,33.3742646 33.0079937,33.3635702 33.0211184,33.3528758 C33.0428861,33.3348481 33.0643338,33.3162094 33.0835406,33.2954317 C33.0893027,33.2896262 33.095705,33.285654 33.1011469,33.2795429 C33.1078693,33.2722096 33.1117107,33.2636541 33.1177929,33.2560152 C33.1318779,33.2382931 33.1450026,33.2199599 33.1568468,33.20071 C33.1667703,33.1851267 33.1760536,33.1692379 33.1846967,33.152738 L33.1846967,33.152738 Z M30.1790479,30.7850211 L28.6888724,31.974878 L27.1986968,30.7850211 C26.9644362,30.5980566 26.6247267,30.5980566 26.3901503,30.7850211 L24.8999748,31.974878 L23.4097992,30.7850211 C23.1755385,30.5980566 22.835829,30.5980566 22.6012527,30.7850211 L21.1110771,31.974878 L19.6209016,30.7850211 C19.3866409,30.5980566 19.0469314,30.5980566 18.812355,30.7850211 L17.3221795,31.974878 L15.8316882,30.7850211 C15.5974276,30.5980566 15.2577181,30.5980566 15.0231417,30.7850211 L14.1647122,31.4705578 L14.1647122,9.46773524 C14.1647122,9.46561752 14.1640807,9.46380233 14.1640807,9.4616846 C14.1625022,8.66027833 13.8641513,7.92421889 13.3681628,7.35001386 L29.6357022,7.35001386 C30.854047,7.35001386 31.8457083,8.29996316 31.8457083,9.46773524 C31.8457083,9.46864283 31.846024,9.46955043 31.846024,9.47076055 L31.846024,31.4708603 L30.9872787,30.7850211 C30.7530181,30.5980566 30.4133086,30.5980566 30.1790479,30.7850211 Z M16.6034243,14.2499542 L16.6034243,15.5999467 L29.40799,15.5999467 L29.40799,14.2499542 L16.6034243,14.2499542 Z M16.6034243,17.3054927 L16.6034243,18.6554853 L29.40799,18.6554853 L29.40799,17.3054927 L16.6034243,17.3054927 Z M23.0057072,20.0554775 L23.0057072,21.40547 L29.40799,21.40547 L29.40799,20.0554775 L23.0057072,20.0554775 Z M16.6034243,11.4999694 L16.6034243,12.849962 L23.0099357,12.849962 L23.0099357,11.4999694 L16.6034243,11.4999694 Z M23.0057072,23.111016 L23.0057072,24.4610086 L29.40799,24.4610086 L29.40799,23.111016 L23.0057072,23.111016 Z M16.6034243,26.1665546 L16.6034243,27.5165472 L29.40799,27.5165472 L29.40799,26.1665546 L16.6034243,26.1665546 Z" id="receipt" fill="#FFFFFF"></path>
    </g>
</svg>