<?xml version="1.0" encoding="UTF-8"?>
<svg width="24px" height="24px" viewBox="0 0 24 24" version="1.1" xmlns="http://www.w3.org/2000/svg" xmlns:xlink="http://www.w3.org/1999/xlink">
    <!-- Generator: Sketch 51.2 (57519) - http://www.bohemiancoding.com/sketch -->
    <title>email</title>
    <desc>Created with Sketch.</desc>
    <defs></defs>
    <g id="email" stroke="none" stroke-width="1" fill="none" fill-rule="evenodd">
        <path d="M21.2631579,4 L2.73684211,4 C1.77926316,4 1,4.89733333 1,6 L1,18 C1,19.1026667 1.77926316,20 2.73684211,20 L21.2631579,20 C22.2207368,20 23,19.1026667 23,18 L23,6 C23,4.89733333 22.2207368,4 21.2631579,4 L21.2631579,4 Z M21.2631579,5.33333333 C21.2978947,5.33333333 21.3303158,5.33733333 21.3638947,5.344 L12.6426316,12.0386667 C12.3068421,12.296 11.6943158,12.296 11.3585263,12.0386667 L2.63726316,5.344 C2.66968421,5.33733333 2.70326316,5.33333333 2.738,5.33333333 L21.2643158,5.33333333 L21.2631579,5.33333333 Z M21.2631579,18.6666667 L2.73684211,18.6666667 C2.41726316,18.6666667 2.15789474,18.368 2.15789474,18 L2.15789474,6.57866667 L10.7158947,13.148 C11.076,13.424 11.538,13.5626667 12,13.5626667 C12.462,13.5626667 12.924,13.424 13.2841053,13.148 L21.8421053,6.57866667 L21.8421053,18 C21.8421053,18.368 21.5827368,18.6666667 21.2631579,18.6666667 L21.2631579,18.6666667 Z" id="mail" fill="#FFFFFF"></path>
    </g>
</svg>