<?xml version="1.0" encoding="UTF-8"?>
<svg width="193px" height="132px" viewBox="0 0 193 132" version="1.1" xmlns="http://www.w3.org/2000/svg" xmlns:xlink="http://www.w3.org/1999/xlink">
    <!-- Generator: Sketch 51.2 (57519) - http://www.bohemiancoding.com/sketch -->
    <title>Placeholder 2</title>
    <desc>Created with Sketch.</desc>
    <defs>
        <linearGradient x1="50.0019333%" y1="100%" x2="50.0019333%" y2="-0.00248366987%" id="linearGradient-1">
            <stop stop-color="#808080" stop-opacity="0.25" offset="0%"></stop>
            <stop stop-color="#808080" stop-opacity="0.12" offset="54%"></stop>
            <stop stop-color="#808080" stop-opacity="0.1" offset="100%"></stop>
        </linearGradient>
        <linearGradient x1="50.0197803%" y1="99.9899581%" x2="50.0197803%" y2="0.00209562802%" id="linearGradient-2">
            <stop stop-color="#808080" stop-opacity="0.25" offset="0%"></stop>
            <stop stop-color="#808080" stop-opacity="0.12" offset="54%"></stop>
            <stop stop-color="#808080" stop-opacity="0.1" offset="100%"></stop>
        </linearGradient>
    </defs>
    <g id="Placeholder-2" stroke="none" stroke-width="1" fill="none" fill-rule="evenodd">
        <g id="undraw_filing_system_b5d2">
            <path d="M18.820964,100.591048 C17.9968829,102.366482 19.1763369,104.282641 18.7671778,106.115907 C18.2504463,108.429177 15.2883648,110.229672 12.097692,111.378596 C8.90701918,112.52752 5.34368503,113.225357 2.23369151,114.462956 C0.889037108,114.996936 -0.513245334,115.982003 0.185974952,116.888034 C0.428012744,117.202253 0.881353369,117.422014 1.32508932,117.62828 C10.3842181,121.823009 21.5813473,124.10158 32.7688719,124.028327 C44.6018306,123.94929 56.1889096,121.329512 68.0122637,121.630237 C83.2606445,122.015782 98.0095823,127.232205 113.088921,125.72858 C119.489476,125.086648 125.432848,123.266875 131.666282,122.129518 C140.832983,120.45818 150.474155,120.290468 159.967415,119.741067 C167.096004,119.328533 175.242689,118.258646 178.648506,114.237412 C181.111145,111.330403 180.077682,107.490375 176.608474,105.02867 C173.139265,102.566966 167.597368,101.514428 162.478077,101.992504 C159.725377,102.248891 156.989966,102.913956 154.237266,102.649858 C152.639049,102.49564 151.163771,102.036842 149.705781,101.585754 C138.427973,98.0772947 126.744847,94.5765463 114.226114,94.067627 C93.8642049,93.2329221 74.99102,100.342371 55.1535258,103.417093 C52.0646625,103.895168 48.7107103,104.263364 45.7928102,103.46143 C42.7193145,102.615159 40.7023329,100.616108 37.6230743,99.7736925 C36.1612429,99.3727258 34.5322901,99.2570623 33.0954308,98.8213965 C29.1459888,97.6223516 30.9824025,95.9741468 25.5000544,97.0864441 C22.6359406,97.6724724 19.7430127,98.6112744 18.820964,100.591048 Z" id="Shape" fill="#EE2E24" fill-rule="nonzero" opacity="0.1"></path>
            <path d="M21.1325683,40 C21.1325683,40 31.7201544,50.7221804 25.7465988,66.6323886 C19.7730433,82.5425968 36,109 36,109 C36,109 35.8253124,108.975002 35.5044189,108.917315 C13.7482207,105.029178 2.9441739,79.8447454 15.0355922,61.1405401 C19.5299997,54.1776607 23.2212241,46.0187275 21.1325683,40 Z" id="Shape" fill="#EE2E24" fill-rule="nonzero"></path>
            <path d="M21.1325683,40 C21.1325683,40 31.7201544,50.7221804 25.7465988,66.6323886 C19.7730433,82.5425968 36,109 36,109 C36,109 35.8253124,108.975002 35.5044189,108.917315 C13.7482207,105.029178 2.9441739,79.8447454 15.0355922,61.1405401 C19.5299997,54.1776607 23.2212241,46.0187275 21.1325683,40 Z" id="Shape" fill="#000000" fill-rule="nonzero" opacity="0.1"></path>
            <path d="M20.5498457,40 C20.5498457,40 26.7662422,53.1431318 20.5498457,63.8653123 C14.3334493,74.5874927 19.4835007,104.677285 36,109" id="Shape" stroke="#535461"></path>
            <path d="M2,83.1345411 C2,83.1345411 14.2767378,81.1770026 15.3957866,92.1956448 C16.5148355,103.214287 39,104.742829 39,104.742829 C39,104.742829 38.853366,104.843315 38.5774626,105.023029 C20.0128279,117.226243 2.26432706,112.799076 4.93846796,96.5899613 C5.93403556,90.5588876 5.8510716,84.5104221 2,83.1345411 Z" id="Shape" fill="#EE2E24" fill-rule="nonzero"></path>
            <path d="M2,83.1345411 C2,83.1345411 14.2767378,81.1770026 15.3957866,92.1956448 C16.5148355,103.214287 39,104.742829 39,104.742829 C39,104.742829 38.853366,104.843315 38.5774626,105.023029 C20.0128279,117.226243 2.26432706,112.799076 4.93846796,96.5899613 C5.93403556,90.5588876 5.8510716,84.5104221 2,83.1345411 Z" id="Shape" fill="#F5F5F5" fill-rule="nonzero" opacity="0.2"></path>
            <path d="M2,83 C2,83 11.5292799,85.0422829 10.7459457,93.5034384 C9.96261146,101.964594 24.8961256,112.106299 39,104.067165" id="Shape" stroke="#535461"></path>
            <polygon id="Shape" fill="#EE2E24" fill-rule="nonzero" points="131 109 30 109 30 46 42.9166078 46 48.2306708 52.5549133 131 52.5549133"></polygon>
            <polygon id="Shape" fill="#000000" fill-rule="nonzero" opacity="0.1" points="131 109 30 109 30 46 42.9166078 46 48.2306708 52.5549133 131 52.5549133"></polygon>
            <rect id="Rectangle-path" fill="#F1F1F4" fill-rule="nonzero" transform="translate(84.000000, 63.500000) rotate(-19.885165) translate(-84.000000, -63.500000) " x="60" y="26" width="48" height="75"></rect>
            <rect id="Rectangle-path" fill="#FFFFFF" fill-rule="nonzero" transform="translate(64.000000, 39.500000) rotate(-19.885165) translate(-64.000000, -39.500000) " x="57" y="38" width="14" height="3"></rect>
            <rect id="Rectangle-path" fill="#FFFFFF" fill-rule="nonzero" transform="translate(77.000000, 44.500000) rotate(-19.650000) translate(-77.000000, -44.500000) " x="62" y="43" width="30" height="3"></rect>
            <rect id="Rectangle-path" fill="#FFFFFF" fill-rule="nonzero" transform="translate(79.000000, 50.500000) rotate(-19.650000) translate(-79.000000, -50.500000) " x="64" y="49" width="30" height="3"></rect>
            <rect id="Rectangle-path" fill="#FFFFFF" fill-rule="nonzero" transform="translate(81.000000, 56.500000) rotate(-19.650000) translate(-81.000000, -56.500000) " x="66" y="55" width="30" height="3"></rect>
            <rect id="Rectangle-path" fill="#FFFFFF" fill-rule="nonzero" transform="translate(83.000000, 62.500000) rotate(-19.650000) translate(-83.000000, -62.500000) " x="68" y="61" width="30" height="3"></rect>
            <rect id="Rectangle-path" fill="#FFFFFF" fill-rule="nonzero" transform="translate(85.000000, 68.500000) rotate(-19.650000) translate(-85.000000, -68.500000) " x="70" y="67" width="30" height="3"></rect>
            <rect id="Rectangle-path" fill="#FFFFFF" fill-rule="nonzero" transform="translate(87.000000, 74.500000) rotate(-19.650000) translate(-87.000000, -74.500000) " x="72" y="73" width="30" height="3"></rect>
            <rect id="Rectangle-path" fill="#FFFFFF" fill-rule="nonzero" transform="translate(104.000000, 83.000000) rotate(-19.650000) translate(-104.000000, -83.000000) " x="100" y="79" width="8" height="8"></rect>
            <rect id="Rectangle-path" fill="url(#linearGradient-1)" fill-rule="nonzero" transform="translate(60.000000, 65.000000) rotate(-59.280000) translate(-60.000000, -65.000000) " x="35" y="26" width="50" height="78"></rect>
            <rect id="Rectangle-path" fill="#F1F1F4" fill-rule="nonzero" transform="translate(60.000000, 64.500000) rotate(-59.280000) translate(-60.000000, -64.500000) " x="36" y="27" width="48" height="75"></rect>
            <rect id="Rectangle-path" fill="#FFFFFF" fill-rule="nonzero" transform="translate(29.000000, 59.500000) rotate(-59.280000) translate(-29.000000, -59.500000) " x="22" y="58" width="14" height="3"></rect>
            <rect id="Rectangle-path" fill="#FFFFFF" fill-rule="nonzero" transform="translate(42.000000, 54.500000) rotate(-59.280000) translate(-42.000000, -54.500000) " x="27" y="53" width="30" height="3"></rect>
            <rect id="Rectangle-path" fill="#FFFFFF" fill-rule="nonzero" transform="translate(48.000000, 57.500000) rotate(-59.280000) translate(-48.000000, -57.500000) " x="33" y="56" width="30" height="3"></rect>
            <rect id="Rectangle-path" fill="#FFFFFF" fill-rule="nonzero" transform="translate(53.000000, 61.500000) rotate(-59.331073) translate(-53.000000, -61.500000) " x="38" y="60" width="30" height="3"></rect>
            <rect id="Rectangle-path" fill="#FFFFFF" fill-rule="nonzero" transform="translate(58.000000, 64.500000) rotate(-59.280000) translate(-58.000000, -64.500000) " x="43" y="63" width="30" height="3"></rect>
            <rect id="Rectangle-path" fill="#FFFFFF" fill-rule="nonzero" transform="translate(64.000000, 67.500000) rotate(-59.280000) translate(-64.000000, -67.500000) " x="49" y="66" width="30" height="3"></rect>
            <rect id="Rectangle-path" fill="#FFFFFF" fill-rule="nonzero" transform="translate(69.000000, 70.500000) rotate(-59.280000) translate(-69.000000, -70.500000) " x="54" y="69" width="30" height="3"></rect>
            <rect id="Rectangle-path" fill="#FFFFFF" fill-rule="nonzero" transform="translate(87.000000, 67.000000) rotate(-59.331073) translate(-87.000000, -67.000000) " x="83" y="63" width="8" height="8"></rect>
            <path d="M183.995316,24.4399329 C183.995316,24.3450726 183.985761,24.254699 183.966651,24.168812 C183.94754,24.082925 183.930978,23.9835781 183.916964,23.8707712 C183.881291,23.6759231 183.840522,23.4874844 183.794656,23.3054552 C183.771724,23.2144407 183.748154,23.1253489 183.723948,23.03818 C183.449882,22.0281316 182.960093,21.0904107 182.288751,20.2904366 L182.174088,20.1596833 C182.097646,20.0750781 182.021841,19.9949597 181.946673,19.9193278 C181.871505,19.843696 181.797611,19.7738327 181.724992,19.7097379 C181.652372,19.6443612 181.581663,19.5847531 181.512865,19.5270677 C181.377181,19.4155428 181.249141,19.3213235 181.130656,19.2444098 C181.012171,19.167496 180.970128,19.1386534 180.903241,19.0982736 C180.739898,19.0009259 180.557161,18.9411699 180.368148,18.9232949 L179.189031,18.8079243 L177.595217,18.6502511 L171.841052,16.4139841 L171.613638,16.4947435 C171.445455,16.0307222 171.303179,15.5576059 171.187474,15.0776079 C171.361676,15.0019469 171.51702,14.8883318 171.642303,14.7449559 C171.77829,14.6392323 171.885996,14.5011258 171.955715,14.3430816 C172.100955,14.0085069 171.823853,13.2932091 171.879273,12.8855663 C171.971003,12.2298766 172.31117,11.5953383 172.588272,11.0011796 C173.180697,9.72441154 173.612594,8.34188705 173.543796,6.94013414 C173.474998,5.53838122 172.834797,4.11739986 171.651858,3.33287971 C171.040323,2.92715973 170.314125,2.70987841 169.68539,2.34069246 C169.190429,2.05226593 168.75471,1.67731145 168.282681,1.3523509 C165.918159,-0.221334777 162.90796,-0.436478012 160.346099,0.785112062 C159.149784,1.37542502 158.129284,2.25608735 156.999855,2.96177091 C155.870425,3.66745448 154.540336,4.21354204 153.219802,4.0039521 C153.201033,4.05694723 153.187588,4.11170129 153.17967,4.1673938 L153.068829,4.15393389 C152.841415,4.77501234 153.399441,5.38647658 153.913512,5.811425 C154.888147,6.61517358 155.994644,7.41892217 157.267401,7.44584198 C157.758541,7.45737904 158.278346,7.35354549 158.725531,7.55544406 C158.822528,7.60046229 158.913666,7.65729068 158.9969,7.72465429 C158.419609,10.0387015 159.189501,12.4824366 160.9863,14.0392724 L158.047109,12.9817084 C158.047109,12.9817084 157.924802,13.0451623 157.733697,13.1643786 L153.649788,10.4474007 C153.649788,10.4474007 145.46477,7.46507041 143.190623,12.0875862 C140.916476,16.710102 153.043986,14.3238532 153.043986,14.3238532 L155.639189,15.7506031 C155.553222,16.2866514 155.653802,16.8361257 155.923935,17.3061835 L162.994812,21.6787296 C161.565348,22.1190608 159.21667,22.8324357 158.790507,22.8324357 C158.184704,22.8324357 156.51636,23.4285172 155.455728,25.814766 C154.395096,28.2010148 150.605489,39.8342181 147.27071,41.7743672 C143.935932,43.7145163 135.143201,56.6879414 135.143201,56.6879414 L135.183333,56.7898521 C135.026627,56.8308728 134.873106,56.8763801 134.72277,56.926374 C132.523154,57.6416718 131.044003,59.1511039 130.151544,60.3721096 C129.849039,60.794537 129.792756,61.3470016 130.003796,61.8223942 C130.214835,62.2977868 130.661318,62.624297 131.175865,62.6795218 C134.646328,63.1179301 136.542088,61.5258157 137.453657,60.3105786 C137.5129,60.231742 137.56832,60.1548283 137.619919,60.0798374 C137.89143,60.1957873 138.195368,60.2094397 138.476068,60.1182942 L142.720505,56.6879414 C142.720505,56.6879414 139.399104,59.9567754 141.346462,62.93526 L141.199311,63.1410042 C137.915865,67.8223563 135.50391,73.0643345 134.080658,78.6122031 C134.080658,78.6122031 132.26134,79.9581936 132.110368,85.322927 C131.959395,90.6876603 130.140077,99.342379 130.140077,99.342379 C130.140077,99.342379 128.926562,109.633437 129.685248,112.76575 C129.685248,112.76575 129.773156,112.890734 129.933684,113.081096 C129.876353,113.148395 129.815199,113.221463 129.742579,113.296454 C129.081357,114.011752 127.886952,114.998171 126.493798,114.703976 C124.370624,114.255953 124.370624,117.984347 127.403457,118.28431 C129.356548,118.476595 133.192021,119.349566 135.678294,119.945647 C136.226463,120.086392 136.808415,119.95005 137.238408,119.580138 C137.668402,119.210226 137.892691,118.65298 137.839689,118.086258 C137.690627,116.749881 137.42117,115.13277 136.93003,113.980987 C136.899454,113.909841 136.868877,113.840619 136.836389,113.771397 C136.926208,113.688714 137.014116,113.602186 137.103936,113.50989 C137.103936,113.50989 137.103936,106.947225 138.164567,105.157058 C138.164567,105.157058 141.044516,91.5856283 140.893543,88.1552754 C140.775059,85.4632945 148.36383,75.0184086 151.668031,70.6035599 L151.641277,70.4362725 C152.48596,69.3094862 153.021053,68.6172625 153.021053,68.6172625 L155.597146,84.8729816 C155.597146,84.8729816 156.833594,88.4533162 158.349054,90.3876968 C158.349054,90.3876968 164.867639,102.766963 165.624414,106.643416 C166.197728,109.583444 167.382578,111.321694 167.917671,111.990844 C167.854606,112.054297 167.789631,112.117751 167.726566,112.183128 C167.036678,112.815743 166.018089,113.450282 164.859994,113.208004 C162.744464,112.758058 162.744464,116.486452 165.777297,116.784492 C167.730388,116.976777 171.565861,117.849748 174.052135,118.445829 C174.600303,118.586574 175.182255,118.450232 175.612249,118.08032 C176.042243,117.710408 176.266532,117.153163 176.21353,116.58644 C176.041535,115.034705 175.70328,113.10417 175.049702,111.971615 C174.994918,111.875473 174.937587,111.785099 174.877707,111.700494 C175.10841,111.607744 175.314503,111.462259 175.479687,111.275546 C175.479687,111.275546 171.535285,101.870918 171.535285,99.3346876 C171.535285,99.3346876 169.86694,89.6397106 164.259925,86.0670674 C164.259925,86.0670674 164.791197,73.9435391 166.386922,67.1943583 C166.426417,67.0277119 166.466549,66.8642702 166.507318,66.7040333 C167.942515,66.4790606 169.417844,66.1771741 170.929482,65.7829912 L171.080455,61.3085344 L171.844874,64.888869 L180.326105,59.6645032 C180.326105,59.6645032 180.251574,58.7242327 180.108245,57.2821001 C180.035625,56.5610337 179.947717,55.7149826 179.840698,54.7977862 C179.756612,54.06326 179.659149,53.2845084 179.554041,52.490374 C179.527287,52.2916802 179.499895,52.0917045 179.471866,51.8904469 C179.361025,51.0866983 179.238718,50.2733355 179.106856,49.4772783 C179.057169,49.1785966 179.006208,48.8831196 178.953972,48.5908474 C178.885175,48.2062787 178.812555,47.82171 178.738024,47.4486783 C178.701077,47.2628035 178.662856,47.0794924 178.623361,46.8987451 C178.583866,46.7179978 178.544371,46.5410962 178.504876,46.3680403 C178.465381,46.1949844 178.425249,46.0251332 178.38448,45.8584868 L178.323326,45.6123628 C178.281283,45.4508439 178.23924,45.2931708 178.197197,45.1393433 C178.019219,44.5017974 177.915958,43.8454953 177.889519,43.1838114 C177.879326,42.9274323 177.879326,42.6646437 177.889519,42.3954456 C177.899711,42.1262475 177.925192,41.8647408 177.965961,41.6109255 C177.983797,41.4827359 178.005456,41.3545463 178.030936,41.2263568 C178.128655,40.7067954 178.272562,40.1971166 178.460922,39.7034647 C178.5552,39.4560588 178.660945,39.2118577 178.778156,38.9708613 C179.053347,38.4074682 179.35147,37.7960039 179.649594,37.1518514 C179.801203,36.8300955 179.954087,36.5012893 180.108245,36.1654326 C180.262403,35.829576 180.417835,35.4885917 180.574541,35.1424799 C182.04987,31.8544175 183.506088,28.1894778 183.895942,25.7840005 C183.936074,25.5301852 183.966651,25.2917526 183.981939,25.0667799 C184.000105,24.8583549 184.004574,24.6489504 183.995316,24.4399329 Z" id="Shape" fill="url(#linearGradient-2)" fill-rule="nonzero"></path>
            <path d="M158,15.573646 L153.137032,11.9893394 C153.137032,11.9893394 145.413166,8.8728153 143.267958,13.7025165 C141.12275,18.5322176 152.562622,16.0394033 152.562622,16.0394033 L157.42559,19 L158,15.573646 Z" id="Shape" fill="#F7BBC3" fill-rule="nonzero"></path>
            <rect id="Rectangle-path" fill="#F1F1F4" fill-rule="nonzero" transform="translate(148.000000, 41.500000) rotate(-57.570000) translate(-148.000000, -41.500000) " x="124" y="4" width="48" height="75"></rect>
            <rect id="Rectangle-path" fill="#FFFFFF" fill-rule="nonzero" transform="translate(119.000000, 35.500000) rotate(-57.570000) translate(-119.000000, -35.500000) " x="112" y="34" width="14" height="3"></rect>
            <rect id="Rectangle-path" fill="#FFFFFF" fill-rule="nonzero" transform="translate(132.000000, 30.500000) rotate(-57.570000) translate(-132.000000, -30.500000) " x="117" y="29" width="30" height="3"></rect>
            <rect id="Rectangle-path" fill="#FFFFFF" fill-rule="nonzero" transform="translate(137.000000, 34.500000) rotate(-57.570000) translate(-137.000000, -34.500000) " x="122" y="33" width="30" height="3"></rect>
            <rect id="Rectangle-path" fill="#FFFFFF" fill-rule="nonzero" transform="translate(142.000000, 37.500000) rotate(-57.570000) translate(-142.000000, -37.500000) " x="127" y="36" width="30" height="3"></rect>
            <rect id="Rectangle-path" fill="#FFFFFF" fill-rule="nonzero" transform="translate(148.000000, 41.500000) rotate(-57.264774) translate(-148.000000, -41.500000) " x="133" y="40" width="30" height="3"></rect>
            <rect id="Rectangle-path" fill="#FFFFFF" fill-rule="nonzero" transform="translate(152.000000, 44.500000) rotate(-57.570000) translate(-152.000000, -44.500000) " x="137" y="43" width="30" height="3"></rect>
            <rect id="Rectangle-path" fill="#FFFFFF" fill-rule="nonzero" transform="translate(158.000000, 48.500000) rotate(-57.264774) translate(-158.000000, -48.500000) " x="143" y="47" width="30" height="3"></rect>
            <rect id="Rectangle-path" fill="#FFFFFF" fill-rule="nonzero" transform="translate(176.000000, 44.000000) rotate(-57.570000) translate(-176.000000, -44.000000) " x="172" y="40" width="8" height="8"></rect>
            <path d="M172.971151,118.948913 C170.649322,118.339362 167.067229,117.448784 165.243986,117.252857 C162.412532,116.948082 162.412532,113.142345 164.393998,113.599508 C165.468442,113.846891 166.417779,113.203696 167.063549,112.552585 C167.261066,112.35009 167.446055,112.13391 167.617329,111.905431 C167.85319,111.601905 168.177265,111.392742 168.53723,111.311713 C169.598795,111.062351 171.808396,110.686329 173.168009,111.473996 C173.48277,111.682887 173.737515,111.981577 173.90393,112.336867 C174.514744,113.502534 174.82383,115.471701 174.991252,117.05693 C175.046227,117.627188 174.839749,118.190547 174.437785,118.567018 C174.035821,118.943489 173.488673,119.08596 172.971151,118.948913 Z" id="Shape" fill="#B77983" fill-rule="nonzero"></path>
            <path d="M135.967682,119.947783 C133.646661,119.338015 130.065814,118.44712 128.243205,118.251123 C125.412736,117.946239 125.412736,114.139148 127.393513,114.596474 C128.680926,114.897399 129.804653,113.887718 130.420772,113.159164 C130.496178,113.070074 130.564227,112.984944 130.62308,112.905754 C130.858859,112.602119 131.18282,112.392882 131.54266,112.311824 C132.603856,112.062373 134.812689,111.686217 136.171829,112.474164 C136.569088,112.705797 136.887262,113.212617 137.141067,113.860001 C137.599018,115.035982 137.850983,116.687107 137.990759,118.051166 C138.047418,118.623163 137.841126,119.188918 137.438145,119.566709 C137.035164,119.9445 136.486237,120.086756 135.967682,119.947783 Z" id="Shape" fill="#B77983" fill-rule="nonzero"></path>
            <path d="M137,114.133037 C133.477951,118.435451 130.458231,114.053489 130,113.330738 C130.078609,113.228462 130.149548,113.130731 130.210901,113.039819 C130.456695,112.691242 130.794418,112.451034 131.169543,112.357978 C132.275815,112.071605 134.578472,111.639773 135.995344,112.544348 C136.403725,112.798902 136.735415,113.380739 137,114.133037 Z" id="Shape" fill="#000000" fill-rule="nonzero" opacity="0.1"></path>
            <path d="M175,112.225966 C173.493409,113.21767 168.455744,112.97339 168.455744,112.97339 C168.290246,112.802101 168.137924,112.619315 168,112.426495 C168.202055,112.241142 168.391409,112.043233 168.566855,111.834025 C168.808285,111.554436 169.14001,111.361769 169.508475,111.28713 C170.595104,111.057434 172.856874,110.711067 174.248588,111.436614 C174.569308,111.627804 174.829319,111.900942 175,112.225966 Z" id="Shape" fill="#000000" fill-rule="nonzero" opacity="0.1"></path>
            <path d="M175,112.149727 C173.958369,113.49207 168.011986,113.19528 168.011986,113.19528 C168.011986,113.19528 166.228265,111.404842 165.484243,107.523297 C164.74022,103.641751 158.347425,91.2561087 158.347425,91.2561087 C156.861312,89.3163057 155.670876,85.7334896 155.670876,85.7334896 L153.143132,69.4663017 C153.143132,69.4663017 140.950827,85.5841247 141.099631,89.017576 C141.248436,92.4510273 138.423083,106.027708 138.423083,106.027708 C137.381451,107.818147 137.381451,114.38438 137.381451,114.38438 C133.5164,118.413351 130.244633,113.637556 130.244633,113.637556 C129.500611,110.502834 130.691047,100.20636 130.691047,100.20636 C130.691047,100.20636 132.474768,91.5509587 132.623573,86.1777044 C132.772377,80.8044502 134.556098,79.4621065 134.556098,79.4621065 C135.945015,73.9248946 138.309673,68.6817708 141.538314,63.9805389 C142.436939,62.6886301 143.030224,62 143.030224,62 L167.117227,64.835992 C166.730722,65.6119132 166.3848,66.7234203 166.081393,68.0386067 C164.516047,74.7910609 163.996198,86.9245286 163.996198,86.9245286 C169.498099,90.5092845 171.133016,100.208299 171.133016,100.208299 C171.133016,102.745562 175,112.149727 175,112.149727 Z" id="Shape" fill="#8499F0" fill-rule="nonzero"></path>
            <g id="Group" opacity="0.05" transform="translate(133.000000, 62.000000)" fill="#000000" fill-rule="nonzero">
                <path d="M18.058894,9.43741935 L17.7565899,7.45354839 C17.7565899,7.45354839 5.83635945,23.5354839 5.98184332,26.9612903 C6.12732719,30.3870968 3.36691244,43.9354839 3.36691244,43.9354839 C2.34852535,45.7219355 2.34852535,52.2735484 2.34852535,52.2735484 C1.55686636,53.1154839 0.789769585,53.5722581 0.0812442396,53.7677419 C1.2262212,54.0754839 2.61870968,53.8509677 4.1018894,52.2735484 C4.1018894,52.2735484 4.1018894,45.7219355 5.1202765,43.9354839 C5.1202765,43.9354839 7.88258065,30.3870968 7.73709677,26.9593548 C7.61428571,24.2806452 14.8922581,13.8464516 18.058894,9.43741935 Z" id="Shape"></path>
                <path d="M37.0908295,38.1290323 C37.0908295,38.1290323 35.4923963,28.4516129 30.1132719,24.8767742 C30.1132719,24.8767742 30.6215207,12.7722581 32.1519355,6.03290323 C32.4504608,4.72064516 32.7848848,3.61354839 33.1646544,2.83741935 L9.61705069,0 C9.61705069,0 9.56225806,0.0658064516 9.46211982,0.193548387 L31.4226267,2.8316129 C31.0447465,3.60580645 30.7065438,4.71483871 30.4099078,6.02709677 C28.8794931,12.7645161 28.3712442,24.8709677 28.3712442,24.8709677 C33.7484793,28.4516129 35.3469124,38.1290323 35.3469124,38.1290323 C35.3469124,40.6606452 39.1257143,50.0419355 39.1257143,50.0419355 C38.5267742,50.8316129 36.2594931,51.0522581 34.4985714,51.1006452 C35.8948387,51.1374194 40.0269585,51.1509677 40.8696313,50.0419355 C40.8715207,50.043871 37.0908295,40.6606452 37.0908295,38.1290323 Z" id="Shape"></path>
            </g>
            <path d="M138,59.4485381 C137.823287,59.8744201 137.590165,60.2753824 137.306706,60.6409836 C136.427267,61.8072216 134.60001,63.3515977 131.253205,62.9285322 C130.752648,62.8646427 130.322734,62.5467674 130.120487,62.0910082 C129.91824,61.635249 129.973278,61.1083503 130.265498,60.7027587 C131.124043,59.5234169 132.544821,58.0651515 134.672189,57.3743942 C135.276448,57.1763096 135.902699,57.0506079 136.537435,57 L138,59.4485381 Z" id="Shape" fill="#F7BBC3" fill-rule="nonzero"></path>
            <path d="M170,18.5132478 L158.339465,14 C158.339465,14 154.994385,15.8456924 156.304069,18.4612565 L167.643325,26 L170,18.5132478 Z" id="Shape" fill="#D39999" fill-rule="nonzero"></path>
            <path d="M170,18.5132478 L158.339465,14 C158.339465,14 154.994385,15.8456924 156.304069,18.4612565 L167.643325,26 L170,18.5132478 Z" id="Shape" fill="#000000" fill-rule="nonzero" opacity="0.1"></path>
            <path d="M170.472274,11.3071434 C170.472274,11.3071434 170.321682,18.6207873 173.482151,21.1105815 C176.64262,23.6003757 164.303883,25 164.303883,25 C164.303883,25 166.259619,17.5306175 164.303883,13.641199 C162.348148,9.75178053 170.472274,11.3071434 170.472274,11.3071434 Z" id="Shape" fill="#F7BBC3" fill-rule="nonzero"></path>
            <path d="M166,65.0425989 C165.622242,65.8750473 165.284149,67.0675297 164.98761,68.4785297 C150.933137,70.8426832 141.151103,64.4016137 141.151103,64.4016137 C141.098217,64.3079632 141.04722,64.2163939 141,64.1248246 C141.878286,62.738798 142.458144,62 142.458144,62 L166,65.0425989 Z" id="Shape" fill="#000000" fill-rule="nonzero" opacity="0.1"></path>
            <path d="M139,59.6906475 C138.787592,60.1582828 138.507382,60.5985554 138.166667,61 C136.541096,60.7574512 135.239726,57.9578623 135,57.4110997 C135.726314,57.1935949 136.479062,57.0555695 137.242009,57 L139,59.6906475 Z" id="Shape" fill="#000000" fill-rule="nonzero" opacity="0.1"></path>
            <path d="M172.037454,17 L166.676063,18.9070883 L164.442472,21.8420973 C164.442472,21.8420973 159.826256,23.3086482 159.230116,23.3086482 C158.633976,23.3086482 156.996525,23.8960314 155.95328,26.2436571 C154.910034,28.5912829 151.189964,40.0319058 147.913128,41.9389941 C144.636292,43.8460824 136,56.6235742 136,56.6235742 C136,56.6235742 137.488415,60.5845967 139.276836,59.9991206 L143.445947,56.6235742 C143.445947,56.6235742 140.169111,59.8522748 142.106567,62.7853766 C142.106567,62.7853766 154.317765,69.9750996 171.139373,65.5735398 L171.288408,61.1719799 L172.033583,64.692465 L180.385354,59.5509548 C180.385354,59.5509548 179.638243,50.0803542 178.293056,45.2592349 C177.737346,43.2323923 177.943556,41.0759647 178.873712,39.1870656 C181.035689,34.747364 184.372526,27.3326046 183.966067,24.6283533 C183.486058,21.4416087 181.658926,20.0513413 180.962139,19.6394102 C180.802563,19.5441842 180.623301,19.4855252 180.437613,19.4677723 L177.7124,19.1988728 L172.037454,17 Z" id="Shape" fill="#D39999" fill-rule="nonzero"></path>
            <path d="M162,32 C162,32 159.119476,46.0273744 155.952584,48.2897909 C152.785692,50.5522074 144.28824,57.7923323 144,59" id="Shape" fill="#000000" fill-rule="nonzero" opacity="0.05"></path>
            <path d="M161,32 C161,32 158.119476,46.0243194 154.952584,48.2862432 C151.785692,50.548167 143.28824,57.7867151 143,59" id="Shape" fill="#D39999" fill-rule="nonzero"></path>
            <path d="M164,23 C164,23 174.079889,19.1658518 177,20.1666294" id="Shape" fill="#000000" fill-rule="nonzero" opacity="0.1"></path>
            <g id="Group" opacity="0.05" transform="translate(171.000000, 17.000000)" fill="#000000" fill-rule="nonzero">
                <path d="M7.032,22.7586454 C9.09415385,18.2139442 12.2769231,10.6238247 11.8892308,7.85561753 C11.4313846,4.59350598 9.68861538,3.17035857 9.024,2.74868526 C8.87179221,2.65120711 8.70080708,2.59116084 8.52369231,2.57298805 L7.416,2.45585657 C7.5317742,2.48534828 7.64259639,2.53340831 7.74461538,2.59836653 C8.40923077,3.02784861 10.1446154,4.44318725 10.6098462,7.7052988 C10.9975385,10.4715538 7.81476923,18.0636255 5.75261538,22.6083267 C4.86540599,24.5418985 4.66871695,26.7493259 5.19876923,28.8241036 C6.49107692,33.759243 7.19446154,43.4538247 7.19446154,43.4538247 L0.345230769,47.9809562 L0.518769231,48.8613944 L8.48861538,43.6021912 C8.48861538,43.6021912 7.776,33.9076096 6.49292308,28.9724701 C5.95874867,26.900166 6.15017905,24.6935889 7.032,22.7586454 Z" id="Shape"></path>
                <polygon id="Shape" points="4.64492308 2.14936255 5.87630769 2.27820717 0.526153846 0.0449003984 0.0461538462 0.228406375"></polygon>
            </g>
            <path d="M161,46 C161,46 165.579764,43.5710306 167.056425,44.1429898 C168.533087,44.7149489 174,44 174,44" id="Shape" fill="#000000" fill-rule="nonzero" opacity="0.05"></path>
            <path d="M170.431056,12.6128663 C170.244932,11.0697645 171,11.3039317 171,11.3039317 C171,11.3039317 162.212028,9.76483276 164.329179,13.6135809 C164.857938,14.5782697 165.122317,15.7631157 165.221724,16.9999988 L165.30421,16.9999988 C167.761881,17.0020003 169.1853,14.4181553 170.431056,12.6128663 Z" id="Shape" fill="#000000" fill-rule="nonzero" opacity="0.05"></path>
            <ellipse id="Oval" fill="#F7BBC3" fill-rule="nonzero" cx="165" cy="10.5" rx="6" ry="6.5"></ellipse>
            <path d="M172.058762,11.9240161 C172.638504,10.6584473 173.063648,9.28517057 172.992147,7.88496681 C172.920645,6.48476305 172.296456,5.08263593 171.136971,4.30559978 C170.537904,3.9036182 169.830618,3.68820224 169.204496,3.32276444 C168.719445,3.03618428 168.290436,2.66497641 167.828574,2.34185247 C165.522104,0.781380107 162.553652,0.566471267 160.044566,1.77830892 C158.871554,2.35531596 157.870532,3.23813674 156.759359,3.93823862 C155.648186,4.63834051 154.34763,5.17880377 153.05094,4.97108124 C152.828705,5.58655542 153.375595,6.19433617 153.879971,6.61555131 C154.836546,7.41374439 155.920665,8.21001411 157.165178,8.23694111 C157.648297,8.24848125 158.156538,8.14461998 158.59521,8.34657245 C158.890746,8.50843564 159.141639,8.74030794 159.325685,9.02167069 C159.926388,9.81555872 160.435265,10.6743094 160.842678,11.5816586 C161.008871,11.9528665 161.178929,12.3510013 161.522909,12.5760341 C162.102652,12.9414719 162.842789,12.6375815 163.52302,12.6106545 C164.582017,12.570264 165.532794,13.2318988 166.317379,13.9435408 C167.101964,14.6551828 167.845967,15.4629927 168.829596,15.8380472 C169.567802,16.116934 171.044212,16.1073172 171.421045,15.2283431 C171.562116,14.8975258 171.291569,14.1878071 171.347611,13.7819788 C171.451965,13.141501 171.788215,12.5144867 172.058762,11.9240161 Z" id="Shape" fill="#000000" fill-rule="nonzero" opacity="0.1"></path>
            <path d="M172.058762,11.9240161 C172.638504,10.6584473 173.063648,9.28517057 172.992147,7.88496681 C172.920645,6.48476305 172.296456,5.08263593 171.136971,4.30559978 C170.537904,3.9036182 169.830618,3.68820224 169.204496,3.32276444 C168.719445,3.03618428 168.290436,2.66497641 167.828574,2.34185247 C165.522104,0.781380107 162.553652,0.566471267 160.044566,1.77830892 C158.871554,2.35531596 157.870532,3.23813674 156.759359,3.93823862 C155.648186,4.63834051 154.34763,5.17880377 153.05094,4.97108124 C152.828705,5.58655542 153.375595,6.19433617 153.879971,6.61555131 C154.836546,7.41374439 155.920665,8.21001411 157.165178,8.23694111 C157.648297,8.24848125 158.156538,8.14461998 158.59521,8.34657245 C158.890746,8.50843564 159.141639,8.74030794 159.325685,9.02167069 C159.926388,9.81555872 160.435265,10.6743094 160.842678,11.5816586 C161.008871,11.9528665 161.178929,12.3510013 161.522909,12.5760341 C162.102652,12.9414719 162.842789,12.6375815 163.52302,12.6106545 C164.582017,12.570264 165.532794,13.2318988 166.317379,13.9435408 C167.101964,14.6551828 167.845967,15.4629927 168.829596,15.8380472 C169.567802,16.116934 171.044212,16.1073172 171.421045,15.2283431 C171.562116,14.8975258 171.291569,14.1878071 171.347611,13.7819788 C171.451965,13.1434243 171.788215,12.5144867 172.058762,11.9240161 Z" id="Shape" fill="#9B6C7A" fill-rule="nonzero"></path>
            <polygon id="Shape" fill="#EE2E24" fill-rule="nonzero" points="131 112 30 112 30 49 42.9166078 49 48.2306708 55.5549133 131 55.5549133"></polygon>
            <path d="M35,118.449809 C35,118.449809 30.6688384,117.544014 29.5136062,116.334949 C28.3583739,115.125884 23.1617476,113.011024 22.5841315,114.527377 C22.0065153,116.043729 14.7891921,121.175226 19.7056457,122.083029 C24.6220994,122.990832 31.2541305,123.288077 32.6991304,122.685553 C34.1441302,122.083029 35,118.449809 35,118.449809 Z" id="Shape" fill="#A8A8A8" fill-rule="nonzero"></path>
            <path d="M19.6941034,120.709302 C24.6041214,121.501197 31.2455062,121.762822 32.6908711,121.236062 C33.7907305,120.833968 34.5546817,118.900759 34.8560393,118 L35,118.028094 C35,118.028094 34.1343166,121.199188 32.6966296,121.725948 C31.2589425,122.252708 24.6098798,121.989328 19.6998618,121.199188 C18.283289,120.970926 17.8782797,120.433631 18.0299183,119.752355 C18.1450868,120.198345 18.638392,120.538983 19.6941034,120.709302 Z" id="Shape" fill="#000000" fill-rule="nonzero" opacity="0.2"></path>
            <path d="M125,125.432872 C125,125.432872 118.379582,124.122459 116.612471,122.37651 C114.84536,120.630561 106.902012,117.574199 106.019418,119.757586 C105.136824,121.940974 94.0976667,129.362208 101.596833,130.672621 C109.095999,131.983034 119.252562,132.41857 121.460009,131.545596 C123.667456,130.672621 125,125.432872 125,125.432872 Z" id="Shape" fill="#A8A8A8" fill-rule="nonzero"></path>
            <path d="M101.602401,129.734776 C109.102248,131.121792 119.259733,131.582788 121.46738,130.658782 C123.148115,129.954202 124.317322,126.572219 124.778851,125 L125,125.048314 C125,125.048314 123.675027,130.586311 121.463534,131.516356 C119.252041,132.446402 109.102248,131.979366 101.598555,130.59235 C99.431292,130.189733 98.8120739,129.251636 99.0466844,128.063915 C99.2351421,128.838953 99.9889729,129.436839 101.602401,129.734776 Z" id="Shape" fill="#000000" fill-rule="nonzero" opacity="0.2"></path>
            <rect id="Rectangle-path" fill="#000000" fill-rule="nonzero" opacity="0.1" x="67" y="78" width="22" height="4"></rect>
        </g>
    </g>
</svg>