<?xml version="1.0" encoding="UTF-8"?>
<svg width="173px" height="148px" viewBox="0 0 173 148" version="1.1" xmlns="http://www.w3.org/2000/svg" xmlns:xlink="http://www.w3.org/1999/xlink">
    <!-- Generator: Sketch 51.2 (57519) - http://www.bohemiancoding.com/sketch -->
    <title>Placeholder3</title>
    <desc>Created with Sketch.</desc>
    <defs>
        <linearGradient x1="0%" y1="50.0040627%" x2="100%" y2="50.0040627%" id="linearGradient-1">
            <stop stop-color="#808080" stop-opacity="0.25" offset="0%"></stop>
            <stop stop-color="#808080" stop-opacity="0.12" offset="54%"></stop>
            <stop stop-color="#808080" stop-opacity="0.1" offset="100%"></stop>
        </linearGradient>
        <linearGradient x1="50%" y1="100%" x2="50%" y2="0%" id="linearGradient-2">
            <stop stop-color="#808080" stop-opacity="0.25" offset="0%"></stop>
            <stop stop-color="#808080" stop-opacity="0.12" offset="54%"></stop>
            <stop stop-color="#808080" stop-opacity="0.1" offset="100%"></stop>
        </linearGradient>
        <linearGradient x1="50.001378%" y1="100.002492%" x2="50.001378%" y2="0.00249183923%" id="linearGradient-3">
            <stop stop-color="#808080" stop-opacity="0.25" offset="0%"></stop>
            <stop stop-color="#808080" stop-opacity="0.12" offset="54%"></stop>
            <stop stop-color="#808080" stop-opacity="0.1" offset="100%"></stop>
        </linearGradient>
        <linearGradient x1="50.0279174%" y1="100%" x2="50.0279174%" y2="0%" id="linearGradient-4">
            <stop stop-color="#808080" stop-opacity="0.25" offset="0%"></stop>
            <stop stop-color="#808080" stop-opacity="0.12" offset="54%"></stop>
            <stop stop-color="#808080" stop-opacity="0.1" offset="100%"></stop>
        </linearGradient>
        <linearGradient x1="50.0088863%" y1="100.002908%" x2="50.0088863%" y2="-0.0145048606%" id="linearGradient-5">
            <stop stop-color="#808080" stop-opacity="0.25" offset="0%"></stop>
            <stop stop-color="#808080" stop-opacity="0.12" offset="54%"></stop>
            <stop stop-color="#808080" stop-opacity="0.1" offset="100%"></stop>
        </linearGradient>
        <linearGradient x1="49.9754541%" y1="100.002674%" x2="49.9754541%" y2="0%" id="linearGradient-6">
            <stop stop-color="#808080" stop-opacity="0.25" offset="0%"></stop>
            <stop stop-color="#808080" stop-opacity="0.12" offset="54%"></stop>
            <stop stop-color="#808080" stop-opacity="0.1" offset="100%"></stop>
        </linearGradient>
        <linearGradient x1="49.9926438%" y1="100%" x2="49.9926438%" y2="0%" id="linearGradient-7">
            <stop stop-color="#808080" stop-opacity="0.25" offset="0%"></stop>
            <stop stop-color="#808080" stop-opacity="0.12" offset="54%"></stop>
            <stop stop-color="#808080" stop-opacity="0.1" offset="100%"></stop>
        </linearGradient>
        <linearGradient x1="49.9951518%" y1="100%" x2="49.9951518%" y2="0%" id="linearGradient-8">
            <stop stop-color="#808080" stop-opacity="0.25" offset="0%"></stop>
            <stop stop-color="#808080" stop-opacity="0.12" offset="54%"></stop>
            <stop stop-color="#808080" stop-opacity="0.1" offset="100%"></stop>
        </linearGradient>
        <linearGradient x1="49.9992331%" y1="100%" x2="49.9992331%" y2="0%" id="linearGradient-9">
            <stop stop-color="#808080" stop-opacity="0.25" offset="0%"></stop>
            <stop stop-color="#808080" stop-opacity="0.12" offset="54%"></stop>
            <stop stop-color="#808080" stop-opacity="0.1" offset="100%"></stop>
        </linearGradient>
        <linearGradient x1="49.9960333%" y1="100%" x2="49.9960333%" y2="0%" id="linearGradient-10">
            <stop stop-color="#808080" stop-opacity="0.25" offset="0%"></stop>
            <stop stop-color="#808080" stop-opacity="0.12" offset="54%"></stop>
            <stop stop-color="#808080" stop-opacity="0.1" offset="100%"></stop>
        </linearGradient>
        <linearGradient x1="50.0032652%" y1="100%" x2="50.0032652%" y2="0%" id="linearGradient-11">
            <stop stop-color="#808080" stop-opacity="0.25" offset="0%"></stop>
            <stop stop-color="#808080" stop-opacity="0.12" offset="54%"></stop>
            <stop stop-color="#808080" stop-opacity="0.1" offset="100%"></stop>
        </linearGradient>
        <linearGradient x1="50.0085213%" y1="99.9783815%" x2="50.0085213%" y2="0%" id="linearGradient-12">
            <stop stop-color="#808080" stop-opacity="0.25" offset="0%"></stop>
            <stop stop-color="#808080" stop-opacity="0.12" offset="54%"></stop>
            <stop stop-color="#808080" stop-opacity="0.1" offset="100%"></stop>
        </linearGradient>
        <linearGradient x1="49.9710927%" y1="99.9740787%" x2="49.9710927%" y2="0.000868303498%" id="linearGradient-13">
            <stop stop-color="#808080" stop-opacity="0.25" offset="0%"></stop>
            <stop stop-color="#808080" stop-opacity="0.12" offset="54%"></stop>
            <stop stop-color="#808080" stop-opacity="0.1" offset="100%"></stop>
        </linearGradient>
        <linearGradient x1="49.9467519%" y1="100.005802%" x2="49.9467519%" y2="6.59589451e-14%" id="linearGradient-14">
            <stop stop-color="#808080" stop-opacity="0.25" offset="0%"></stop>
            <stop stop-color="#808080" stop-opacity="0.12" offset="54%"></stop>
            <stop stop-color="#808080" stop-opacity="0.1" offset="100%"></stop>
        </linearGradient>
        <linearGradient x1="49.9889698%" y1="100%" x2="49.9889698%" y2="-2.0301221e-14%" id="linearGradient-15">
            <stop stop-color="#808080" stop-opacity="0.25" offset="0%"></stop>
            <stop stop-color="#808080" stop-opacity="0.12" offset="54%"></stop>
            <stop stop-color="#808080" stop-opacity="0.1" offset="100%"></stop>
        </linearGradient>
        <linearGradient x1="50%" y1="99.9795459%" x2="50%" y2="0%" id="linearGradient-16">
            <stop stop-color="#808080" stop-opacity="0.25" offset="0%"></stop>
            <stop stop-color="#808080" stop-opacity="0.12" offset="54%"></stop>
            <stop stop-color="#808080" stop-opacity="0.1" offset="100%"></stop>
        </linearGradient>
        <linearGradient x1="-8.28331471e-15%" y1="50.0085881%" x2="99.9941711%" y2="50.0085881%" id="linearGradient-17">
            <stop stop-color="#808080" stop-opacity="0.25" offset="0%"></stop>
            <stop stop-color="#808080" stop-opacity="0.12" offset="54%"></stop>
            <stop stop-color="#808080" stop-opacity="0.1" offset="100%"></stop>
        </linearGradient>
        <linearGradient x1="49.993688%" y1="99.9999966%" x2="49.993688%" y2="0.00604520347%" id="linearGradient-18">
            <stop stop-color="#808080" stop-opacity="0.25" offset="0%"></stop>
            <stop stop-color="#808080" stop-opacity="0.12" offset="54%"></stop>
            <stop stop-color="#808080" stop-opacity="0.1" offset="100%"></stop>
        </linearGradient>
        <linearGradient x1="50.0665779%" y1="100%" x2="50.0665779%" y2="0%" id="linearGradient-19">
            <stop stop-color="#808080" stop-opacity="0.25" offset="0%"></stop>
            <stop stop-color="#808080" stop-opacity="0.12" offset="54%"></stop>
            <stop stop-color="#808080" stop-opacity="0.1" offset="100%"></stop>
        </linearGradient>
        <linearGradient x1="49.9964677%" y1="99.9999792%" x2="49.9964677%" y2="0.0362095195%" id="linearGradient-20">
            <stop stop-color="#808080" stop-opacity="0.25" offset="0%"></stop>
            <stop stop-color="#808080" stop-opacity="0.12" offset="54%"></stop>
            <stop stop-color="#808080" stop-opacity="0.1" offset="100%"></stop>
        </linearGradient>
        <linearGradient x1="49.882904%" y1="100%" x2="49.882904%" y2="0%" id="linearGradient-21">
            <stop stop-color="#808080" stop-opacity="0.25" offset="0%"></stop>
            <stop stop-color="#808080" stop-opacity="0.12" offset="54%"></stop>
            <stop stop-color="#808080" stop-opacity="0.1" offset="100%"></stop>
        </linearGradient>
    </defs>
    <g id="Placeholder3" stroke="none" stroke-width="1" fill="none" fill-rule="evenodd">
        <g id="undraw_for_sale_viax">
            <polygon id="Shape" fill="url(#linearGradient-1)" fill-rule="nonzero" points="138 47.9487284 138 35 150 35 150 59"></polygon>
            <polygon id="Shape" fill="#EE2E24" fill-rule="nonzero" points="140 48.5926229 140 37 148 37 148 59"></polygon>
            <circle id="Oval" fill="url(#linearGradient-2)" fill-rule="nonzero" cx="160" cy="11" r="11"></circle>
            <circle id="Oval" fill="#FF9800" fill-rule="nonzero" cx="159.5" cy="10.5" r="8.5"></circle>
            <g id="f741385e-e577-4271-b030-1aa9bd75830a" transform="translate(0.000000, 19.000000)" fill="url(#linearGradient-3)" fill-rule="nonzero">
                <path d="M67.8505222,40.7714677 C71.0675164,37.0787897 72.5312184,32.1678163 71.8629952,27.3089263 C71.194772,22.4500363 68.4602649,18.1205307 64.3668407,15.4403731 C65.4127398,13.8154357 65.9677001,11.9214647 65.964752,9.98701493 C65.964752,4.51597015 61.6429504,0.0805721393 56.3126632,0.0805721393 C51.9223238,0.0805721393 48.2212794,3.09318408 47.0522193,7.21218905 C44.5319843,2.93793532 39.95953,0.0805721393 34.7369452,0.0805721393 C26.7924282,0.0805721393 20.3537859,6.68945274 20.3537859,14.8429602 C20.3519511,16.5798609 20.6500969,18.3039401 21.2349869,19.9386567 C20.9432115,19.9150746 20.6475196,19.8934577 20.3537859,19.8934577 C13.9778068,19.8934577 8.8002611,25.1994279 8.8002611,31.7434577 C8.8002611,32.1463184 8.81984334,32.5452488 8.85900783,32.9402488 C3.55958592,35.3284067 0.162772274,40.6289509 0.195822454,46.4586816 C0.195822454,54.5846766 6.61488251,61.1739055 14.5319843,61.1739055 C15.3639745,61.1728386 16.1942378,61.0978694 17.0130548,60.9498756 C16.9699739,61.439204 16.944517,61.9324627 16.944517,62.4375124 C16.944517,71.5559204 24.1468668,78.9449751 33.0313316,78.9449751 C36.3163223,78.944261 39.5190254,77.9136702 42.191906,75.9972139 C44.3426625,77.8937669 47.1068884,78.9413635 49.9699739,78.9449751 C56.6063969,78.9449751 61.9875979,73.4228358 61.9875979,66.6095771 C61.9875979,66.314801 61.9640992,66.0200249 61.944517,65.7350746 L61.9875979,65.7350746 C69.095953,65.7350746 74.8570496,59.8218657 74.8570496,52.5271393 C74.8795419,47.6064867 72.1811849,43.0791371 67.8505222,40.7714677 Z" id="Shape"></path>
            </g>
            <path d="M64.521723,60.1727573 C67.4954693,56.7079221 68.8485878,52.0995229 68.2309611,47.5399763 C67.6133344,42.9804296 65.0856512,38.9177622 61.3019458,36.4031832 C62.2671915,34.8813433 62.7800649,33.1076382 62.7788017,31.2956715 C62.7788017,26.1626221 58.7858925,22 53.8578982,22 C49.8090767,22 46.3810745,24.8268113 45.2994607,28.6908404 C42.9390264,24.564568 38.6116297,22.0192266 33.9242002,22 C26.5823371,22 20.6305694,28.201698 20.6305694,35.8511791 C20.6286234,37.4809086 20.9039036,39.0986528 21.4441898,40.6325959 C21.1742683,40.6109872 20.9043469,40.5893785 20.6305694,40.5893785 C14.7308581,40.587414 9.95903267,45.5633092 9.95903267,51.7119676 C9.95903267,52.0911021 9.97831277,52.4643434 10.013017,52.8336558 C5.11279407,55.0723544 1.97067827,60.0463354 2.00020632,65.5179648 C2.00020632,73.1438728 7.93269389,79.3239621 15.2494928,79.3239621 C16.0182175,79.3229469 16.7853454,79.2526078 17.541897,79.1137683 C17.5033368,79.5734444 17.4782727,80.0390137 17.4782727,80.5085119 C17.4782727,89.0635942 24.1337641,95.9999881 32.3451598,95.9999881 C35.3793585,96.0039061 38.3390407,95.0424347 40.8110528,93.2497894 C42.8007719,95.0235171 45.3549041,96.0008043 47.9986751,95.9999881 C54.1316757,95.9999881 59.1059422,90.817828 59.1059422,84.4255806 C59.1059422,84.1485963 59.0847341,83.8775053 59.0654539,83.6044499 L59.1059422,83.6044499 C65.6746731,83.6044499 70.9998374,78.0549419 70.9998374,71.2108761 C71.0231949,66.5903285 68.527759,62.3383324 64.521723,60.1727573 Z" id="aa86aca2-1def-4b5e-bdbf-3429bf39090e" fill="#00897B" fill-rule="nonzero"></path>
            <rect id="Rectangle-path" fill="url(#linearGradient-4)" fill-rule="nonzero" x="38" y="42" width="3" height="87"></rect>
            <rect id="Rectangle-path" fill="#795548" fill-rule="nonzero" x="39" y="43" width="1" height="86"></rect>
            <rect id="Rectangle-path" fill="#795548" fill-rule="nonzero" transform="translate(47.500000, 60.500000) rotate(-47.200000) translate(-47.500000, -60.500000) " x="37" y="60" width="21" height="1"></rect>
            <rect id="Rectangle-path" fill="#795548" fill-rule="nonzero" transform="translate(31.500000, 77.500000) rotate(-53.400000) translate(-31.500000, -77.500000) " x="31" y="68" width="1" height="19"></rect>
            <g id="b1e29bf6-85c6-472a-ba69-b630e8d8f49d" transform="translate(39.000000, 36.000000)" fill="url(#linearGradient-5)" fill-rule="nonzero">
                <path d="M6.24852071,34.0771513 C3.88690217,31.5567265 2.57020512,28.2293081 2.56579882,24.7705638 C2.56579882,19.7882493 5.26633136,15.4208902 9.3239645,12.9591098 C8.41098943,11.6229813 7.92225756,10.0411541 7.92195266,8.42136499 C7.92195266,3.86011869 11.7374556,0.162551929 16.4453254,0.162551929 C20.3233136,0.162551929 23.5901183,2.67329377 24.6230769,6.1084273 C26.9855532,2.38098167 31.0937887,0.134687269 35.4974556,0.162551929 C42.5133728,0.162551929 48.1897633,5.67364985 48.1897633,12.471454 C48.1896624,13.9233242 47.9249572,15.3629476 47.4086982,16.7193472 C47.6664497,16.6997626 47.9242012,16.6821365 48.1897633,16.6821365 C53.8212426,16.6821365 58.3846154,21.1043323 58.3846154,26.5605935 C58.3841879,26.8935677 58.3665904,27.226297 58.3318935,27.5574481 C62.8347337,29.4375668 65.988284,33.775549 65.988284,38.828368 C65.988284,45.6046291 60.3255621,51.0961424 53.3272189,51.0961424 C52.592753,51.0923083 51.8598968,51.0267975 51.1363314,50.9002967 C51.173432,51.3096142 51.1968639,51.7208902 51.1968639,52.14 C51.1968639,59.74273 44.8370414,65.9059941 36.9912426,65.9059941 C34.1155072,65.9112888 31.3033179,65.0576972 28.9130769,63.4540059 C26.9765426,65.0464738 24.5478222,65.9133814 22.0436095,65.9059941 C16.1856213,65.9059941 11.4308876,61.3016617 11.4308876,55.6221365 C11.4308876,55.3753709 11.4504142,55.1344807 11.4679882,54.891632 L11.4308876,54.891632 C5.15502959,54.891632 0.0663905325,49.9602374 0.0663905325,43.8792285 C0.0663905325,39.6058754 2.58337278,35.9024332 6.24852071,34.0771513 Z" id="Shape"></path>
            </g>
            <path d="M47.9031088,68.9867895 C45.6497287,66.6085185 44.3951555,63.4708805 44.3940128,60.2106794 C44.3940128,55.5129814 46.9751479,51.3959845 50.852699,49.0751095 C49.9755689,47.8140553 49.5058336,46.319257 49.505596,44.7883395 C49.505596,40.4880649 53.1531064,37 57.6505978,37 C61.3546436,37 64.47384,39.3671768 65.4661344,42.6063697 C67.7232573,39.0973298 71.6439556,36.9821162 75.8472101,37.0057877 C82.551533,37.0057877 87.9847833,42.2012295 87.9847833,48.6101628 C87.9860837,49.9794781 87.7343577,51.3374878 87.2420247,52.6171931 C87.4876614,52.5998299 87.7332981,52.5805375 87.9847833,52.5805375 C93.3653972,52.5805375 97.7322723,56.7515531 97.7322723,61.8949054 C97.732396,62.2087071 97.7161285,62.5223054 97.6835348,62.834445 C101.986076,64.6074161 105,68.6974036 105,73.4606957 C105,79.8484074 99.5842951,85.0361322 92.9014167,85.0361322 C92.2001471,85.0322388 91.500436,84.970287 90.8096056,84.8509253 C90.8446966,85.2367731 90.866141,85.622621 90.866141,86.0200443 C90.866141,93.189098 84.787607,98.9999671 77.291788,98.9999671 C74.5399375,99.0058325 71.8487771,98.1998214 69.5620292,96.6848798 C67.712078,98.1874562 65.391328,99.0059773 62.9980702,98.9999671 C57.3971631,98.9999671 52.8606817,94.6591784 52.8606817,89.3036098 C52.8606817,89.0721011 52.8801767,88.8444508 52.8977222,88.6148714 L52.8606817,88.6148714 C46.862077,88.6148714 42.0000295,83.9654044 42.0000295,78.2317048 C41.990282,74.1995944 44.3940128,70.7076711 47.9031088,68.9867895 Z" id="da8ae254-7852-462b-b033-1b79dc847a6a" fill="#009688" fill-rule="nonzero"></path>
            <path d="M69,56 L69,129" id="d827a518-3361-4086-b50f-c6b47e6818cd" fill="#795548" fill-rule="nonzero"></path>
            <rect id="Rectangle-path" fill="url(#linearGradient-6)" fill-rule="nonzero" x="68" y="56" width="5" height="73"></rect>
            <rect id="Rectangle-path" fill="#795548" fill-rule="nonzero" x="68" y="56" width="2" height="73"></rect>
            <path d="M70,77 L57,64" id="4a2b3956-f53f-4918-93e5-f7b78a79ae92" fill="#795548" fill-rule="nonzero"></path>
            <rect id="Rectangle-path" fill="#795548" fill-rule="nonzero" transform="translate(63.000000, 70.500000) rotate(-44.430000) translate(-63.000000, -70.500000) " x="62" y="61" width="2" height="19"></rect>
            <path d="M70,89 L84,80" id="100a92bc-a3f1-4f9a-a93f-0d91ae55d71b" fill="#795548" fill-rule="nonzero"></path>
            <rect id="Rectangle-path" fill="#795548" fill-rule="nonzero" transform="translate(76.000000, 84.000000) rotate(-35.060000) translate(-76.000000, -84.000000) " x="68" y="83" width="16" height="2"></rect>
            <path d="M158.947219,68 L61.0469325,68 C58.8109828,68 57,69.0042607 57,70.2459629 L57,142 L163,142 L163,70.2459629 C163,69.0042607 161.183169,68 158.947219,68 Z" id="Shape" fill="url(#linearGradient-7)" fill-rule="nonzero"></path>
            <polygon id="Shape" fill="#FFFFFF" fill-rule="nonzero" points="110.346152 27 59 64.7654561 59 139 162 139 162 67.4591073"></polygon>
            <circle id="Oval" fill="url(#linearGradient-2)" fill-rule="nonzero" cx="109.5" cy="61.5" r="11.5"></circle>
            <rect id="Rectangle-path" fill="url(#linearGradient-8)" fill-rule="nonzero" x="68" y="83" width="20" height="20"></rect>
            <rect id="Rectangle-path" fill="url(#linearGradient-8)" fill-rule="nonzero" x="130" y="83" width="20" height="20"></rect>
            <polygon id="Shape" fill="url(#linearGradient-9)" fill-rule="nonzero" points="48.7212755 85 46 69.6064555 109.822384 20 173 70.5973632 171.246852 84.4090014 109.812645 37.5270496"></polygon>
            <polygon id="Shape" fill="#EE2E24" fill-rule="nonzero" points="48.8711934 81 47 70.40299 109.806673 21 172 70.4069155 170.117124 80.9941117 109.796938 33.0749779"></polygon>
            <rect id="Rectangle-path" fill="url(#linearGradient-10)" fill-rule="nonzero" x="97" y="106" width="24" height="34"></rect>
            <rect id="Rectangle-path" fill="#EE2E24" fill-rule="nonzero" x="98" y="106" width="23" height="32"></rect>
            <rect id="Rectangle-path" fill="#EE2E24" fill-rule="nonzero" x="69" y="84" width="18" height="7"></rect>
            <rect id="Rectangle-path" fill="#EE2E24" fill-rule="nonzero" opacity="0.2" x="69" y="91" width="18" height="13"></rect>
            <rect id="Rectangle-path" fill="#EE2E24" fill-rule="nonzero" x="131" y="84" width="18" height="7"></rect>
            <rect id="Rectangle-path" fill="#EE2E24" fill-rule="nonzero" opacity="0.2" x="131" y="91" width="18" height="13"></rect>
            <path d="M109.5,71 C112.286484,71.0000012 114.958696,69.9461328 116.92811,68.0704983 C118.897525,66.1948637 120.002613,63.6513 119.999995,61 L99.0000046,61 C98.997387,63.6513 100.102475,66.1948637 102.07189,68.0704983 C104.041304,69.9461328 106.713516,71.0000012 109.5,71 Z" id="Shape" fill="#EE2E24" fill-rule="nonzero"></path>
            <path d="M109.5,71 C115.29899,71 120,66.5228475 120,61 L99,61 C99,66.5228475 103.70101,71 109.5,71 Z" id="Shape" fill="#000000" fill-rule="nonzero" opacity="0.2"></path>
            <path d="M109.5,51 C103.704867,50.9999976 99.0054537,55.4756291 99,61 L120,61 C119.994546,55.4756291 115.295133,50.9999976 109.5,51 Z" id="Shape" fill="#EE2E24" fill-rule="nonzero" opacity="0.2"></path>
            <path d="M109.5,51 C103.704867,50.9999976 99.0054537,55.4756291 99,61 L120,61 C119.994546,55.4756291 115.295133,50.9999976 109.5,51 Z" id="Shape" fill="#EE2E24" fill-rule="nonzero" opacity="0.2"></path>
            <circle id="Oval" fill="url(#linearGradient-2)" fill-rule="nonzero" cx="115.5" cy="123.5" r="2.5"></circle>
            <circle id="Oval" fill="#263238" fill-rule="nonzero" cx="115.5" cy="122.5" r="1.5"></circle>
            <rect id="Rectangle-path" fill="url(#linearGradient-11)" fill-rule="nonzero" x="95" y="135" width="30" height="9"></rect>
            <rect id="Rectangle-path" fill="#FFFFFF" fill-rule="nonzero" x="95" y="135" width="29" height="8"></rect>
            <g id="06ed4a51-c0d7-4f18-ace3-f8895d5abf4f" transform="translate(36.000000, 94.000000)" fill="url(#linearGradient-12)" fill-rule="nonzero">
                <path d="M31.5454802,19.1703763 C33.042082,17.4472982 33.7228884,15.1562762 33.4118951,12.889593 C33.1009017,10.6229097 31.8286371,8.6030731 29.9240113,7.35225806 C30.4108869,6.59420429 30.6691224,5.71052918 30.6675141,4.80801075 C30.7243643,2.5281422 29.0795975,0.564742303 26.8364478,0.23476953 C24.593298,-0.0952032426 22.4585627,1.31222273 21.8641243,3.51301075 C20.6746066,1.4590937 18.4925774,0.192747359 16.129661,0.185 C12.4319209,0.185 9.43418079,3.26833333 9.43418079,7.07376344 C9.43197413,7.88732156 9.57047988,8.69506362 9.84350282,9.46086022 C9.70706215,9.45091398 9.57259887,9.43897849 9.43418079,9.43897849 C6.4680791,9.43897849 4.05960452,11.9136022 4.05960452,14.9670968 C4.05960452,15.1560753 4.05960452,15.3410753 4.08728814,15.5260753 C1.61937961,16.6396328 0.036869157,19.1130298 0.0514124294,21.8339785 C0.0514124294,25.6254839 3.03926554,28.698871 6.72514124,28.698871 C7.11241398,28.6980826 7.49885687,28.6628015 7.8799435,28.5934409 C7.86016949,28.8222043 7.84830508,29.052957 7.84830508,29.2876882 C7.84830508,33.5426882 11.209887,36.992043 15.3367232,36.992043 C16.8652338,36.9923559 18.355691,36.5124967 19.6,35.6194624 C20.601557,36.5034197 21.8882486,36.9912056 23.2206215,36.992043 C26.309322,36.992043 28.8146893,34.4060215 28.8146893,31.2371505 C28.8146893,31.0998925 28.8048023,30.9646237 28.7949153,30.8293548 L28.8146893,30.8293548 C32.1228814,30.8293548 34.8042373,28.0702688 34.8042373,24.6626882 C34.8177995,22.3647288 33.562502,20.2490493 31.5454802,19.1703763 Z" id="Shape"></path>
            </g>
            <path d="M65.9933547,112.541439 C67.3718212,110.949278 67.9989019,108.832054 67.7124159,106.737342 C67.4259299,104.64263 66.2540129,102.776151 64.4997562,101.62063 C64.9479009,100.920501 65.1857135,100.104383 65.1844839,99.2708057 C65.2371337,97.1639542 63.7225563,95.3494108 61.656852,95.0445174 C59.5911478,94.7396241 57.6253686,96.0404745 57.0783174,98.0743535 C55.9837498,96.1788735 53.9775203,95.0094224 51.8041689,95 C48.3999282,95 45.6396805,97.849162 45.6396805,101.364108 C45.6390803,102.11303 45.767057,102.856392 46.0179295,103.561193 C45.8937862,103.561193 45.7677033,103.541611 45.6396805,103.541611 C42.9065892,103.541611 40.6914081,105.828774 40.6914081,108.650521 C40.6914081,108.8248 40.6914081,108.99712 40.7166247,109.165524 C38.444365,110.194172 36.987104,112.47917 37.000086,114.993089 C37.000086,118.496285 39.750635,121.337614 43.145177,121.337614 C43.5016124,121.337344 43.8573251,121.305235 44.2081536,121.241663 C44.190696,121.453147 44.1790576,121.66659 44.1790576,121.88199 C44.1790576,125.81403 47.2651812,129 51.0728876,129 C52.4805534,129.000253 53.8531434,128.556628 54.9989179,127.731095 C55.9212423,128.548172 57.1062274,128.999116 58.3333281,129 C61.1789242,129 63.4833334,126.618845 63.4833334,123.681564 C63.4833334,123.554282 63.4736347,123.428958 63.463936,123.303634 L63.4833334,123.303634 C66.5287225,123.303634 68.9999492,120.757991 68.9999492,117.609226 C69.0088416,115.487092 67.8508052,113.535155 65.9933547,112.541439 Z" id="78683fa5-7813-42ce-9e3f-16828d09ffb2" fill="#00897B" fill-rule="nonzero"></path>
            <rect id="Rectangle-path" fill="url(#linearGradient-2)" fill-rule="nonzero" x="53" y="105" width="1" height="40"></rect>
            <rect id="Rectangle-path" fill="#795548" fill-rule="nonzero" x="53" y="105" width="1" height="39"></rect>
            <rect id="Rectangle-path" fill="#795548" fill-rule="nonzero" transform="translate(57.000000, 113.500000) rotate(-47.200000) translate(-57.000000, -113.500000) " x="52" y="113" width="10" height="1"></rect>
            <rect id="Rectangle-path" fill="#795548" fill-rule="nonzero" transform="translate(50.500000, 121.000000) rotate(-53.400000) translate(-50.500000, -121.000000) " x="50" y="117" width="1" height="8"></rect>
            <g id="972b0d41-b6e5-4c12-bd64-332f8d6d9bc4" transform="translate(53.000000, 102.000000)" fill="url(#linearGradient-13)" fill-rule="nonzero">
                <path d="M2.91916667,15.9391667 C1.81054774,14.760441 1.19299518,13.2034126 1.19230769,11.5852564 C1.20711024,9.3128604 2.41437395,7.21523971 4.37179487,6.06089744 C3.94111183,5.43544051 3.71036838,4.69401262 3.7100641,3.93461538 C3.7100641,1.80038462 5.49852564,0.0715384615 7.70826923,0.0715384615 C9.46087212,0.0513123216 11.0198136,1.18156511 11.5455128,2.85358974 C12.6534115,1.10975796 14.5806346,0.0586818273 16.6466026,0.0715384615 C19.9373718,0.0715384615 22.608141,2.65487179 22.608141,5.83435897 C22.6085602,6.51351608 22.484637,7.18701169 22.2425,7.82153846 C22.3637179,7.82153846 22.4849359,7.80365385 22.608141,7.80365385 C25.2491026,7.80365385 27.3912821,9.87230769 27.3912821,12.4238462 C27.3914013,12.5798159 27.383442,12.7356871 27.3674359,12.8908333 C29.5207019,13.7598994 30.9380883,15.8408767 30.9582692,18.1628205 C30.9582692,21.3323718 28.2994231,23.9017949 25.0185897,23.9017949 C24.6742932,23.901355 24.3306371,23.8721077 23.9912179,23.814359 C24.0091026,24.0130769 24.0190385,24.1978846 24.0190385,24.3946154 C24.0190385,27.9496795 21.0382692,30.8330769 17.3540385,30.8330769 C16.0030057,30.836751 14.6815535,30.4375479 13.5585256,29.6864744 C12.6482446,30.4289248 11.5079838,30.8314938 10.3333333,30.8251282 C7.58307692,30.8251282 5.35544872,28.6710256 5.35544872,26.0141667 C5.35544872,25.8989103 5.35544872,25.785641 5.37333333,25.6723718 L5.35544872,25.6723718 C2.41044872,25.6723718 0.0238461538,23.3652564 0.0238461538,20.5216026 C0.0379828307,18.5675197 1.16045664,16.7909757 2.91916667,15.9391667 Z" id="Shape"></path>
            </g>
            <path d="M56.7433747,116.96997 C55.7036319,115.856607 55.124738,114.386294 55.1245891,112.85847 C55.1367006,110.717255 56.2645547,108.739494 58.0956055,107.648613 C57.6918511,107.058939 57.4754276,106.359856 57.4749413,105.643767 C57.4749413,103.63109 59.1520966,102.000195 61.2222744,102.000195 C62.8632573,101.983449 64.3225303,103.047421 64.8178464,104.621766 C65.8566757,102.978146 67.6626234,101.987781 69.5983227,102.000195 C72.6821872,102.000195 75.1823549,104.429896 75.1823549,107.429333 C75.1826097,108.069667 75.0665578,108.704656 74.8399195,109.303002 C74.9527675,109.303002 75.0656156,109.285381 75.1823549,109.285381 C77.6572291,109.285381 79.6573633,111.243238 79.6573633,113.643571 C79.657146,113.790717 79.649353,113.937754 79.6340154,114.084089 C81.6521547,114.903183 82.9808293,116.865414 83,119.055088 C83,122.042778 80.5076149,124.466605 77.4334787,124.466605 C77.1074794,124.466829 76.7820447,124.439321 76.4606508,124.384375 C76.4781617,124.564498 76.48789,124.746579 76.48789,124.930617 C76.48789,128.284426 73.6919826,130.999974 70.2423348,130.999974 C68.9763658,131.003596 67.7380699,130.627324 66.6856759,129.919237 C65.8342938,130.621252 64.7667189,131.003338 63.6660181,130.999974 C61.0899698,130.999974 58.9964441,128.969676 58.9964441,126.463619 C58.9964441,126.355937 58.9964441,126.248255 59.013955,126.142531 L58.9964441,126.142531 C56.2375042,126.142531 54,123.967351 54,121.285087 C54.0210389,119.437717 55.0854042,117.763553 56.7433747,116.96997 Z" id="b9cc99c1-468f-47c5-9d53-f370b6656f3a" fill="#009688" fill-rule="nonzero"></path>
            <path d="M68,111 L68,145" id="7a451371-7fbb-4ddd-b5af-3dcf3eef4c8e" fill="#795548" fill-rule="nonzero"></path>
            <rect id="Rectangle-path" fill="url(#linearGradient-14)" fill-rule="nonzero" x="67" y="111" width="1" height="34"></rect>
            <rect id="Rectangle-path" fill="#795548" fill-rule="nonzero" x="67" y="111" width="1" height="34"></rect>
            <path d="M67,120 L61,114" id="f8907fab-e671-432b-8785-92f5b3540283" fill="#795548" fill-rule="nonzero"></path>
            <rect id="Rectangle-path" fill="#795548" fill-rule="nonzero" transform="translate(63.500000, 117.000000) rotate(-44.430000) translate(-63.500000, -117.000000) " x="63" y="113" width="1" height="8"></rect>
            <path d="M68,126 L74,121" id="83bfd14d-9fcf-4efd-aa6d-a51063723d88" fill="#795548" fill-rule="nonzero"></path>
            <rect id="Rectangle-path" fill="#795548" fill-rule="nonzero" transform="translate(70.500000, 124.500000) rotate(-35.060000) translate(-70.500000, -124.500000) " x="67" y="124" width="7" height="1"></rect>
            <polyline id="Shape" stroke="#37474F" points="17 98 30.1366667 112 45 98"></polyline>
            <rect id="Rectangle-path" fill="url(#linearGradient-15)" fill-rule="nonzero" x="5" y="91" width="9" height="54"></rect>
            <rect id="Rectangle-path" fill="#F5F5F5" fill-rule="nonzero" x="6" y="93" width="7" height="52"></rect>
            <rect id="Rectangle-path" fill="url(#linearGradient-16)" fill-rule="nonzero" x="2" y="94" width="53" height="9"></rect>
            <rect id="Rectangle-path" fill="#F5F5F5" fill-rule="nonzero" transform="translate(28.500000, 99.000000) rotate(-90.000000) translate(-28.500000, -99.000000) " x="25" y="73" width="7" height="52"></rect>
            <circle id="Oval" fill="url(#linearGradient-2)" fill-rule="nonzero" cx="8.5" cy="98.5" r="1.5"></circle>
            <circle id="Oval" fill="url(#linearGradient-2)" fill-rule="nonzero" cx="51.5" cy="98.5" r="1.5"></circle>
            <circle id="Oval" fill="#E6E6E6" fill-rule="nonzero" cx="9" cy="98" r="1"></circle>
            <circle id="Oval" fill="#E6E6E6" fill-rule="nonzero" cx="51" cy="98" r="1"></circle>
            <rect id="Rectangle-path" fill="url(#linearGradient-17)" fill-rule="nonzero" x="15" y="111" width="33" height="23"></rect>
            <rect id="Rectangle-path" fill="#EE2E24" fill-rule="nonzero" x="15" y="111" width="32" height="22"></rect>
            <rect id="Rectangle-path" fill="#FFFFFF" fill-rule="nonzero" x="18" y="114" width="23" height="2"></rect>
            <rect id="Rectangle-path" fill="#FFFFFF" fill-rule="nonzero" x="23" y="119" width="16" height="2"></rect>
            <rect id="Rectangle-path" fill="#FFFFFF" fill-rule="nonzero" x="21" y="124" width="20" height="2"></rect>
            <rect id="Rectangle-path" fill="#FFFFFF" fill-rule="nonzero" x="20" y="127" width="23" height="2"></rect>
            <g id="63650477-b8a1-43d8-a2c1-7cd9fae56092" transform="translate(141.000000, 102.000000)" fill="url(#linearGradient-18)" fill-rule="nonzero">
                <path d="M3.03068323,16.5623669 C1.70671109,15.0712167 1.10468356,13.0890862 1.38015922,11.1281403 C1.65563487,9.16719438 2.78158743,7.41981694 4.46708075,6.33751479 C4.03592596,5.68141304 3.80721061,4.91656284 3.80857143,4.13538462 C3.75509872,2.16036312 5.21171771,0.457929991 7.19965625,0.172031664 C9.18759479,-0.113866662 11.0789618,1.1070709 11.6028571,3.01443787 C12.6557424,1.23734376 14.5869412,0.14152626 16.6783851,0.13443787 C19.951677,0.13443787 22.6049689,2.80426036 22.6049689,6.09514793 C22.6061417,6.79663731 22.4836665,7.49301883 22.2429814,8.15337278 C22.3623602,8.15337278 22.4836646,8.13443787 22.6049689,8.13443787 C25.2332298,8.13443787 27.362795,10.2759763 27.362795,12.9192899 C27.362795,13.0821302 27.362795,13.2430769 27.337764,13.4021302 C29.5229463,14.365527 30.924281,16.5061294 30.9114286,18.8610651 C30.9114286,22.1424852 28.2658385,24.8028402 25.0040994,24.8028402 C24.6612323,24.8022755 24.3190892,24.7718609 23.981677,24.7119527 C23.9990062,24.9013018 24.010559,25.1095858 24.010559,25.3121893 C24.010559,28.9950296 21.0434161,31.9791716 17.3811801,31.9791716 C16.0275282,31.9799416 14.7074405,31.5648728 13.6053416,30.7919527 C12.7178894,31.5572098 11.577827,31.9791477 10.3975155,31.9791716 C7.66335404,31.9791716 5.44521739,29.7486391 5.44521739,26.9973964 C5.44521739,26.8781065 5.44521739,26.7607101 5.46254658,26.6433136 L5.44521739,26.6433136 C2.51658385,26.6433136 0.142484472,24.2556213 0.142484472,21.3093491 C0.133474602,19.3221892 1.24578861,17.4940135 3.03068323,16.5623669 Z" id="Shape"></path>
            </g>
            <path d="M144.722367,118.993062 C143.473277,117.541725 142.905051,115.611765 143.164649,113.702327 C143.424247,111.792888 144.486173,110.091495 146.075784,109.038178 C145.669143,108.400157 145.453546,107.656014 145.455145,106.896013 C145.406156,104.974376 146.778902,103.318651 148.651835,103.040354 C150.524769,102.762057 152.307076,103.948977 152.802264,105.804313 C153.794379,104.074489 155.61441,103.007642 157.585625,103.000453 C160.679148,103.000453 163.171368,105.598147 163.171368,108.802559 C163.172085,109.48521 163.056298,110.162822 162.829147,110.805317 C162.943221,110.805317 163.055361,110.787646 163.171368,110.787646 C165.64812,110.787646 167.655044,112.87287 167.655044,115.445039 C167.655044,115.604082 167.655044,115.761161 167.631842,115.914313 C169.691389,116.851956 171.012127,118.935445 170.999916,121.227511 C170.999916,124.422106 168.507696,127.009983 165.431574,127.009983 C165.107391,127.009651 164.783879,126.980083 164.464848,126.921626 C164.482249,127.117975 164.491916,127.314324 164.491916,127.510672 C164.491916,131.094038 161.694211,134 158.242998,134 C156.967481,134.000199 155.723742,133.595883 154.685446,132.843506 C153.850009,133.587897 152.776812,133.998865 151.665394,134 C149.088102,134 146.99804,131.830346 146.99804,129.152148 C146.99804,129.036302 146.99804,128.92242 147.015441,128.808538 L146.99804,128.808538 C144.237071,128.808538 142.000066,126.483768 142.000066,123.617076 C141.990394,121.681625 143.038973,119.900542 144.722367,118.993062 Z" id="d9fb3d72-af8e-4f1d-b977-47710d21b422" fill="#00897B" fill-rule="nonzero"></path>
            <rect id="Rectangle-path" fill="url(#linearGradient-19)" fill-rule="nonzero" x="155" y="111" width="1" height="37"></rect>
            <rect id="Rectangle-path" fill="#795548" fill-rule="nonzero" x="155" y="112" width="1" height="36"></rect>
            <rect id="Rectangle-path" fill="#795548" fill-rule="nonzero" transform="translate(152.497168, 119.496815) rotate(-42.800000) translate(-152.497168, -119.496815) " x="151.997108" y="114.996814" width="1" height="9"></rect>
            <rect id="Rectangle-path" fill="#795548" fill-rule="nonzero" transform="translate(159.002637, 126.498103) rotate(-36.600000) translate(-159.002637, -126.498103) " x="155.002637" y="125.998069" width="8" height="1"></rect>
            <g id="ea5e6e86-8f22-4c0d-a253-147f504d396e" transform="translate(128.000000, 109.000000)" fill="url(#linearGradient-20)" fill-rule="nonzero">
                <path d="M25.2313287,14.4397183 C26.2238085,13.3759122 26.7768861,11.9714954 26.7781818,10.511831 C26.7691007,8.46123224 25.6910248,6.56618011 23.939021,5.52112676 C24.3230627,4.95617152 24.5278855,4.28718469 24.5264336,3.60253521 C24.5264336,1.67802817 22.9227972,0.116338028 20.9451748,0.116338028 C19.3765514,0.100117334 17.9816663,1.11823067 17.5088112,2.62450704 C16.5158045,1.0519099 14.7892858,0.104353154 12.9387413,0.116338028 C9.98993007,0.116338028 7.60111888,2.44112676 7.60111888,5.31014085 C7.60075082,5.92267974 7.71156969,6.53012735 7.92811189,7.10253521 C7.82041958,7.10253521 7.71076923,7.08676056 7.60111888,7.08676056 C5.2358042,7.08676056 3.31692308,8.95211268 3.31692308,11.2552113 C3.31692055,11.3954912 3.3241096,11.5356778 3.33846154,11.6752113 C1.4091631,12.4588528 0.13918093,14.3363749 0.121398601,16.4312676 C0.121398601,19.2904225 2.50433566,21.6073239 5.4413986,21.6073239 C5.74980592,21.6069238 6.05763939,21.5805407 6.36167832,21.5284507 C6.34601399,21.7 6.33622378,21.875493 6.33622378,22.0509859 C6.33622378,25.2591549 9.00895105,27.86 12.3062937,27.86 C13.5163494,27.8629282 14.6998007,27.5025092 15.7054545,26.8247887 C16.5200172,27.5031567 17.5443844,27.8735215 18.6013986,27.871831 C21.0646154,27.871831 23.0618182,25.9295775 23.0618182,23.5338028 C23.0618182,23.4292958 23.0618182,23.3366197 23.0461538,23.2261972 L23.0618182,23.2261972 C25.6993007,23.2261972 27.8374825,21.1459155 27.8374825,18.5785915 C27.8245116,16.8110937 26.8133519,15.2052554 25.2313287,14.4397183 Z" id="Shape"></path>
            </g>
            <path d="M153.456291,123.936264 C154.426273,122.90159 154.968027,121.534046 154.971353,120.111814 C154.960084,118.118046 153.909703,116.276449 152.204371,115.260559 C152.580451,114.711387 152.782036,114.060339 152.782487,113.393458 C152.782487,111.52034 151.219581,110.000186 149.291864,110.000186 C147.76285,109.984374 146.403269,110.975992 145.942779,112.44286 C144.975178,110.911748 143.292767,109.988969 141.489294,110.000186 C138.616657,110.000186 136.288246,112.264373 136.288246,115.056 C136.288008,115.652282 136.396105,116.243586 136.607206,116.800768 C136.501551,116.800768 136.395895,116.784724 136.288246,116.784724 C133.981763,116.784724 132.113851,118.601688 132.113851,120.841809 C132.114423,120.975794 132.121741,121.109664 132.13578,121.242905 C130.255994,122.005546 129.018239,123.832565 129,125.871552 C129,128.655157 131.320437,130.911322 134.183107,130.911322 C134.483723,130.911165 134.783798,130.885673 135.080183,130.835113 C135.064235,131.003574 135.056261,131.172034 135.056261,131.344505 C135.056261,134.467037 137.661769,136.999958 140.873302,136.999958 C142.052224,137.004427 143.205721,136.655321 144.186503,135.997218 C144.980026,136.649732 145.974462,137.004236 146.999335,136.999958 C149.391539,136.999958 151.345171,135.10879 151.345171,132.776418 C151.345171,132.676144 151.345171,132.57587 151.329223,132.477601 L151.345171,132.477601 C153.914796,132.477601 156,130.452067 156,127.953239 C155.981732,126.236171 154.995442,124.678641 153.456291,123.936264 Z" id="79f8c247-f548-4c1c-8f49-a16aaa215201" fill="#009688" fill-rule="nonzero"></path>
            <path d="M143,117 L143,148" id="86901f0c-b7b5-4ba8-942f-e54f281a8bcd" fill="#795548" fill-rule="nonzero"></path>
            <rect id="Rectangle-path" fill="url(#linearGradient-21)" fill-rule="nonzero" x="142" y="117" width="1" height="31"></rect>
            <rect id="Rectangle-path" fill="#795548" fill-rule="nonzero" x="142" y="117" width="1" height="31"></rect>
            <path d="M142,126 L148,120" id="63650f42-d3c3-489e-a647-f3904e46b7bd" fill="#795548" fill-rule="nonzero"></path>
            <rect id="Rectangle-path" fill="#795548" fill-rule="nonzero" transform="translate(146.000000, 124.500000) rotate(-45.570000) translate(-146.000000, -124.500000) " x="142" y="124" width="8" height="1"></rect>
            <path d="M143,132 L137,127" id="25077b7e-584e-4c29-8c8c-a60ca5d6c1ae" fill="#795548" fill-rule="nonzero"></path>
            <rect id="Rectangle-path" fill="#795548" fill-rule="nonzero" transform="translate(140.500000, 129.500000) rotate(-54.940000) translate(-140.500000, -129.500000) " x="140" y="126" width="1" height="7"></rect>
        </g>
    </g>
</svg>